{
.appVersion = "3110";
.formatVersion = 3;
axes = (
{
name = Weight;
tag = wght;
}
);
customParameters = (
{
name = fsType;
value = (
);
},
{
name = "Enforce Compatibility Check";
value = 0;
},
{
name = "Use Line Breaks";
value = 1;
},
{
name = "Write lastChange";
value = 0;
},
{
name = "Write DisplayStrings";
value = 0;
}
);
date = "2015-04-18 10:46:40 +0000";
familyName = "Euler Text";
featurePrefixes = (
{
code = "languagesystem DFLT dflt;
languagesystem latn dflt;";
name = Languagesystems;
}
);
features = (
{
code = "sub f' [b h k l] by f.alt;
";
tag = calt;
},
{
automatic = 1;
code = "sub zero by zero.numr;
sub one by one.numr;
sub two by two.numr;
sub three by three.numr;
sub four by four.numr;
sub five by five.numr;
sub six by six.numr;
sub seven by seven.numr;
sub eight by eight.numr;
sub nine by nine.numr;
";
tag = numr;
},
{
automatic = 1;
code = "sub zero by zero.dnom;
sub one by one.dnom;
sub two by two.dnom;
sub three by three.dnom;
sub four by four.dnom;
sub five by five.dnom;
sub six by six.dnom;
sub seven by seven.dnom;
sub eight by eight.dnom;
sub nine by nine.dnom;
";
tag = dnom;
},
{
code = "# Dummy feature for the merger.
sub space by space;";
tag = locl;
}
);
fontMaster = (
{
axesValues = (
500
);
customParameters = (
{
name = typoAscender;
value = 800;
},
{
name = typoDescender;
value = -200;
},
{
name = typoLineGap;
value = 90;
},
{
name = hheaAscender;
value = 800;
},
{
name = hheaDescender;
value = -200;
},
{
name = hheaLineGap;
value = 90;
},
{
name = winAscent;
value = 931;
},
{
name = winDescent;
value = 275;
},
{
name = underlineThickness;
value = 50;
},
{
name = underlinePosition;
value = -100;
},
{
name = paramArea;
value = "290";
},
{
name = paramDepth;
value = "17";
},
{
name = paramOver;
value = "0";
},
{
name = "Master Icon Glyph Name";
value = a;
}
);
guides = (
{
lockAngle = 1;
name = "Cap accent";
pos = (0,718);
}
);
id = "21503E60-83E9-42CA-80F5-20ED7CD97021";
metricValues = (
{
pos = 800;
},
{
pos = 683;
},
{
pos = 462;
},
{

glyphs = (
{
glyphname = A;
layers = (
{
anchors = (
{
name = bottom;
pos = (331,0);
},
{
name = top;
pos = (352,680);
}
);
layerId = "21503E60-83E9-42CA-80F5-20ED7CD97021";
shapes = (
{
closed = 1;
nodes = (
(539,-10,o),
(526,32,o),
(514,76,cs),
(460,264,l),
(458,268,o),
(452,273,o),
(449,273,cs),
(224,273,ls),
(220,273,o),
(216,269,o),
(214,265,cs),
(97,17,l),
(6,-2,l),
(3,8,l),
(122,208,o),
(237,412,o),
(342,620,c),
(343,623,o),
(343,624,o),
(343,627,cs),
(343,630,o),
(340,636,o),
(331,638,c),
(241,653,l),
(241,680,l),
(435,680,l),
(450,597,o),
(495,437,o),
(528,317,cs),
(550,236,o),
(577,139,o),
(613,79,cs),
(626,57,o),
(650,49,o),
(677,49,cs),
(691,49,o),
(706,51,o),
(720,52,c),
(721,26,l),
(617,-4,ls),
(602,-8,o),
(587,-10,o),
(572,-10,cs)
);
},
{
closed = 1;
nodes = (
(363,576,o),
(360,573,o),
(360,572,c),
(244,328,ls),
(243,326,o),
(243,320,o),
(243,319,cs),
(243,316,o),
(247,312,o),
(250,312,cs),
(438,312,ls),
(443,312,o),
(445,316,o),
(445,319,c),
(445,319,o),
(443,327,o),
(443,328,c),
(373,572,l),
(372,574,o),
(369,576,o),
(366,576,cs)
);
}
);
width = 722;
},
{
anchors = (
{
name = bottom;
pos = (418,0);
},
{
name = ogonek;
pos = (752,10);
},
{
name = top;
pos = (418,692);
}
);
layerId = "2927A78B-FE88-4016-B2C6-41428F7EDB2B";
shapes = (
{
closed = 1;
nodes = (
(137,10,c),
(11,-1,l),
(9,9,l),
(144,210,o),
(268,415,o),
(379,628,c),
(380,629,o),
(380,631,o),
(380,633,cs),
(380,634,o),
(379,637,o),
(377,637,c),
(283,649,l),
(283,687,l),
(507,687,l),
(618,314,ls),
(646,220,o),
(694,62,o),
(762,62,cs),
(779,62,o),
(801,66,o),
(820,70,c),
(827,42,l),
(769,16,o),
(704,-14,o),
(646,-14,cs),
(586,-14,o),
(562,40,o),
(549,86,cs),
(498,268,l),
(247,268,l),
(213,204,o),
(171,97,o)
);
},
{
closed = 1;
nodes = (
(467,320,ls),
(470,320,o),
(476,322,o),
(476,325,cs),
(476,328,o),
(476,336,o),
(475,338,c),
(410,543,ls),
(408,549,o),
(403,551,o),
(401,551,cs),
(399,551,o),
(395,548,o),
(392,543,c),
(287,335,l),
(285,332,o),
(285,330,o),
(285,326,cs),
(285,323,o),
(292,320,o),
(296,320,cs)
);
}
);
width = 836;
}
);
unicode = 65;
},
{
glyphname = AE;
layers = (
{
layerId = "21503E60-83E9-42CA-80F5-20ED7CD97021";
shapes = (
{
closed = 1;
nodes = (
(366,568,ls),
(366,577,o),
(362,577,o),
(360,572,c),
(244,328,ls),
(243,326,o),
(243,320,o),
(243,319,cs),
(243,316,o),
(247,312,o),
(250,312,cs),
(366,312,l)
);
},
{
closed = 1;
nodes = (
(366,273,l),
(224,273,ls),
(220,273,o),
(216,269,o),
(214,265,cs),
(97,17,l),
(6,-2,l),
(3,8,l),
(122,208,o),
(238,414,o),
(343,622,c),
(344,625,o),
(344,626,o),
(344,629,cs),
(344,632,o),
(341,638,o),
(332,640,c),
(241,655,l),
(241,682,l),
(435,682,ls),
(505,682,o),
(606,687,o),
(677,688,cs),
(695,688,o),
(710,688,o),
(723,687,c),
(721,637,l),
(717,630,l),
(648,634,o),
(515,640,o),
(508,640,cs),
(468,640,l),
(448,636,o),
(444,599,o),
(444,564,cs),
(444,398,ls),
(444,381,o),
(473,384,o),
(510,384,cs),
(563,384,o),
(637,387,o),
(690,391,c),
(696,384,l),
(690,336,l),
(651,339,o),
(611,342,o),
(572,342,cs),
(514,342,o),
(443,345,o),
(443,327,cs),
(443,188,ls),
(443,150,o),
(444,101,o),
(458,76,cs),
(472,50,o),
(493,44,o),
(554,44,cs),
(601,44,o),
(624,44,o),
(788,58,c),
(793,53,l),
(780,0,l),
(392,0,l),
(372,11,o),
(366,39,o),
(366,66,cs)
);
}
);
width = 797;
},
{
layerId = "2927A78B-FE88-4016-B2C6-41428F7EDB2B";
shapes = (
{
closed = 1;
nodes = (
(384,638,c),
(385,639,o),
(385,641,o),
(385,643,cs),
(385,644,o),
(384,647,o),
(382,647,c),
(283,659,l),
(283,697,l),
(465,692,o),
(632,697,o),
(789,709,c),
(802,704,l),
(802,642,l),
(790,631,l),
(713,636,o),
(563,645,o),
(562,645,cs),
(526,645,o),
(527,622,o),
(527,595,cs),
(527,415,ls),
(527,406,o),
(535,389,o),
(547,389,cs),
(609,389,o),
(764,405,o),
(767,406,c),
(768,406,o),
(776,401,o),
(780,398,c),
(780,340,l),
(711,343,o),
(631,343,o),
(555,343,cs),
(532,343,o),
(527,330,o),
(527,316,cs),
(527,251,o),
(527,174,o),
(536,123,c),
(541,82,o),
(562,61,o),
(603,61,cs),
(618,61,o),
(888,76,o),
(888,76,c),
(898,68,l),
(872,-8,l),
(758,-1,o),
(644,0,o),
(530,0,cs),
(498,0,o),
(450,0,o),
(435,4,c),
(420,12,o),
(402,32,o),
(402,51,cs),
(402,268,l),
(247,268,l),
(213,204,o),
(171,97,o),
(137,10,c),
(11,-1,l),
(9,9,l),
(141,205,o),
(274,429,o)
);
},
{
closed = 1;
nodes = (
(402,320,l),
(402,540,ls),
(402,547,o),
(395,548,o),
(392,543,c),
(287,335,l),
(285,332,o),
(285,330,o),
(285,326,cs),
(285,323,o),
(292,320,o),
(296,320,cs)
);
}
);
width = 908;
}
);
metricLeft = A;
metricRight = E;
unicode = 198;
},
{
glyphname = B;
layers = (
{
layerId = "21503E60-83E9-42CA-80F5-20ED7CD97021";
shapes = (
{
closed = 1;
nodes = (
(169,324,l),
(169,66,ls),
(169,43,o),
(177,39,o),
(244,39,cs),
(346,39,o),
(437,91,o),
(437,208,cs),
(437,327,o),
(331,346,o),
(231,346,cs),
(195,346,o),
(174,348,o),
(169,338,c)
);
},
{
closed = 1;
nodes = (
(169,411,l),
(169,391,l),
(171,381,o),
(183,381,o),
(203,381,cs),
(309,381,o),
(403,427,o),
(403,545,cs),
(403,629,o),
(327,648,o),
(242,648,cs),
(219,648,o),
(175,650,o),
(169,629,c)
);
},
{
closed = 1;
nodes = (
(335,378,c),
(334,370,l),
(480,351,o),
(528,299,o),
(528,201,cs),
(528,47,o),
(384,-1,o),
(263,-1,cs),
(197,-1,o),
(66,1,o),
(65,1,c),
(64,11,l),
(84,41,o),
(87,25,o),
(87,81,cs),
(87,611,ls),
(87,645,o),
(41,652,o),
(4,662,c),
(5,679,l),
(12,686,l),
(259,686,ls),
(372,686,o),
(488,662,o),
(488,553,cs),
(488,456,o),
(416,412,o)
);
}
);
width = 559;
},
{
layerId = "2927A78B-FE88-4016-B2C6-41428F7EDB2B";
shapes = (
{
closed = 1;
nodes = (
(388,379,c),
(388,368,l),
(526,356,o),
(608,302,o),
(608,207,cs),
(608,46,o),
(458,-2,o),
(312,-2,cs),
(68,-2,l),
(68,14,l),
(105,38,o),
(104,54,o),
(104,84,cs),
(104,566,ls),
(104,621,o),
(122,643,o),
(7,676,c),
(7,697,l),
(13,703,l),
(321,703,ls),
(490,703,o),
(584,655,o),
(584,550,cs),
(584,449,o),
(480,398,o)
);
},
{
closed = 1;
nodes = (
(229,117,ls),
(229,68,o),
(228,40,o),
(270,40,cs),
(381,40,o),
(463,104,o),
(463,209,cs),
(463,245,o),
(445,277,o),
(417,304,cs),
(377,341,o),
(293,345,o),
(229,347,c)
);
},
{
closed = 1;
nodes = (
(229,385,l),
(373,385,o),
(448,443,o),
(448,542,cs),
(448,637,o),
(369,661,o),
(283,661,cs),
(269,661,o),
(254,659,o),
(242,656,cs),
(228,652,o),
(229,634,o),
(229,604,cs)
);
}
);
width = 644;
}
);
unicode = 66;
},
{
glyphname = C;
layers = (
{
anchors = (
{
name = bottom;
pos = (357,0);
},
{
name = top;
pos = (317,683);
}
);
layerId = "21503E60-83E9-42CA-80F5-20ED7CD97021";
shapes = (
{
closed = 1;
nodes = (
(567,528,l),
(553,529,l),
(519,619,o),
(456,658,o),
(374,658,cs),
(192,658,o),
(128,496,o),
(128,344,cs),
(128,252,o),
(176,154,o),
(209,121,cs),
(264,66,o),
(306,38,o),
(388,38,cs),
(456,38,o),
(519,67,o),
(575,105,c),
(592,76,l),
(520,27,o),
(440,-15,o),
(353,-15,cs),
(274,-15,o),
(192,2,o),
(135,59,cs),
(65,129,o),
(39,228,o),
(39,326,cs),
(39,422,o),
(60,520,o),
(130,590,cs),
(203,663,o),
(304,699,o),
(408,699,cs),
(496,699,o),
(572,671,o),
(624,586,c)
);
}
);
width = 633;
},
{
anchors = (
{
name = bottom;
pos = (436,0);
},
{
name = top;
pos = (361,692);
}
);
layerId = "2927A78B-FE88-4016-B2C6-41428F7EDB2B";
shapes = (
{
closed = 1;
nodes = (
(705,585,c),
(611,499,l),
(595,502,l),
(572,588,o),
(520,666,o),
(409,666,cs),
(238,666,o),
(187,484,o),
(187,360,cs),
(187,219,o),
(260,43,o),
(448,43,cs),
(529,43,o),
(606,72,o),
(676,106,c),
(697,81,l),
(613,22,o),
(513,-18,o),
(407,-18,cs),
(133,-18,o),
(40,154,o),
(40,331,cs),
(40,430,o),
(66,531,o),
(145,603,cs),
(222,673,o),
(327,711,o),
(436,711,cs),
(562,711,o),
(646,677,o)
);
}
);
width = 722;
}
);
unicode = 67;
},
{
glyphname = D;
layers = (
{
layerId = "21503E60-83E9-42CA-80F5-20ED7CD97021";
shapes = (
{
closed = 1;
nodes = (
(170,575,cs),
(170,170,ls),
(171,130,o),
(173,68,o),
(188,53,cs),
(201,40,o),
(240,40,o),
(267,40,cs),
(537,40,o),
(602,209,o),
(602,377,cs),
(602,438,o),
(585,535,o),
(529,591,cs),
(481,638,o),
(381,645,o),
(250,645,cs),
(207,645,o),
(190,644,o),
(184,641,cs),
(174,636,o),
(170,646,o)
);
},
{
closed = 1;
nodes = (
(64,2,l),
(64,12,l),
(84,27,o),
(85,41,o),
(86,79,cs),
(86,573,ls),
(86,589,o),
(85,605,o),
(84,620,cs),
(82,645,o),
(35,651,o),
(9,659,c),
(9,678,l),
(16,686,l),
(329,686,ls),
(639,686,o),
(696,562,o),
(696,385,cs),
(696,258,o),
(674,174,o),
(597,91,cs),
(530,18,o),
(399,2,o),
(295,2,cs)
);
}
);
width = 737;
},
{
layerId = "2927A78B-FE88-4016-B2C6-41428F7EDB2B";
shapes = (
{
closed = 1;
nodes = (
(73,-1,l),
(73,13,l),
(95,42,o),
(105,43,o),
(105,106,cs),
(105,535,ls),
(105,565,o),
(105,602,o),
(98,625,cs),
(89,660,o),
(45,662,o),
(8,668,c),
(8,692,l),
(14,698,l),
(429,698,ls),
(724,698,o),
(792,545,o),
(792,384,cs),
(792,284,o),
(766,184,o),
(687,112,cs),
(599,32,o),
(477,-1,o),
(355,-1,cs)
);
},
{
closed = 1;
nodes = (
(230,185,l),
(229,149,o),
(232,114,o),
(237,79,cs),
(242,45,o),
(285,42,o),
(321,42,cs),
(403,42,o),
(490,62,o),
(549,117,cs),
(620,182,o),
(638,288,o),
(638,378,cs),
(638,628,o),
(482,655,o),
(323,655,cs),
(298,655,o),
(267,655,o),
(245,651,cs),
(228,648,o),
(230,629,o),
(230,575,cs)
);
}
);
width = 832;
}
);
unicode = 68;
},
{
glyphname = Eth;
layers = (
{
layerId = "21503E60-83E9-42CA-80F5-20ED7CD97021";
shapes = (
{
closed = 1;
nodes = (
(314,340,l),
(19,340,l),
(26,380,l),
(320,380,l)
);
},
{
pos = (9,0);
ref = D;
}
);
width = 746;
},
{
layerId = "2927A78B-FE88-4016-B2C6-41428F7EDB2B";
shapes = (
{
closed = 1;
nodes = (
(352,336,l),
(16,336,l),
(35,386,l),
(368,386,l)
);
},
{
pos = (16,0);
ref = D;
}
);
width = 848;
}
);
metricRight = D;
unicode = 208;
},
{
glyphname = E;
layers = (
{
anchors = (
{
name = bottom;
pos = (259,0);
},
{
name = top;
pos = (270,683);
}
);
layerId = "21503E60-83E9-42CA-80F5-20ED7CD97021";
shapes = (
{
closed = 1;
nodes = (
(411,336,l),
(372,339,o),
(332,342,o),
(293,342,cs),
(235,342,o),
(164,345,o),
(164,327,cs),
(164,188,ls),
(164,150,o),
(165,101,o),
(179,76,cs),
(193,50,o),
(214,44,o),
(275,44,cs),
(322,44,o),
(345,44,o),
(509,58,c),
(514,53,l),
(501,0,l),
(113,0,l),
(93,11,o),
(87,39,o),
(87,66,cs),
(87,558,ls),
(87,572,o),
(87,602,o),
(78,622,cs),
(72,635,o),
(49,647,o),
(2,654,c),
(1,674,l),
(8,681,l),
(156,682,ls),
(226,682,o),
(327,687,o),
(398,688,cs),
(416,688,o),
(431,688,o),
(444,687,c),
(442,637,l),
(438,630,l),
(369,634,o),
(236,640,o),
(229,640,cs),
(189,640,l),
(169,636,o),
(165,599,o),
(165,564,cs),
(165,398,ls),
(165,381,o),
(194,384,o),
(231,384,cs),
(284,384,o),
(358,387,o),
(411,391,c),
(417,384,l)
);
}
);
width = 518;
},
{
anchors = (
{
name = bottom;
pos = (306,0);
},
{
name = top;
pos = (306,692);
}
);
layerId = "2927A78B-FE88-4016-B2C6-41428F7EDB2B";
shapes = (
{
closed = 1;
nodes = (
(317,61,o),
(475,70,o),
(591,76,c),
(601,68,l),
(575,-8,l),
(461,-1,o),
(347,0,o),
(233,0,cs),
(201,0,o),
(153,0,o),
(138,4,c),
(123,12,o),
(105,32,o),
(105,51,cs),
(105,480,ls),
(105,524,o),
(105,594,o),
(101,612,cs),
(89,657,o),
(43,661,o),
(7,666,c),
(7,689,l),
(14,696,l),
(175,696,o),
(379,696,o),
(492,709,c),
(505,704,l),
(505,642,l),
(493,631,l),
(416,636,o),
(266,645,o),
(265,645,cs),
(229,645,o),
(230,622,o),
(230,595,cs),
(230,415,ls),
(230,406,o),
(238,389,o),
(250,389,cs),
(312,389,o),
(467,405,o),
(470,406,c),
(471,406,o),
(479,401,o),
(483,398,c),
(483,340,l),
(414,343,o),
(334,343,o),
(258,343,cs),
(235,343,o),
(230,330,o),
(230,316,cs),
(230,251,o),
(230,174,o),
(239,123,c),
(244,82,o),
(265,61,o),
(306,61,cs)
);
}
);
width = 611;
}
);
unicode = 69;
},
{
glyphname = F;
layers = (
{
layerId = "21503E60-83E9-42CA-80F5-20ED7CD97021";
shapes = (
{
closed = 1;
nodes = (
(87,360,cs),
(89,521,ls),
(89,564,o),
(96,637,o),
(56,647,cs),
(1,660,l),
(1,681,l),
(8,688,l),
(150,688,o),
(356,688,o),
(429,690,c),
(429,637,l),
(421,629,l),
(349,634,o),
(277,649,o),
(205,649,cs),
(192,649,o),
(178,643,o),
(173,626,cs),
(169,612,o),
(166,602,o),
(166,391,cs),
(166,386,o),
(170,378,o),
(179,378,cs),
(252,378,o),
(342,387,o),
(414,390,c),
(413,341,l),
(408,336,l),
(338,340,o),
(250,341,o),
(179,341,cs),
(174,341,o),
(167,337,o),
(167,330,cs),
(167,229,o),
(168,114,o),
(172,13,c),
(80,-2,l),
(84,119,o),
(87,239,o)
);
}
);
width = 441;
},
{
layerId = "2927A78B-FE88-4016-B2C6-41428F7EDB2B";
shapes = (
{
closed = 1;
nodes = (
(232,23,c),
(104,-12,l),
(92,-4,l),
(99,165,o),
(105,333,o),
(105,501,cs),
(105,551,o),
(105,606,o),
(100,623,cs),
(89,661,o),
(43,666,o),
(6,670,c),
(6,690,l),
(14,698,l),
(175,698,o),
(413,698,o),
(488,706,c),
(488,638,l),
(481,630,l),
(376,636,o),
(271,644,o),
(255,644,cs),
(238,644,o),
(226,641,o),
(226,609,cs),
(226,415,ls),
(226,402,o),
(232,389,o),
(243,389,cs),
(317,389,o),
(394,401,o),
(468,406,c),
(481,394,l),
(481,340,l),
(422,343,o),
(327,343,o),
(251,343,cs),
(234,343,o),
(226,339,o),
(226,316,cs),
(226,315,o),
(231,121,o)
);
}
);
width = 509;
}
);
unicode = 70;
},
{
glyphname = G;
layers = (
{
layerId = "21503E60-83E9-42CA-80F5-20ED7CD97021";
shapes = (
{
closed = 1;
nodes = (
(325,296,l),
(601,307,l),
(603,216,o),
(606,34,o),
(606,33,c),
(518,10,o),
(410,-17,o),
(337,-17,cs),
(261,-17,o),
(186,9,o),
(132,63,cs),
(64,131,o),
(39,229,o),
(39,324,cs),
(39,422,o),
(61,523,o),
(131,593,cs),
(206,668,o),
(311,699,o),
(416,699,cs),
(503,699,o),
(572,667,o),
(625,586,c),
(567,529,l),
(555,530,l),
(511,618,o),
(452,650,o),
(371,650,cs),
(184,650,o),
(129,492,o),
(129,340,cs),
(129,194,o),
(211,35,o),
(407,35,cs),
(439,35,o),
(470,38,o),
(501,45,cs),
(527,50,o),
(521,104,o),
(521,134,cs),
(521,154,o),
(531,252,o),
(493,256,cs),
(449,260,o),
(385,263,o),
(331,265,c),
(325,270,l)
);
}
);
width = 661;
},
{
layerId = "2927A78B-FE88-4016-B2C6-41428F7EDB2B";
shapes = (
{
closed = 1;
nodes = (
(347,303,l),
(687,316,l),
(684,277,o),
(682,238,o),
(682,198,cs),
(682,144,o),
(685,90,o),
(689,36,c),
(590,10,o),
(489,-14,o),
(386,-14,cs),
(296,-14,o),
(205,9,o),
(141,68,cs),
(64,138,o),
(39,237,o),
(39,334,cs),
(39,436,o),
(71,539,o),
(151,612,cs),
(228,682,o),
(338,709,o),
(445,709,cs),
(552,709,o),
(656,683,o),
(708,585,c),
(611,495,l),
(593,503,l),
(568,582,o),
(516,661,o),
(414,661,cs),
(237,661,o),
(185,486,o),
(185,353,cs),
(185,204,o),
(256,39,o),
(462,39,cs),
(485,39,o),
(509,39,o),
(532,42,cs),
(566,45,o),
(556,96,o),
(556,146,cs),
(556,221,l),
(550,266,o),
(510,255,o),
(347,266,c)
);
}
);
width = 744;
}
);
unicode = 71;
},
{
glyphname = H;
layers = (
{
layerId = "21503E60-83E9-42CA-80F5-20ED7CD97021";
shapes = (
{
closed = 1;
nodes = (
(700,14,l),
(694,0,l),
(545,0,l),
(534,21,l),
(536,118,o),
(539,237,o),
(539,334,cs),
(539,339,o),
(536,346,o),
(527,346,cs),
(184,346,ls),
(177,346,o),
(171,341,o),
(171,334,cs),
(171,289,o),
(170,232,o),
(170,178,cs),
(170,120,o),
(170,76,o),
(176,26,c),
(84,-2,l),
(78,3,l),
(88,116,o),
(88,245,o),
(88,367,cs),
(88,450,o),
(88,533,o),
(82,616,cs),
(80,643,o),
(66,639,o),
(9,659,c),
(8,678,l),
(15,685,l),
(177,685,l),
(182,680,l),
(170,612,o),
(169,489,o),
(169,397,cs),
(169,392,o),
(171,385,o),
(181,385,cs),
(527,385,ls),
(538,385,o),
(539,391,o),
(539,397,cs),
(539,483,o),
(536,587,o),
(536,673,c),
(624,690,l),
(629,684,l),
(620,563,o),
(618,443,o),
(618,322,cs),
(618,241,o),
(619,160,o),
(622,79,cs),
(622,43,o),
(692,32,o),
(699,32,c)
);
}
);
width = 706;
},
{
layerId = "2927A78B-FE88-4016-B2C6-41428F7EDB2B";
shapes = (
{
closed = 1;
nodes = (
(579,681,l),
(709,711,l),
(719,701,l),
(707,586,o),
(703,471,o),
(703,356,cs),
(703,93,o),
(677,38,o),
(790,32,c),
(790,8,l),
(784,-7,l),
(588,-7,l),
(565,14,l),
(575,113,o),
(579,212,o),
(579,312,cs),
(579,337,o),
(561,339,o),
(543,339,cs),
(255,339,ls),
(240,339,o),
(226,334,o),
(226,311,cs),
(226,217,o),
(228,123,o),
(232,30,c),
(107,-6,l),
(105,-3,o),
(100,2,o),
(100,3,cs),
(105,122,o),
(105,240,o),
(105,359,cs),
(105,612,ls),
(105,645,o),
(39,658,o),
(6,665,c),
(6,688,l),
(14,698,l),
(228,698,l),
(236,690,l),
(231,595,o),
(225,496,o),
(225,413,cs),
(225,394,o),
(240,388,o),
(256,388,cs),
(545,388,ls),
(579,388,o),
(579,399,o),
(579,413,cs)
);
}
);
width = 797;
}
);
unicode = 72;
},
{
glyphname = I;
layers = (
{
anchors = (
{
name = bottom;
pos = (141,0);
},
{
name = top;
pos = (137,683);
}
);
layerId = "21503E60-83E9-42CA-80F5-20ED7CD97021";
shapes = (
{
closed = 1;
nodes = (
(273,-1,l),
(8,-1,l),
(8,25,l),
(106,44,o),
(93,51,o),
(97,134,cs),
(97,497,ls),
(97,536,o),
(97,574,o),
(94,612,cs),
(92,642,o),
(85,637,o),
(5,655,c),
(5,677,l),
(12,683,l),
(262,683,l),
(268,677,l),
(268,656,l),
(201,641,ls),
(188,638,o),
(180,627,o),
(179,615,c),
(170,556,o),
(176,437,o),
(176,359,cs),
(176,292,o),
(177,230,o),
(178,169,cs),
(179,126,o),
(168,51,o),
(210,40,cs),
(231,34,o),
(274,23,o),
(275,23,c)
);
}
);
width = 280;
},
{
anchors = (
{
name = bottom;
pos = (183,0);
},
{
name = ogonek;
pos = (328,10);
},
{
name = top;
pos = (183,692);
}
);
layerId = "2927A78B-FE88-4016-B2C6-41428F7EDB2B";
shapes = (
{
closed = 1;
nodes = (
(251,646,o),
(243,632,o),
(243,618,c),
(242,367,l),
(242,280,o),
(242,158,o),
(245,106,cs),
(247,80,o),
(258,50,o),
(288,44,cs),
(352,30,l),
(352,1,l),
(13,1,l),
(13,29,l),
(87,45,ls),
(103,48,o),
(115,65,o),
(115,81,cs),
(117,124,o),
(117,275,o),
(117,372,cs),
(117,455,o),
(117,541,o),
(111,622,cs),
(110,635,o),
(98,648,o),
(83,651,cs),
(14,666,l),
(14,692,l),
(18,696,l),
(341,696,l),
(345,692,l),
(345,665,l),
(267,649,ls)
);
}
);
width = 365;
}
);
unicode = 73;
},
{
glyphname = J;
layers = (
{
layerId = "21503E60-83E9-42CA-80F5-20ED7CD97021";
shapes = (
{
closed = 1;
nodes = (
(175,608,cs),
(175,91,ls),
(175,-64,o),
(113,-165,o),
(-21,-234,c),
(-35,-216,l),
(43,-167,o),
(90,-106,o),
(90,96,cs),
(90,608,ls),
(90,619,o),
(86,642,o),
(74,645,cs),
(2,663,l),
(2,684,l),
(9,690,l),
(259,690,l),
(266,684,l),
(264,660,l),
(196,646,ls),
(184,643,o),
(175,626,o)
);
}
);
width = 265;
},
{
layerId = "2927A78B-FE88-4016-B2C6-41428F7EDB2B";
shapes = (
{
closed = 1;
nodes = (
(241,513,cs),
(241,167,ls),
(241,9,o),
(221,-37,o),
(153,-92,cs),
(105,-131,o),
(50,-164,o),
(-2,-192,c),
(-19,-164,l),
(109,-83,o),
(116,-16,o),
(116,128,cs),
(116,559,ls),
(116,583,o),
(116,609,o),
(113,631,cs),
(108,667,o),
(47,670,o),
(9,670,c),
(9,697,l),
(18,705,l),
(340,705,l),
(348,697,l),
(348,672,l),
(326,667,o),
(281,658,o),
(280,658,c),
(234,645,o),
(241,581,o)
);
}
);
width = 354;
}
);
unicode = 74;
},
{
glyphname = K;
layers = (
{
layerId = "21503E60-83E9-42CA-80F5-20ED7CD97021";
shapes = (
{
closed = 1;
nodes = (
(178,319,c),
(169,318,l),
(169,220,o),
(169,122,o),
(175,25,c),
(94,-4,l),
(86,1,l),
(86,148,l),
(86,595,ls),
(86,605,o),
(85,616,o),
(81,626,c),
(72,643,o),
(12,659,o),
(6,659,c),
(8,676,l),
(16,683,l),
(174,683,l),
(181,676,l),
(170,643,o),
(166,560,o),
(166,358,c),
(174,357,l),
(461,683,l),
(551,683,l),
(550,674,l),
(259,380,ls),
(256,377,o),
(251,372,o),
(251,369,cs),
(251,366,o),
(252,364,o),
(256,360,cs),
(363,253,o),
(528,89,o),
(589,35,c),
(588,24,l),
(503,-7,l),
(398,105,o),
(286,210,o)
);
}
);
width = 593;
},
{
layerId = "2927A78B-FE88-4016-B2C6-41428F7EDB2B";
shapes = (
{
closed = 1;
nodes = (
(241,387,l),
(537,702,l),
(643,702,l),
(643,687,l),
(342,407,l),
(339,405,o),
(337,399,o),
(337,397,cs),
(337,393,o),
(339,388,o),
(340,388,c),
(689,70,l),
(689,54,l),
(551,-5,l),
(452,108,o),
(349,219,o),
(239,324,c),
(229,324,l),
(229,226,o),
(230,128,o),
(240,30,c),
(110,-12,l),
(100,-2,l),
(104,111,o),
(105,225,o),
(105,338,cs),
(105,430,o),
(105,584,o),
(103,614,cs),
(100,648,o),
(51,655,o),
(7,665,c),
(7,691,l),
(11,701,l),
(237,701,l),
(244,694,l),
(234,591,o),
(229,490,o),
(229,387,c)
);
}
);
width = 700;
}
);
unicode = 75;
},
{
glyphname = L;
layers = (
{
layerId = "21503E60-83E9-42CA-80F5-20ED7CD97021";
shapes = (
{
closed = 1;
nodes = (
(492,48,l),
(478,-5,l),
(404,2,o),
(203,2,o),
(65,2,c),
(65,16,l),
(81,38,o),
(87,91,o),
(87,143,cs),
(87,621,ls),
(87,635,o),
(81,651,o),
(66,654,cs),
(46,658,o),
(9,666,o),
(8,666,c),
(9,683,l),
(16,690,l),
(253,690,l),
(259,684,l),
(259,663,l),
(258,663,o),
(215,654,o),
(194,649,c),
(182,647,o),
(177,635,o),
(176,624,cs),
(172,551,o),
(170,473,o),
(170,393,cs),
(170,280,o),
(173,164,o),
(177,56,c),
(178,50,o),
(185,43,o),
(190,43,cs),
(294,43,o),
(476,57,o),
(482,58,c)
);
}
);
width = 494;
},
{
layerId = "2927A78B-FE88-4016-B2C6-41428F7EDB2B";
shapes = (
{
closed = 1;
nodes = (
(540,75,c),
(553,66,l),
(532,-5,l),
(442,0,o),
(221,0,o),
(65,0,c),
(65,17,l),
(74,27,o),
(89,40,o),
(92,50,cs),
(95,62,o),
(95,96,o),
(95,119,cs),
(95,565,ls),
(95,588,o),
(94,606,o),
(90,629,c),
(82,663,o),
(39,669,o),
(7,671,c),
(7,694,l),
(15,702,l),
(310,702,l),
(318,694,l),
(318,667,l),
(222,657,o),
(220,640,o),
(220,544,cs),
(220,253,ls),
(220,170,o),
(211,53,o),
(247,53,cs),
(350,53,o),
(505,71,o)
);
}
);
width = 563;
}
);
unicode = 76;
},
{
glyphname = M;
layers = (
{
layerId = "21503E60-83E9-42CA-80F5-20ED7CD97021";
shapes = (
{
closed = 1;
nodes = (
(751,690,l),
(854,690,l),
(854,678,l),
(827,664,o),
(829,627,o),
(829,583,cs),
(829,419,o),
(830,266,o),
(847,102,cs),
(850,73,o),
(872,46,o),
(905,46,cs),
(918,46,o),
(943,50,o),
(961,52,c),
(961,28,l),
(917,12,o),
(865,-6,o),
(825,-6,cs),
(795,-6,o),
(762,3,o),
(762,29,cs),
(762,211,ls),
(762,236,o),
(754,482,o),
(752,548,cs),
(752,556,o),
(749,563,o),
(744,563,cs),
(741,563,o),
(736,560,o),
(733,555,c),
(447,1,l),
(417,1,l),
(342,181,o),
(248,410,o),
(185,538,c),
(182,543,o),
(178,548,o),
(174,548,cs),
(153,548,o),
(119,113,o),
(112,23,c),
(37,-3,l),
(30,0,l),
(68,196,o),
(103,393,o),
(130,591,c),
(131,595,o),
(131,599,o),
(131,603,cs),
(131,621,o),
(121,637,o),
(103,642,cs),
(35,661,l),
(37,683,l),
(44,690,l),
(220,690,l),
(275,529,o),
(369,329,o),
(452,152,cs),
(454,148,o),
(459,138,o),
(463,138,cs),
(467,138,o),
(473,143,o),
(475,147,cs)
);
}
);
width = 962;
},
{
layerId = "2927A78B-FE88-4016-B2C6-41428F7EDB2B";
shapes = (
{
closed = 1;
nodes = (
(185,533,c),
(126,26,l),
(42,-2,l),
(28,3,l),
(103,360,ls),
(120,442,o),
(141,543,o),
(141,606,cs),
(141,639,o),
(115,665,o),
(41,669,c),
(41,693,l),
(49,701,l),
(274,701,l),
(339,520,o),
(409,341,o),
(497,167,cs),
(498,165,o),
(501,163,o),
(503,163,cs),
(505,163,o),
(508,165,o),
(510,167,c),
(570,265,o),
(672,445,o),
(672,446,c),
(716,528,o),
(758,610,o),
(785,698,c),
(947,700,l),
(953,688,l),
(934,668,ls),
(924,658,o),
(924,642,o),
(924,595,cs),
(924,449,ls),
(924,360,o),
(929,272,o),
(937,184,cs),
(944,112,o),
(947,54,o),
(1004,54,cs),
(1022,54,o),
(1047,56,o),
(1062,58,c),
(1066,31,l),
(1050,31,o),
(910,-16,o),
(869,-16,cs),
(830,-16,o),
(811,11,o),
(811,38,cs),
(811,124,o),
(811,544,o),
(788,544,cs),
(786,544,o),
(783,539,o),
(779,533,cs),
(671,355,o),
(581,183,o),
(485,-1,c),
(411,-1,l),
(345,181,o),
(282,354,o),
(202,532,cs),
(200,536,o),
(196,539,o),
(193,539,cs),
(189,539,o),
(185,536,o)
);
}
);
width = 1074;
}
);
unicode = 77;
},
{
glyphname = N;
layers = (
{
anchors = (
{
name = bottom;
pos = (366,0);
},
{
name = top;
pos = (395,683);
}
);
layerId = "21503E60-83E9-42CA-80F5-20ED7CD97021";
shapes = (
{
closed = 1;
nodes = (
(657,694,l),
(663,686,l),
(650,459,o),
(648,227,o),
(648,0,c),
(612,0,l),
(589,26,o),
(575,42,o),
(545,80,cs),
(386,278,ls),
(284,404,o),
(201,499,o),
(152,555,c),
(149,559,o),
(145,564,o),
(141,564,cs),
(134,564,o),
(134,552,o),
(134,547,cs),
(134,418,o),
(147,199,o),
(158,25,c),
(88,-5,l),
(79,4,l),
(87,162,o),
(92,321,o),
(92,479,cs),
(92,522,o),
(91,565,o),
(91,608,cs),
(91,629,o),
(101,633,o),
(6,656,c),
(2,683,l),
(10,690,l),
(172,690,l),
(305,514,o),
(467,299,o),
(584,173,cs),
(587,170,o),
(591,165,o),
(595,165,cs),
(600,165,o),
(601,171,o),
(601,173,cs),
(601,275,o),
(598,374,o),
(577,678,c)
);
}
);
width = 732;
},
{
anchors = (
{
name = top;
pos = (444,692);
}
);
layerId = "2927A78B-FE88-4016-B2C6-41428F7EDB2B";
shapes = (
{
closed = 1;
nodes = (
(6,691,l),
(14,699,l),
(213,699,l),
(348,531,o),
(495,370,o),
(645,211,c),
(645,686,l),
(726,713,l),
(746,699,l),
(730,520,o),
(718,342,o),
(718,163,cs),
(718,110,o),
(719,57,o),
(723,5,c),
(648,5,l),
(185,519.661,l),
(185,34,l),
(103,-3,l),
(90,5,l),
(100,191,o),
(109,377,o),
(109,562,cs),
(109,585,o),
(108,599,o),
(104,614,c),
(93,646,o),
(36,661,o),
(6,669,c)
);
}
);
width = 808;
}
);
unicode = 78;
},
{
glyphname = O;
layers = (
{
anchors = (
{
name = bottom;
pos = (369,0);
},
{
name = top;
pos = (381,693);
}
);
layerId = "21503E60-83E9-42CA-80F5-20ED7CD97021";
shapes = (
{
closed = 1;
nodes = (
(115,-18,o),
(41,153,o),
(41,318,cs),
(41,447,o),
(68,532,o),
(142,612,cs),
(205,680,o),
(310,700,o),
(403,700,cs),
(478,700,o),
(557,678,o),
(611,624,cs),
(673,561,o),
(695,457,o),
(695,364,cs),
(695,298,o),
(694,233,o),
(654,152,cs),
(606,54,o),
(477,-18,o),
(320,-18,cs)
);
},
{
closed = 1;
nodes = (
(198,660,o),
(134,500,o),
(134,348,cs),
(134,254,o),
(151,168,o),
(213,100,cs),
(273,33,o),
(334,23,o),
(373,23,cs),
(539,23,o),
(601,186,o),
(601,336,cs),
(601,478,o),
(540,660,o),
(371,660,cs)
);
}
);
width = 737;
},
{
anchors = (
{
name = bottom;
pos = (415,0);
},
{
name = top;
pos = (435,710);
}
);
layerId = "2927A78B-FE88-4016-B2C6-41428F7EDB2B";
shapes = (
{
closed = 1;
nodes = (
(66,127,o),
(40,233,o),
(40,330,cs),
(40,438,o),
(76,553,o),
(161,630,cs),
(238,700,o),
(338,720,o),
(457,720,cs),
(542,720,o),
(629,699,o),
(690,644,cs),
(763,577,o),
(790,483,o),
(790,391,cs),
(790,99,o),
(585,-15,o),
(357,-15,cs),
(277,-15,o),
(197,7,o),
(140,59,cs)
);
},
{
closed = 1;
nodes = (
(253,680,o),
(178,506,o),
(178,366,cs),
(178,229,o),
(239,31,o),
(422,31,cs),
(598,31,o),
(647,187,o),
(647,325,cs),
(647,464,o),
(601,680,o),
(415,680,cs)
);
}
);
width = 830;
}
);
unicode = 79;
},
{
glyphname = Oslash;
layers = (
{
layerId = "21503E60-83E9-42CA-80F5-20ED7CD97021";
shapes = (
{
closed = 1;
nodes = (
(577,784,l),
(582,773,l),
(193,-123,l),
(161,-115,l),
(158,-101,l),
(544,787,l),
(555,789,l)
);
},
{
ref = O;
}
);
width = 737;
},
{
layerId = "2927A78B-FE88-4016-B2C6-41428F7EDB2B";
shapes = (
{
closed = 1;
nodes = (
(632,791,l),
(637,780,l),
(248,-116,l),
(202,-104,l),
(199,-90,l),
(585,798,l),
(596,800,l)
);
},
{
ref = O;
}
);
width = 830;
}
);
metricLeft = O;
metricRight = O;
unicode = 216;
},
{
glyphname = OE;
layers = (
{
layerId = "21503E60-83E9-42CA-80F5-20ED7CD97021";
shapes = (
{
closed = 1;
nodes = (
(890,336,l),
(851,339,o),
(811,342,o),
(772,342,cs),
(714,342,o),
(643,345,o),
(643,327,cs),
(643,188,ls),
(643,150,o),
(644,101,o),
(658,76,cs),
(672,50,o),
(693,44,o),
(754,44,cs),
(801,44,o),
(824,44,o),
(988,58,c),
(993,53,l),
(980,0,l),
(439,0,l),
(436,6,o),
(506,38,o),
(520,44,cs),
(533,50,o),
(566,58,o),
(566,66,cs),
(566,558,ls),
(566,572,o),
(566,602,o),
(557,622,cs),
(551,635,o),
(528,647,o),
(481,654,c),
(480,674,l),
(487,681,l),
(635,682,ls),
(705,682,o),
(806,687,o),
(877,688,cs),
(895,688,o),
(910,688,o),
(923,687,c),
(921,637,l),
(917,630,l),
(848,634,o),
(715,640,o),
(708,640,cs),
(668,640,l),
(648,636,o),
(644,599,o),
(644,564,cs),
(644,398,ls),
(644,381,o),
(673,384,o),
(710,384,cs),
(763,384,o),
(837,387,o),
(890,391,c),
(896,384,l)
);
},
{
closed = 1;
nodes = (
(610,90,l),
(547,25,o),
(442,-18,o),
(320,-18,cs),
(115,-18,o),
(41,153,o),
(41,318,cs),
(41,447,o),
(68,532,o),
(142,612,cs),
(205,680,o),
(310,700,o),
(403,700,cs),
(478,700,o),
(557,678,o),
(611,624,c)
);
},
{
closed = 1;
nodes = (
(134,348,cs),
(134,254,o),
(151,168,o),
(213,100,cs),
(273,33,o),
(334,23,o),
(373,23,cs),
(539,23,o),
(601,186,o),
(601,336,cs),
(601,478,o),
(540,660,o),
(371,660,cs),
(198,660,o),
(134,500,o)
);
}
);
width = 997;
},
{
layerId = "2927A78B-FE88-4016-B2C6-41428F7EDB2B";
shapes = (
{
closed = 1;
nodes = (
(1071,76,c),
(1081,68,l),
(1055,-8,l),
(941,-1,o),
(827,0,o),
(713,0,cs),
(681,0,o),
(440,0,o),
(425,4,c),
(410,12,o),
(585,47,o),
(585,66,cs),
(585,480,ls),
(585,524,o),
(585,594,o),
(581,612,cs),
(569,657,o),
(523,661,o),
(487,666,c),
(487,689,l),
(494,696,l),
(655,696,o),
(859,696,o),
(972,709,c),
(985,704,l),
(985,642,l),
(973,631,l),
(896,636,o),
(746,645,o),
(745,645,cs),
(709,645,o),
(710,622,o),
(710,595,cs),
(710,415,ls),
(710,406,o),
(718,389,o),
(730,389,cs),
(792,389,o),
(947,405,o),
(950,406,c),
(951,406,o),
(959,401,o),
(963,398,c),
(963,340,l),
(894,343,o),
(814,343,o),
(738,343,cs),
(715,343,o),
(710,330,o),
(710,316,cs),
(710,251,o),
(710,174,o),
(719,123,c),
(724,82,o),
(745,61,o),
(786,61,cs),
(801,61,o),
(1071,76,o)
);
},
{
closed = 1;
nodes = (
(696,114,l),
(615,24,o),
(490,-15,o),
(357,-15,cs),
(277,-15,o),
(197,7,o),
(140,59,cs),
(66,127,o),
(40,233,o),
(40,330,cs),
(40,438,o),
(76,553,o),
(161,630,cs),
(238,700,o),
(338,720,o),
(457,720,cs),
(542,720,o),
(629,699,o),
(690,644,c)
);
},
{
closed = 1;
nodes = (
(178,366,cs),
(178,229,o),
(239,31,o),
(422,31,cs),
(598,31,o),
(647,187,o),
(647,325,cs),
(647,464,o),
(601,680,o),
(415,680,cs),
(253,680,o),
(178,506,o)
);
}
);
width = 1091;
}
);
metricLeft = O;
metricRight = E;
unicode = 338;
},
{
glyphname = P;
layers = (
{
layerId = "21503E60-83E9-42CA-80F5-20ED7CD97021";
shapes = (
{
closed = 1;
nodes = (
(236,640,cs),
(180,640,ls),
(173,640,o),
(171,634,o),
(171,629,c),
(167,541,o),
(165,428,o),
(165,341,cs),
(165,332,o),
(172,329,o),
(176,329,cs),
(315,329,o),
(409,395,o),
(409,506,cs),
(409,610,o),
(328,640,o)
);
},
{
closed = 1;
nodes = (
(172,22,c),
(89,-6,l),
(82,1,l),
(84,141,o),
(89,282,o),
(89,423,cs),
(89,482,o),
(87,541,o),
(84,600,cs),
(81,640,o),
(48,649,o),
(10,654,c),
(10,672,l),
(17,679,l),
(274,679,ls),
(438,679,o),
(505,620,o),
(505,514,cs),
(505,455,o),
(483,400,o),
(441,358,cs),
(397,313,o),
(324,298,o),
(259,293,cs),
(230,291,o),
(165,293,o),
(165,274,cs),
(165,249,o),
(171,123,o)
);
}
);
width = 527;
},
{
layerId = "2927A78B-FE88-4016-B2C6-41428F7EDB2B";
shapes = (
{
closed = 1;
nodes = (
(227,30,c),
(100,-6,l),
(88,4,l),
(95,156,o),
(96,307,o),
(96,459,cs),
(96,514,o),
(96,592,o),
(92,623,c),
(84,659,o),
(39,665,o),
(6,669,c),
(6,691,l),
(14,699,l),
(359,699,ls),
(519,699,o),
(574,633,o),
(574,540,cs),
(574,479,o),
(556,419,o),
(508,375,cs),
(460,330,o),
(379,313,o),
(307,307,cs),
(279,305,o),
(222,315,o),
(222,282,cs),
(222,281,o),
(225,114,o)
);
},
{
closed = 1;
nodes = (
(222,361,cs),
(222,349,o),
(235,341,o),
(249,341,cs),
(365,341,o),
(432,424,o),
(432,522,cs),
(432,599,o),
(383,664,o),
(292,664,cs),
(267,664,o),
(220,671,o),
(220,641,cs),
(220,640,o),
(221,454,o)
);
}
);
width = 600;
}
);
unicode = 80;
},
{
glyphname = Thorn;
layers = (
{
layerId = "21503E60-83E9-42CA-80F5-20ED7CD97021";
shapes = (
{
closed = 1;
nodes = (
(236,535,cs),
(178,535,ls),
(171,535,o),
(169,529,o),
(169,524,c),
(165,436,o),
(163,323,o),
(163,236,cs),
(163,227,o),
(170,224,o),
(174,224,cs),
(313,224,o),
(409,290,o),
(409,401,cs),
(409,505,o),
(328,535,o)
);
},
{
closed = 1;
nodes = (
(175,673,l),
(171,654,o),
(170,601,o),
(169,574,c),
(274,574,ls),
(438,574,o),
(505,515,o),
(505,409,cs),
(505,350,o),
(483,295,o),
(441,253,cs),
(397,208,o),
(324,193,o),
(259,188,cs),
(230,186,o),
(165,188,o),
(165,169,cs),
(165,145,o),
(171,123,o),
(172,22,c),
(89,-6,l),
(82,1,l),
(84,141,o),
(89,282,o),
(89,423,cs),
(89,482,o),
(87,541,o),
(84,600,cs),
(81,640,o),
(48,649,o),
(10,654,c),
(10,672,l),
(17,679,l),
(168,679,l)
);
}
);
width = 527;
},
{
layerId = "2927A78B-FE88-4016-B2C6-41428F7EDB2B";
shapes = (
{
closed = 1;
nodes = (
(223,688,l),
(221,574,l),
(359,574,ls),
(519,574,o),
(574,508,o),
(574,415,cs),
(574,354,o),
(556,294,o),
(508,250,cs),
(460,205,o),
(379,188,o),
(307,182,cs),
(279,180,o),
(222,190,o),
(222,157,cs),
(222,156,o),
(225,114,o),
(227,30,c),
(100,-6,l),
(88,4,l),
(95,156,o),
(96,307,o),
(96,459,cs),
(96,514,o),
(96,592,o),
(92,623,c),
(84,659,o),
(39,665,o),
(6,669,c),
(6,691,l),
(14,699,l),
(81,699,o),
(147,699,o),
(214,699,c)
);
},
{
closed = 1;
nodes = (
(222,236,cs),
(222,224,o),
(235,216,o),
(249,216,cs),
(365,216,o),
(432,299,o),
(432,397,cs),
(432,474,o),
(383,539,o),
(292,539,cs),
(267,539,o),
(220,546,o),
(220,516,cs),
(220,515,o),
(221,329,o)
);
}
);
width = 600;
}
);
unicode = 222;
},
{
glyphname = Q;
layers = (
{
layerId = "21503E60-83E9-42CA-80F5-20ED7CD97021";
shapes = (
{
closed = 1;
nodes = (
(722,-174,c),
(729,-194,l),
(690,-210,o),
(625,-235,o),
(574,-235,cs),
(458,-235,o),
(383,-117,o),
(321,-16,c),
(252,-16,o),
(175,2,o),
(126,57,cs),
(70,120,o),
(41,210,o),
(41,300,cs),
(41,438,o),
(68,533,o),
(142,609,cs),
(210,679,o),
(305,698,o),
(400,698,cs),
(477,698,o),
(555,680,o),
(613,622,cs),
(676,559,o),
(696,449,o),
(696,366,cs),
(696,269,o),
(690,251,o),
(677,210,cs),
(662,166,o),
(651,133,o),
(609,87,cs),
(564,38,o),
(494,8,o),
(431,-7,c),
(427,-17,l),
(443,-47,o),
(469,-96,o),
(489,-122,cs),
(504,-143,o),
(546,-189,o),
(635,-189,cs),
(651,-189,o),
(699,-180,o)
);
},
{
closed = 1;
nodes = (
(365,22,cs),
(551,22,o),
(601,198,o),
(601,338,cs),
(601,495,o),
(527,660,o),
(376,660,cs),
(184,660,o),
(134,481,o),
(134,334,cs),
(134,245,o),
(157,156,o),
(219,92,cs),
(257,52,o),
(312,22,o)
);
}
);
width = 740;
},
{
layerId = "2927A78B-FE88-4016-B2C6-41428F7EDB2B";
shapes = (
{
closed = 1;
nodes = (
(774,-141,c),
(783,-170,l),
(724,-188,o),
(661,-197,o),
(598,-197,cs),
(483,-197,o),
(400,-102,o),
(333,-20,c),
(121,-11,o),
(40,159,o),
(40,318,cs),
(40,427,o),
(69,538,o),
(155,616,cs),
(232,686,o),
(344,714,o),
(453,714,cs),
(539,714,o),
(627,691,o),
(689,635,cs),
(764,567,o),
(789,470,o),
(789,375,cs),
(789,147,o),
(670,39,o),
(505,-3,c),
(499,-17,l),
(536,-75,o),
(592,-153,o),
(668,-153,cs),
(706,-153,o),
(741,-147,o)
);
},
{
closed = 1;
nodes = (
(418,26,cs),
(611,26,o),
(650,195,o),
(650,348,cs),
(650,511,o),
(581,668,o),
(416,668,cs),
(239,668,o),
(182,488,o),
(182,352,cs),
(182,221,o),
(240,26,o)
);
}
);
width = 829;
}
);
unicode = 81;
},
{
glyphname = R;
layers = (
{
layerId = "21503E60-83E9-42CA-80F5-20ED7CD97021";
shapes = (
{
closed = 1;
nodes = (
(167,370,cs),
(167,364,o),
(169,355,o),
(176,355,cs),
(286,355,o),
(392,404,o),
(392,523,cs),
(392,619,o),
(303,640,o),
(225,640,cs),
(185,640,ls),
(177,640,o),
(174,633,o),
(173,614,cs),
(171,550,o),
(167,375,o)
);
},
{
closed = 1;
nodes = (
(275,331,c),
(273,323,l),
(536,27,l),
(536,18,l),
(437,-8,l),
(344,111,o),
(217,274,o),
(188,303,cs),
(183,308,o),
(174,312,o),
(168,312,c),
(168,216,o),
(168,119,o),
(173,23,c),
(90,-6,l),
(79,3,l),
(87,148,o),
(88,294,o),
(88,439,cs),
(88,454,o),
(85,554,o),
(85,611,cs),
(85,643,o),
(17,656,o),
(8,656,c),
(9,673,l),
(15,679,l),
(287,679,ls),
(409,679,o),
(490,632,o),
(490,539,cs),
(490,400,o),
(394,344,o)
);
}
);
width = 548;
},
{
layerId = "2927A78B-FE88-4016-B2C6-41428F7EDB2B";
shapes = (
{
closed = 1;
nodes = (
(223,325,c),
(234,41,l),
(97,-8,l),
(88,1,l),
(97,156,o),
(101,311,o),
(101,466,cs),
(101,519,o),
(101,602,o),
(98,624,cs),
(93,664,o),
(40,668,o),
(7,670,c),
(7,696,l),
(12,701,l),
(333,701,ls),
(486,701,o),
(571,655,o),
(571,552,cs),
(571,504,o),
(558,451,o),
(520,417,cs),
(479,380,o),
(427,365,o),
(373,351,c),
(369,340,l),
(455,239,o),
(567,106,o),
(620,57,c),
(623,41,l),
(506,-10,l),
(485,-8,l),
(236,323,l),
(235,324,o),
(231,325,o)
);
},
{
closed = 1;
nodes = (
(223,366,c),
(269,366,o),
(351,381,o),
(381,412,cs),
(414,446,o),
(429,490,o),
(429,536,cs),
(429,623,o),
(364,662,o),
(279,662,cs),
(260,662,o),
(230,665,o),
(227,639,c),
(226,635,o),
(223,458,o)
);
}
);
width = 639;
}
);
unicode = 82;
},
{
glyphname = S;
layers = (
{
layerId = "21503E60-83E9-42CA-80F5-20ED7CD97021";
shapes = (
{
closed = 1;
nodes = (
(451,606,c),
(388,550,l),
(375,553,l),
(358,619,o),
(321,665,o),
(253,665,cs),
(189,665,o),
(142,612,o),
(142,547,cs),
(142,469,o),
(217,423,o),
(295,389,cs),
(400,343,o),
(454,289,o),
(454,209,cs),
(454,77,o),
(308,-15,o),
(181,-15,cs),
(112,-15,o),
(44,14,o),
(16,87,c),
(73,153,l),
(90,152,l),
(111,82,o),
(152,31,o),
(223,31,cs),
(301,31,o),
(366,94,o),
(366,178,cs),
(366,234,o),
(305,288,o),
(245,314,cs),
(124,366,o),
(62,414,o),
(62,512,cs),
(62,637,o),
(165,702,o),
(274,702,cs),
(347,702,o),
(407,689,o)
);
}
);
width = 484;
},
{
layerId = "2927A78B-FE88-4016-B2C6-41428F7EDB2B";
shapes = (
{
closed = 1;
nodes = (
(431,548,l),
(414,553,l),
(405,619,o),
(362,685,o),
(280,685,cs),
(216,685,o),
(176,639,o),
(176,584,cs),
(176,498,o),
(259,453,o),
(333,416,cs),
(450,356,o),
(524,308,o),
(524,213,cs),
(524,76,o),
(358,-14,o),
(218,-14,cs),
(137,-14,o),
(62,21,o),
(16,87,c),
(113,196,l),
(132,189,l),
(132,114,o),
(186,35,o),
(275,35,cs),
(347,35,o),
(403,95,o),
(403,158,cs),
(403,196,o),
(378,227,o),
(349,254,cs),
(277,320,o),
(65,373,o),
(65,520,cs),
(65,665,o),
(194,723,o),
(325,723,cs),
(427,723,o),
(495,697,o),
(526,622,c)
);
}
);
width = 558;
}
);
unicode = 83;
},
{
glyphname = T;
layers = (
{
layerId = "21503E60-83E9-42CA-80F5-20ED7CD97021";
shapes = (
{
closed = 1;
nodes = (
(549,689,l),
(549,641,l),
(541,634,l),
(373,642,o),
(352,644,o),
(331,644,cs),
(317,644,o),
(318,559,o),
(318,438,cs),
(318,317,o),
(324,138,o),
(331,17,c),
(231,-10,l),
(222,-1,l),
(230,126,o),
(235,253,o),
(235,380,cs),
(235,462,o),
(234,606,o),
(233,636,cs),
(233,640,o),
(229,642,o),
(224,642,cs),
(200,642,o),
(121,639,o),
(10,635,c),
(2,642,l),
(2,690,l),
(9,697,l),
(104,694,o),
(104,686,o),
(281,686,cs),
(356,686,o),
(455,692,o),
(543,696,c)
);
}
);
width = 551;
},
{
layerId = "2927A78B-FE88-4016-B2C6-41428F7EDB2B";
shapes = (
{
closed = 1;
nodes = (
(245,496,cs),
(245,629,ls),
(245,643,o),
(234,648,o),
(220,647,cs),
(19,637,l),
(10,646,l),
(10,704,l),
(18,712,l),
(114,710,o),
(210,703,o),
(306,703,cs),
(406,703,o),
(506,710,o),
(606,714,c),
(616,704,l),
(616,654,l),
(605,645,l),
(594,645,o),
(462,649,o),
(394,649,cs),
(379,649,o),
(373,647,o),
(373,634,cs),
(373,496,ls),
(373,341,o),
(380,185,o),
(390,30,c),
(246,-11,l),
(237,1,l),
(242,166,o),
(245,331,o)
);
}
);
width = 625;
}
);
unicode = 84;
},
{
glyphname = U;
layers = (
{
anchors = (
{
name = bottom;
pos = (356,0);
},
{
name = top;
pos = (367,683);
}
);
layerId = "21503E60-83E9-42CA-80F5-20ED7CD97021";
shapes = (
{
closed = 1;
nodes = (
(180,660,o),
(175,559,o),
(175,542,c),
(167,269,l),
(167,101,o),
(246,52,o),
(343,52,cs),
(405,52,o),
(465,79,o),
(519,111,c),
(519,294,o),
(521,477,o),
(523,659,c),
(611,694,l),
(617,687,l),
(602,573,o),
(601,364,o),
(601,202,cs),
(601,120,o),
(601,48,o),
(649,48,cs),
(669,48,o),
(687,54,o),
(707,56,c),
(711,39,l),
(706,32,l),
(655,16,o),
(584,-5,o),
(553,-5,cs),
(514,-5,o),
(520,34,o),
(520,64,c),
(512,70,l),
(442,25,o),
(362,-9,o),
(279,-9,cs),
(140,-9,o),
(107,68,o),
(95,127,cs),
(88,173,o),
(87,247,o),
(87,308,cs),
(87,385,o),
(89,464,o),
(89,542,cs),
(89,562,o),
(89,581,o),
(89,601,cs),
(89,641,o),
(15,653,o),
(1,653,c),
(-1,673,l),
(7,680,l),
(176,680,l),
(183,674,l)
);
}
);
width = 712;
},
{
anchors = (
{
name = bottom;
pos = (412,0);
},
{
name = top;
pos = (412,692);
}
);
layerId = "2927A78B-FE88-4016-B2C6-41428F7EDB2B";
shapes = (
{
closed = 1;
nodes = (
(563,283,o),
(563,560,o),
(556,671,c),
(696,717,l),
(711,709,l),
(703,672,o),
(697,630,o),
(695,589,cs),
(689,452,o),
(689,315,o),
(689,180,cs),
(689,111,o),
(682,63,o),
(758,63,cs),
(777,63,o),
(798,65,o),
(815,67,c),
(816,49,l),
(808,39,l),
(651,-5,ls),
(638,-9,o),
(624,-10,o),
(611,-10,cs),
(579,-10,o),
(568,15,o),
(562,39,c),
(551,44,l),
(481,16,o),
(407,-8,o),
(332,-8,cs),
(274,-8,o),
(213,0,o),
(172,38,cs),
(115,90,o),
(104,185,o),
(104,260,cs),
(104,334,o),
(111,436,o),
(111,524,cs),
(111,561,o),
(111,584,o),
(107,622,c),
(100,658,o),
(45,664,o),
(7,670,c),
(7,696,l),
(12,704,l),
(241,704,l),
(251,693,l),
(235,560,o),
(231,431,o),
(231,297,cs),
(231,125,o),
(307,53,o),
(429,53,cs),
(476,53,o),
(523,70,o),
(563,88,c)
);
}
);
width = 823;
}
);
unicode = 85;
},
{
glyphname = V;
layers = (
{
layerId = "21503E60-83E9-42CA-80F5-20ED7CD97021";
shapes = (
{
closed = 1;
nodes = (
(614,680,c),
(700,697,l),
(706,678,l),
(641,599,o),
(579,489,o),
(567,468,cs),
(495,335,o),
(422,175,o),
(365,10,c),
(297,-16,l),
(287,-9,l),
(144,473,ls),
(129,519,o),
(116,565,o),
(96,609,cs),
(80,642,o),
(57,647,o),
(1,655,c),
(0,682,l),
(7,688,l),
(182,698,l),
(221,507,o),
(276,320,o),
(347,138,c),
(349,134,o),
(353,132,o),
(355,131,c),
(362,133,o),
(385,185,o),
(426,274,cs),
(545,548,ls),
(564,593,o),
(589,637,o)
);
}
);
width = 707;
},
{
layerId = "2927A78B-FE88-4016-B2C6-41428F7EDB2B";
shapes = (
{
closed = 1;
nodes = (
(667,697,c),
(783,712,l),
(786,698,l),
(704,590,o),
(643,510,o),
(567,360,cs),
(511,250,o),
(455,140,o),
(413,25,c),
(316,-5,l),
(305,1,l),
(134,520,ls),
(121,560,o),
(102,616,o),
(87,638,cs),
(70,663,o),
(16,669,o),
(6,669,c),
(6,696,l),
(14,703,l),
(81,703,o),
(150,705,o),
(217,710,c),
(268,518,o),
(319,345,o),
(396,178,c),
(396,177,o),
(400,171,o),
(403,171,cs),
(408,171,o),
(413,178,o),
(415,182,cs),
(538,437,ls),
(577,519,o),
(622,611,o)
);
}
);
width = 793;
}
);
unicode = 86;
},
{
glyphname = W;
layers = (
{
layerId = "21503E60-83E9-42CA-80F5-20ED7CD97021";
shapes = (
{
closed = 1;
nodes = (
(965,675,c),
(1046,689,l),
(1046,668,l),
(931,480,ls),
(884,403,o),
(768,173,o),
(703,16,c),
(643,-11,l),
(631,-3,l),
(599,178,o),
(562,357,o),
(522,536,cs),
(521,541,o),
(520,548,o),
(515,548,cs),
(512,548,o),
(508,541,o),
(506,536,cs),
(478,473,ls),
(424,352,o),
(343,173,o),
(296,18,c),
(232,-11,l),
(221,-6,l),
(198,122,o),
(173,249,o),
(143,375,cs),
(123,456,o),
(103,537,o),
(73,614,cs),
(62,642,o),
(32,649,o),
(1,655,c),
(-1,679,l),
(7,686,l),
(163,689,l),
(178,608,o),
(237,338,o),
(276,163,cs),
(277,158,o),
(281,157,o),
(283,157,cs),
(286,157,o),
(289,159,o),
(290,161,cs),
(332,244,o),
(464,535,o),
(509,661,c),
(585,690,l),
(592,684,l),
(592,622,o),
(623,471,o),
(654,325,cs),
(666,270,o),
(685,139,o),
(703,139,cs),
(712,139,o),
(714,143,o),
(716,146,c),
(796,316,l),
(905,558,ls),
(926,604,o),
(948,643,o)
);
}
);
width = 1050;
},
{
layerId = "2927A78B-FE88-4016-B2C6-41428F7EDB2B";
shapes = (
{
closed = 1;
nodes = (
(1170,699,l),
(1170,684,l),
(1036,471,o),
(927,246,o),
(823,19,c),
(718,-16,l),
(704,-4,l),
(587,522,l),
(586,529,o),
(584,536,o),
(579,536,cs),
(572,536,o),
(569,530,o),
(566,523,cs),
(490,354,o),
(419,193,o),
(354,20,c),
(254,-12,l),
(240,-2,l),
(240,-5,o),
(122,528,o),
(83,633,cs),
(74,657,o),
(17,670,o),
(6,670,c),
(6,692,l),
(14,701,l),
(212,701,l),
(244,524,o),
(287,348,o),
(335,174,cs),
(336,170,o),
(339,168,o),
(342,168,cs),
(346,168,o),
(349,174,o),
(351,177,c),
(435,343,o),
(512,503,o),
(573,678,c),
(676,699,l),
(683,694,l),
(708,516,o),
(760,334,o),
(804,151,cs),
(805,146,o),
(809,136,o),
(813,136,cs),
(817,136,o),
(820,139,o),
(824,147,cs),
(904,316,o),
(994,508,o),
(1050,683,c)
);
}
);
width = 1180;
}
);
unicode = 87;
},
{
glyphname = X;
layers = (
{
layerId = "21503E60-83E9-42CA-80F5-20ED7CD97021";
shapes = (
{
closed = 1;
nodes = (
(612,672,l),
(425,466,ls),
(395,431,o),
(362,387,o),
(358,380,c),
(359,368,o),
(474,179,o),
(514,131,cs),
(574,59,l),
(581,52,o),
(603,38,o),
(611,36,c),
(616,32,l),
(616,16,l),
(506,-11,l),
(492,-5,l),
(474,13,o),
(459,35,o),
(446,57,cs),
(303,296,l),
(291,296,l),
(248,244,o),
(137,87,o),
(101,11,c),
(7,0,l),
(7,16,l),
(278,345,l),
(273,345,o),
(180,508,o),
(133,590,cs),
(111,628,o),
(69,638,o),
(28,649,c),
(28,674,l),
(35,680,l),
(60,681,o),
(136,685,o),
(181,688,c),
(328,422,l),
(337,422,l),
(370,455,o),
(508,653,o),
(517,674,c),
(612,687,l)
);
}
);
width = 624;
},
{
layerId = "2927A78B-FE88-4016-B2C6-41428F7EDB2B";
shapes = (
{
closed = 1;
nodes = (
(387,448,l),
(579,684,l),
(692,700,l),
(692,673,l),
(590,604,o),
(490,485,o),
(410,387,c),
(448,323,o),
(488,260,o),
(533,199,cs),
(575,141,o),
(643,55,o),
(692,41,c),
(692,23,l),
(524,-13,l),
(477,50,o),
(393,182,o),
(331,282,c),
(315,282,l),
(265,224,o),
(173,100,o),
(121,19,c),
(16,-1,l),
(16,25,l),
(295,338,l),
(115,623,l),
(96,648,o),
(53,657,o),
(16,666,c),
(16,690,l),
(24,699,l),
(225,705,l),
(270,617,o),
(322,531,o),
(373,448,c)
);
}
);
width = 706;
}
);
unicode = 88;
},
{
glyphname = Y;
layers = (
{
anchors = (
{
name = bottom;
pos = (296,0);
},
{
name = top;
pos = (336,683);
}
);
layerId = "21503E60-83E9-42CA-80F5-20ED7CD97021";
shapes = (
{
closed = 1;
nodes = (
(234,98,o),
(234,199,o),
(234,299,c),
(85,594,ls),
(62,639,o),
(39,645,o),
(-1,651,c),
(-1,679,l),
(6,686,l),
(151,686,l),
(292,361,l),
(293,359,o),
(298,353,o),
(304,353,cs),
(309,353,o),
(344,406,o),
(374,460,cs),
(382,474,o),
(466,619,o),
(502,676,c),
(587,693,l),
(591,675,l),
(480,530,o),
(406,434,o),
(323,306,c),
(332,18,l),
(242,-11,l),
(231,-2,l)
);
}
);
width = 592;
},
{
anchors = (
{
name = bottom;
pos = (334,0);
},
{
name = top;
pos = (359,692);
}
);
layerId = "2927A78B-FE88-4016-B2C6-41428F7EDB2B";
shapes = (
{
closed = 1;
nodes = (
(660,695,l),
(377,323,l),
(377,224,o),
(381,129,o),
(386,28,c),
(272,-4,l),
(254,5,l),
(256,107,o),
(260,296,o),
(260,297,c),
(259,298,o),
(165,488,o),
(119,576,cs),
(103,607,o),
(84,648,o),
(52,657,cs),
(6,669,l),
(6,695,l),
(14,704,l),
(197,704,l),
(204,687,o),
(297,503,o),
(347,402,cs),
(349,398,o),
(355,396,o),
(359,396,cs),
(364,396,o),
(367,397,o),
(371,401,c),
(557,690,l),
(659,707,l)
);
}
);
width = 667;
}
);
unicode = 89;
},
{
glyphname = Z;
layers = (
{
layerId = "21503E60-83E9-42CA-80F5-20ED7CD97021";
shapes = (
{
closed = 1;
nodes = (
(552,664,l),
(417,471,o),
(243,200,o),
(153,61,c),
(159,68,l),
(588,68,l),
(597,59,l),
(579,-12,l),
(450,0,o),
(196,0,o),
(4,0,c),
(3,21,l),
(427,627,l),
(420,637,l),
(233,637,o),
(131,631,o),
(104,628,c),
(98,633,l),
(98,687,l),
(107,695,l),
(255,686,o),
(403,683,o),
(552,683,c)
);
}
);
width = 603;
},
{
layerId = "2927A78B-FE88-4016-B2C6-41428F7EDB2B";
shapes = (
{
closed = 1;
nodes = (
(456,629,c),
(446,643,l),
(322,640,o),
(165,635,o),
(100,630,c),
(92,638,l),
(92,702,l),
(101,709,l),
(278,699,o),
(458,697,o),
(633,697,c),
(633,670,l),
(481,478,o),
(357,283,o),
(217,84,c),
(216,83,o),
(215,81,o),
(215,80,cs),
(215,71,o),
(225,64,o),
(235,64,cs),
(379,65,o),
(523,72,o),
(667,80,c),
(682,67,l),
(655,-11,l),
(528,0,o),
(224,0,o),
(8,0,c),
(8,24,l),
(167,223,o),
(307,424,o)
);
}
);
width = 695;
}
);
unicode = 90;
},
{
glyphname = a;
kernLeft = o_L;
layers = (
{
anchors = (
{
name = bottom;
pos = (274,0);
},
{
name = top;
pos = (274,500);
}
);
layerId = "21503E60-83E9-42CA-80F5-20ED7CD97021";
shapes = (
{
closed = 1;
nodes = (
(310,466,o),
(353,454,o),
(385,431,c),
(438,462,l),
(443,457,l),
(439,384,o),
(437,312,o),
(437,239,cs),
(437,177,o),
(422,52,o),
(476,52,cs),
(490,52,o),
(520,62,o),
(541,70,c),
(548,46,l),
(508,22,o),
(454,-12,o),
(422,-12,cs),
(385,-12,o),
(371,13,o),
(365,47,c),
(350,51,l),
(301,19,o),
(245,-12,o),
(187,-12,cs),
(76,-12,o),
(40,95,o),
(40,185,cs),
(40,326,o),
(108,466,o),
(278,466,cs)
);
},
{
closed = 1;
nodes = (
(296,54,o),
(333,76,o),
(363,99,c),
(363,329,ls),
(363,355,o),
(363,381,o),
(347,398,cs),
(329,417,o),
(304,431,o),
(279,431,cs),
(243,431,o),
(210,418,o),
(184,393,cs),
(161,371,o),
(132,316,o),
(130,215,cs),
(129,173,o),
(135,130,o),
(158,95,cs),
(179,62,o),
(220,54,o),
(257,54,cs)
);
}
);
width = 548;
},
{
anchors = (
{
name = bottom;
pos = (299,0);
},
{
name = top;
pos = (289,488);
}
);
layerId = "2927A78B-FE88-4016-B2C6-41428F7EDB2B";
shapes = (
{
closed = 1;
nodes = (
(483,493,l),
(497,484,l),
(488,393,o),
(481,302,o),
(481,211,cs),
(481,122,o),
(481,73,o),
(514,73,cs),
(536,73,o),
(564,97,o),
(584,115,c),
(603,94,l),
(563,46,o),
(506,-12,o),
(438,-12,cs),
(393,-12,o),
(380,24,o),
(376,54,c),
(363,59,l),
(311,20,o),
(245,-15,o),
(177,-15,cs),
(69,-15,o),
(35,108,o),
(35,191,cs),
(35,393,o),
(118,498,o),
(277,498,cs),
(331,498,o),
(379,482,o),
(423,455,c)
);
},
{
closed = 1;
nodes = (
(376,161,o),
(378,263,o),
(378,331,cs),
(378,383,o),
(367,460,o),
(286,460,cs),
(171,460,o),
(148,321,o),
(148,230,cs),
(148,161,o),
(169,63,o),
(253,63,cs),
(298,63,o),
(341,90,o),
(370,117,c)
);
}
);
width = 598;
}
);
unicode = 97;
},
{
glyphname = ae;
kernLeft = o_L;
layers = (
{
layerId = "21503E60-83E9-42CA-80F5-20ED7CD97021";
shapes = (
{
closed = 1;
nodes = (
(707,319,cs),
(425,197,l),
(431,134,o),
(465,56,o),
(554,56,cs),
(609,56,o),
(663,89,o),
(708,124,c),
(719,122,l),
(732,104,l),
(670,46,o),
(590,-12,o),
(504,-12,cs),
(436,-12,o),
(395,20,o),
(370,66,c),
(319,29,o),
(254,-12,o),
(187,-12,cs),
(76,-12,o),
(40,95,o),
(40,185,cs),
(40,326,o),
(108,466,o),
(278,466,cs),
(320,466,o),
(385,446,o),
(407,407,c),
(455,453,o),
(519,478,o),
(586,478,cs),
(672,478,o),
(728,417,o),
(728,340,cs),
(728,328,o),
(718,324,o)
);
},
{
closed = 1;
nodes = (
(467,396,c),
(428,354,o),
(421,309,o),
(421,260,cs),
(421,254,o),
(422,248,o),
(423,242,c),
(427,238,l),
(629,318,l),
(635,320,o),
(642,328,o),
(642,344,cs),
(642,386,o),
(607,438,o),
(551,438,cs),
(518,438,o),
(488,422,o)
);
},
{
closed = 1;
nodes = (
(363,348,c),
(362,367,o),
(359,385,o),
(347,398,cs),
(329,417,o),
(304,431,o),
(279,431,cs),
(243,431,o),
(210,418,o),
(184,393,cs),
(161,371,o),
(132,316,o),
(130,215,cs),
(129,173,o),
(135,130,o),
(158,95,cs),
(179,62,o),
(220,54,o),
(257,54,cs),
(294,54,o),
(328,74,o),
(357,95,c),
(343,135,o),
(338,181,o),
(338,226,cs),
(338,268,o),
(345,311,o)
);
}
);
width = 752;
},
{
layerId = "2927A78B-FE88-4016-B2C6-41428F7EDB2B";
shapes = (
{
closed = 1;
nodes = (
(780,101,l),
(791,82,l),
(725,35,o),
(644,-16,o),
(562,-16,cs),
(505,-16,o),
(446,-2,o),
(406,35,cs),
(395,45,o),
(386,57,o),
(378,69,c),
(322,28,o),
(253,-15,o),
(177,-15,cs),
(69,-15,o),
(35,108,o),
(35,191,cs),
(35,393,o),
(118,498,o),
(277,498,cs),
(346,498,o),
(401,470,o),
(449,438,c),
(493,473,o),
(552,495,o),
(625,495,cs),
(719,495,o),
(816,459,o),
(816,349,cs),
(816,328,o),
(806,318,o),
(787,312,c),
(786,312,o),
(572,246,o),
(465,213,c),
(465,133,o),
(516,52,o),
(613,52,cs),
(668,52,o),
(719,77,o),
(765,105,c)
);
},
{
closed = 1;
nodes = (
(478,258,c),
(663,317,o),
(693,315,o),
(693,344,cs),
(693,395,o),
(667,455,o),
(602,455,cs),
(494,455,o),
(465,335,o),
(465,262,cs),
(465,258,o),
(468,257,o),
(472,257,cs),
(474,257,o),
(476,258,o)
);
},
{
closed = 1;
nodes = (
(378,349,c),
(375,399,o),
(358,460,o),
(286,460,cs),
(171,460,o),
(148,321,o),
(148,230,cs),
(148,161,o),
(169,63,o),
(253,63,cs),
(293,63,o),
(331,84,o),
(359,108,c),
(348,139,o),
(345,172,o),
(345,204,cs),
(345,255,o),
(356,305,o)
);
}
);
width = 826;
}
);
metricLeft = a;
metricRight = e;
unicode = 230;
},
{
glyphname = b;
layers = (
{
layerId = "21503E60-83E9-42CA-80F5-20ED7CD97021";
shapes = (
{
closed = 1;
nodes = (
(-14,661,l),
(-8,666,l),
(161,684,l),
(167,677,l),
(159,595,o),
(153,514,o),
(153,432,cs),
(153,421,o),
(153,410,o),
(153,399,c),
(162,394,l),
(215,434,o),
(273,468,o),
(341,468,cs),
(434,468,o),
(482,392,o),
(482,308,cs),
(482,264,o),
(477,220,o),
(463,177,cs),
(428,70,o),
(311,-10,o),
(197,-10,cs),
(146,-10,o),
(80,12,o),
(80,123,cs),
(80,599,ls),
(80,634,o),
(72,627,o),
(-14,640,c)
);
},
{
closed = 1;
nodes = (
(157,347,c),
(155,313,o),
(153,268,o),
(153,229,cs),
(153,116,o),
(164,38,o),
(252,38,cs),
(358,38,o),
(399,135,o),
(399,227,cs),
(399,300,o),
(383,342,o),
(369,363,cs),
(356,383,o),
(332,406,o),
(294,406,cs),
(241,406,o),
(196,381,o)
);
}
);
width = 522;
},
{
layerId = "2927A78B-FE88-4016-B2C6-41428F7EDB2B";
shapes = (
{
closed = 1;
nodes = (
(192,693,l),
(185,418,l),
(196,415,l),
(248,458,o),
(311,493,o),
(382,493,cs),
(498,493,o),
(540,386,o),
(540,296,cs),
(540,213,o),
(511,129,o),
(444,72,cs),
(385,22,o),
(312,-14,o),
(231,-14,cs),
(151,-14,o),
(76,27,o),
(76,161,cs),
(76,507,ls),
(76,546,o),
(74,572,o),
(74,602,cs),
(74,632,o),
(40,641,o),
(-20,646,c),
(-20,668,l),
(-11,677,l),
(177,705,l)
);
},
{
closed = 1;
nodes = (
(185,367,c),
(182,233,l),
(182,150,o),
(197,38,o),
(280,38,cs),
(390,38,o),
(421,151,o),
(421,238,cs),
(421,311,o),
(408,419,o),
(302,419,cs),
(259,419,o),
(218,391,o)
);
}
);
width = 567;
}
);
unicode = 98;
},
{
glyphname = c;
kernLeft = o_L;
layers = (
{
anchors = (
{
name = bottom;
pos = (252,-10);
},
{
name = top;
pos = (232,462);
}
);
layerId = "21503E60-83E9-42CA-80F5-20ED7CD97021";
shapes = (
{
closed = 1;
nodes = (
(434,114,l),
(445,96,l),
(383,35,o),
(310,-19,o),
(221,-19,cs),
(58,-19,o),
(48,118,o),
(48,217,cs),
(48,367,o),
(153,475,o),
(301,475,cs),
(366,475,o),
(411,434,o),
(417,377,c),
(363,324,l),
(346,330,l),
(337,397,o),
(304,436,o),
(261,436,cs),
(176,436,o),
(131,336,o),
(131,248,cs),
(131,162,o),
(155,47,o),
(272,47,cs),
(331,47,o),
(381,78,o),
(425,116,c)
);
}
);
width = 455;
},
{
anchors = (
{
name = bottom;
pos = (246,0);
},
{
name = top;
pos = (278,486);
}
);
layerId = "2927A78B-FE88-4016-B2C6-41428F7EDB2B";
shapes = (
{
closed = 1;
nodes = (
(455,379,c),
(363,324,l),
(346,331,l),
(346,393,o),
(323,456,o),
(258,456,cs),
(171,456,o),
(147,317,o),
(147,248,cs),
(147,173,o),
(178,59,o),
(283,59,cs),
(340,59,o),
(397,89,o),
(448,128,c),
(460,125,l),
(470,111,l),
(402,43,o),
(314,-10,o),
(212,-10,cs),
(80,-10,o),
(29,94,o),
(29,193,cs),
(29,338,o),
(100,496,o),
(299,496,cs),
(374,496,o),
(449,469,o)
);
}
);
width = 475;
}
);
unicode = 99;
},
{
glyphname = d;
layers = (
{
layerId = "21503E60-83E9-42CA-80F5-20ED7CD97021";
shapes = (
{
closed = 1;
nodes = (
(268,660,l),
(273,664,l),
(436,684,l),
(444,675,l),
(444,110,l),
(446,81,o),
(452,48,o),
(482,48,cs),
(492,48,o),
(523,59,o),
(543,67,c),
(551,44,l),
(512,17,o),
(461,-19,o),
(422,-19,cs),
(383,-19,o),
(365,19,o),
(363,54,c),
(312,19,o),
(248,-18,o),
(189,-18,cs),
(75,-18,o),
(40,91,o),
(40,180,cs),
(40,320,o),
(115,462,o),
(277,462,cs),
(306,462,o),
(333,456,o),
(360,447,c),
(367,451,l),
(366,504,o),
(367,576,o),
(360,602,cs),
(349,637,o),
(302,638,o),
(269,638,c)
);
},
{
closed = 1;
nodes = (
(363,95,c),
(367,310,ls),
(367,364,o),
(356,428,o),
(273,428,cs),
(161,428,o),
(127,297,o),
(127,203,cs),
(127,133,o),
(155,48,o),
(245,48,cs),
(280,48,o),
(336,68,o)
);
}
);
width = 551;
},
{
layerId = "2927A78B-FE88-4016-B2C6-41428F7EDB2B";
shapes = (
{
closed = 1;
nodes = (
(303,678,l),
(494,699,l),
(503,693,l),
(495,577,o),
(491,535,o),
(491,436,c),
(490,143,l),
(490,118,o),
(497,75,o),
(526,75,cs),
(545,75,o),
(580,98,o),
(597,112,c),
(614,90,l),
(570,45,o),
(510,-11,o),
(449,-11,cs),
(403,-11,o),
(387,29,o),
(384,65,c),
(329,27,o),
(261,-10,o),
(192,-10,cs),
(68,-10,o),
(30,106,o),
(30,193,cs),
(30,370,o),
(129,495,o),
(287,495,cs),
(317,495,o),
(349,493,o),
(378,483,c),
(385,488,l),
(385,581,ls),
(385,636,o),
(355,636,o),
(289,645,c),
(289,669,l)
);
},
{
closed = 1;
nodes = (
(385,113,c),
(385,362,ls),
(385,440,o),
(353,456,o),
(307,456,cs),
(186,456,o),
(153,329,o),
(153,236,cs),
(153,162,o),
(173,63,o),
(266,63,cs),
(314,63,o),
(352,87,o)
);
}
);
width = 608;
}
);
unicode = 100;
},
{
glyphname = eth;
layers = (
{
layerId = "21503E60-83E9-42CA-80F5-20ED7CD97021";
shapes = (
{
closed = 1;
nodes = (
(379,649,l),
(119,511,l),
(106,550,l),
(366,688,l)
);
},
{
closed = 1;
nodes = (
(158,684,l),
(272,644,o),
(390,512,o),
(415,356,cs),
(431,256,o),
(433,142,o),
(363,61,cs),
(335,28,o),
(297,5,o),
(256,-2,cs),
(199,-11,o),
(145,-11,o),
(104,25,cs),
(64,60,o),
(39,129,o),
(32,175,cs),
(12,302,o),
(66,437,o),
(217,461,cs),
(238,464,o),
(261,465,o),
(298,461,c),
(301,466,l),
(261,561,o),
(216,620,o),
(144,662,c)
);
},
{
closed = 1;
nodes = (
(345,145,cs),
(355,198,o),
(352,255,o),
(344,308,cs),
(338,348,o),
(328,387,o),
(314,424,c),
(288,431,o),
(260,435,o),
(233,431,cs),
(117,413,o),
(101,280,o),
(115,190,cs),
(123,143,o),
(164,24,o),
(262,39,cs),
(314,47,o),
(337,98,o)
);
}
);
width = 461;
},
{
layerId = "2927A78B-FE88-4016-B2C6-41428F7EDB2B";
shapes = (
{
closed = 1;
nodes = (
(460,634,l),
(152,502,l),
(149,555,l),
(456,687,l)
);
},
{
closed = 1;
nodes = (
(195,697,l),
(362,624,o),
(496,519,o),
(500,279,cs),
(503,145,o),
(437,-18,o),
(254,-18,cs),
(191,-18,o),
(135,3,o),
(91,43,cs),
(43,86,o),
(29,164,o),
(29,225,cs),
(29,291,o),
(46,360,o),
(99,408,cs),
(150,455,o),
(219,477,o),
(291,477,cs),
(298,477,o),
(314,476,o),
(330,474,c),
(336,484,l),
(307,551,o),
(258,615,o),
(176,663,c)
);
},
{
closed = 1;
nodes = (
(353,430,c),
(337,436,o),
(319,441,o),
(302,441,cs),
(181,441,o),
(147,342,o),
(147,240,cs),
(147,165,o),
(166,21,o),
(271,21,cs),
(377,21,o),
(386,166,o),
(386,261,cs),
(386,319,o),
(374,376,o)
);
}
);
width = 537;
}
);
unicode = 240;
},
{
glyphname = e;
kernLeft = o_L;
layers = (
{
anchors = (
{
name = bottom;
pos = (236,0);
},
{
name = top;
pos = (256,462);
}
);
layerId = "21503E60-83E9-42CA-80F5-20ED7CD97021";
shapes = (
{
closed = 1;
nodes = (
(228,438,o),
(198,422,o),
(177,396,c),
(138,354,o),
(131,309,o),
(131,260,cs),
(131,254,o),
(132,248,o),
(133,242,c),
(137,238,l),
(339,318,l),
(345,320,o),
(352,328,o),
(352,344,cs),
(352,386,o),
(317,438,o),
(261,438,cs)
);
},
{
closed = 1;
nodes = (
(438,328,o),
(428,324,o),
(417,319,cs),
(135,197,l),
(141,134,o),
(175,56,o),
(264,56,cs),
(319,56,o),
(373,89,o),
(418,124,c),
(429,122,l),
(442,104,l),
(380,46,o),
(300,-12,o),
(214,-12,cs),
(80,-12,o),
(48,113,o),
(48,226,cs),
(48,284,o),
(60,343,o),
(99,388,cs),
(148,445,o),
(220,478,o),
(296,478,cs),
(382,478,o),
(438,417,o),
(438,340,cs)
);
}
);
width = 462;
},
{
anchors = (
{
name = bottom;
pos = (255,0);
},
{
name = top;
pos = (285,485);
}
);
layerId = "2927A78B-FE88-4016-B2C6-41428F7EDB2B";
shapes = (
{
closed = 1;
nodes = (
(158,257,o),
(160,258,o),
(162,258,c),
(347,317,o),
(377,315,o),
(377,344,cs),
(377,395,o),
(351,455,o),
(286,455,cs),
(178,455,o),
(149,335,o),
(149,262,cs),
(149,258,o),
(152,257,o),
(156,257,cs)
);
},
{
closed = 1;
nodes = (
(464,101,l),
(475,82,l),
(409,35,o),
(328,-16,o),
(246,-16,cs),
(189,-16,o),
(130,-2,o),
(90,35,cs),
(42,79,o),
(29,143,o),
(29,204,cs),
(29,351,o),
(120,495,o),
(309,495,cs),
(403,495,o),
(500,459,o),
(500,349,cs),
(500,328,o),
(490,318,o),
(471,312,c),
(470,312,o),
(256,246,o),
(149,213,c),
(149,133,o),
(200,52,o),
(297,52,cs),
(352,52,o),
(403,77,o),
(449,105,c)
);
}
);
width = 510;
}
);
unicode = 101;
},
{
glyphname = f;
layers = (
{
layerId = "21503E60-83E9-42CA-80F5-20ED7CD97021";
shapes = (
{
closed = 1;
nodes = (
(10,434,l),
(115,434,l),
(121,440,l),
(121,475,o),
(123,526,o),
(139,562,cs),
(169,632,o),
(229,669,o),
(292,669,cs),
(346,669,o),
(372,642,o),
(385,615,c),
(327,561,l),
(315,565,l),
(311,586,o),
(304,629,o),
(257,629,cs),
(214,629,o),
(197,542,o),
(197,440,c),
(201,434,l),
(325,434,l),
(330,427,l),
(323,405,l),
(316,399,l),
(201,399,l),
(195,393,l),
(195,282,ls),
(195,188,o),
(198,93,o),
(205,12,c),
(126,-12,l),
(109,-1,l),
(116,98,o),
(122,192,o),
(122,283,cs),
(122,391,l),
(116,399,l),
(4,399,l),
(-1,406,l),
(3,428,l)
);
}
);
width = 329;
},
{
layerId = "2927A78B-FE88-4016-B2C6-41428F7EDB2B";
shapes = (
{
closed = 1;
nodes = (
(222,392,l),
(222,266,o),
(231,128,o),
(238,18,c),
(129,-10,l),
(112,-1,l),
(116,102,o),
(119,261,o),
(119,391,c),
(110,400,l),
(-1,400,l),
(-6,408,l),
(4,437,l),
(15,444,l),
(111,444,l),
(119,454,l),
(129,668,o),
(252,686,o),
(309,686,cs),
(328,686,o),
(392,679,o),
(426,609,c),
(356,558,l),
(340,565,l),
(340,613,o),
(306,644,o),
(285,644,cs),
(265,644,o),
(237,617,o),
(228,571,cs),
(222,543,o),
(222,517,o),
(222,454,c),
(231,445,l),
(357,445,l),
(363,435,l),
(354,409,l),
(342,400,l),
(231,400,l)
);
}
);
width = 355;
}
);
unicode = 102;
},
{
glyphname = g;
layers = (
{
layerId = "21503E60-83E9-42CA-80F5-20ED7CD97021";
shapes = (
{
closed = 1;
nodes = (
(356,52,l),
(304,22,o),
(248,-11,o),
(185,-11,cs),
(102,-11,o),
(40,68,o),
(40,184,cs),
(40,362,o),
(141,465,o),
(269,465,cs),
(310,465,o),
(353,456,o),
(386,431,c),
(437,460,l),
(451,454,l),
(446,363,o),
(442,291,o),
(442,82,cs),
(442,43,o),
(440,-28,o),
(420,-86,cs),
(404,-130,o),
(367,-164,o),
(347,-179,cs),
(296,-218,o),
(246,-233,o),
(185,-233,cs),
(141,-233,o),
(96,-223,o),
(47,-177,c),
(96,-115,l),
(110,-115,l),
(128,-151,o),
(174,-192,o),
(210,-192,cs),
(316,-192,o),
(361,-85,o),
(365,45,c)
);
},
{
closed = 1;
nodes = (
(365,99,c),
(365,363,l),
(362,410,o),
(318,431,o),
(276,431,cs),
(158,431,o),
(126,293,o),
(126,203,cs),
(126,113,o),
(190,52,o),
(240,52,cs),
(286,52,o),
(342,81,o)
);
}
);
width = 511;
},
{
layerId = "2927A78B-FE88-4016-B2C6-41428F7EDB2B";
shapes = (
{
closed = 1;
nodes = (
(485,127,cs),
(485,51,o),
(482,5,o),
(470,-45,cs),
(440,-172,o),
(313,-242,o),
(190,-242,cs),
(133,-242,o),
(66,-213,o),
(30,-171,c),
(90,-92,l),
(111,-92,l),
(142,-146,o),
(184,-192,o),
(235,-192,cs),
(274,-192,o),
(311,-174,o),
(331,-147,cs),
(374,-89,o),
(378,-54,o),
(380,55,c),
(317,14,o),
(253,-19,o),
(179,-19,cs),
(46,-19,o),
(35,128,o),
(35,214,cs),
(35,386,o),
(128,495,o),
(282,495,cs),
(335,495,o),
(374,483,o),
(414,456,c),
(476,481,l),
(489,477,l),
(485,405,o),
(485,388,o)
);
},
{
closed = 1;
nodes = (
(380,114,c),
(380,373,ls),
(380,429,o),
(328,454,o),
(292,454,cs),
(192,454,o),
(151,371,o),
(151,269,cs),
(151,189,o),
(160,58,o),
(260,58,cs),
(304,58,o),
(354,80,o)
);
}
);
width = 548;
}
);
unicode = 103;
},
{
glyphname = h;
layers = (
{
layerId = "21503E60-83E9-42CA-80F5-20ED7CD97021";
shapes = (
{
closed = 1;
nodes = (
(538,62,o),
(570,89,o),
(589,107,c),
(602,97,l),
(602,86,l),
(558,39,o),
(505,-10,o),
(445,-10,cs),
(398,-10,o),
(379,40,o),
(379,89,cs),
(379,143,o),
(383,230,o),
(383,266,cs),
(383,342,o),
(371,404,o),
(297,404,cs),
(242,404,o),
(194,372,o),
(155,344,c),
(155,234,o),
(153,124,o),
(153,16,c),
(81,-6,l),
(75,4,l),
(82,136,o),
(88,268,o),
(89,400,cs),
(89,501,o),
(95,580,o),
(69,616,cs),
(60,628,o),
(19,636,o),
(-8,642,c),
(-8,660,l),
(-3,664,l),
(155,681,l),
(161,674,l),
(157,589,o),
(157,490,o),
(157,398,c),
(165,390,l),
(224,426,o),
(293,466,o),
(366,466,cs),
(381,466,o),
(412,456,o),
(431,438,cs),
(461,410,o),
(455,340,o),
(455,260,cs),
(455,238,o),
(455,211,o),
(455,186,cs),
(455,145,o),
(446,62,o),
(499,62,cs)
);
}
);
width = 592;
},
{
layerId = "2927A78B-FE88-4016-B2C6-41428F7EDB2B";
shapes = (
{
closed = 1;
nodes = (
(180,380,c),
(180,262,o),
(180,90,o),
(188,25,c),
(83,-7,l),
(70,4,l),
(75,110,o),
(75,218,o),
(75,325,cs),
(75,418,o),
(74,588,o),
(70,604,cs),
(61,635,o),
(47,637,o),
(-20,641,c),
(-20,668,l),
(-8,676,l),
(178,696,l),
(180,686,l),
(180,433,l),
(189,426,l),
(248,460,o),
(319,497,o),
(384,497,cs),
(480,497,o),
(491,413,o),
(491,348,cs),
(491,316,o),
(483,252,o),
(483,188,cs),
(483,125,o),
(493,88,o),
(529,88,cs),
(557,88,o),
(578,106,o),
(597,123,c),
(612,112,l),
(614,100,l),
(576,56,o),
(522,-8,o),
(468,-8,cs),
(397,-8,o),
(377,42,o),
(377,155,cs),
(377,215,o),
(382,265,o),
(382,310,cs),
(382,400,o),
(355,428,o),
(297,428,cs),
(261,428,o),
(212,404,o)
);
}
);
width = 608;
}
);
metricRight = n;
unicode = 104;
},
{
glyphname = i;
layers = (
{
layerId = "21503E60-83E9-42CA-80F5-20ED7CD97021";
shapes = (
{
closed = 1;
nodes = (
(192,392,c),
(184,182,l),
(184,108,o),
(193,65,o),
(228,65,cs),
(266,65,o),
(293,86,o),
(320,110,c),
(333,100,l),
(333,89,l),
(299,44,o),
(247,-8,o),
(192,-8,cs),
(149,-8,o),
(112,5,o),
(112,104,cs),
(118,325,ls),
(118,377,o),
(109,410,o),
(83,410,cs),
(61,410,o),
(27,393,o),
(3,378,c),
(-10,396,l),
(35,432,o),
(91,471,o),
(130,471,cs),
(175,471,o),
(192,436,o)
);
},
{
closed = 1;
nodes = (
(206,625,c),
(204,592,o),
(178,569,o),
(146,569,cs),
(114,569,o),
(88,595,o),
(88,627,cs),
(88,661,o),
(123,683,o),
(152,683,cs),
(186,683,o),
(206,655,o)
);
}
);
width = 323;
},
{
layerId = "2927A78B-FE88-4016-B2C6-41428F7EDB2B";
shapes = (
{
closed = 1;
nodes = (
(100,621,cs),
(100,657,o),
(130,687,o),
(166,687,cs),
(202,687,o),
(232,657,o),
(232,621,cs),
(232,585,o),
(202,555,o),
(166,555,cs),
(130,555,o),
(100,585,o)
);
},
{
closed = 1;
nodes = (
(331,119,c),
(348,103,l),
(348,92,l),
(310,45,o),
(252,-13,o),
(192,-13,cs),
(168,-13,o),
(145,-3,o),
(132,15,cs),
(105,50,o),
(113,101,o),
(113,254,cs),
(113,371,l),
(111,392,o),
(106,420,o),
(78,420,cs),
(56,420,o),
(33,405,o),
(9,388,c),
(-7,410,l),
(39,447,o),
(100,493,o),
(158,493,cs),
(178,493,o),
(198,486,o),
(208,470,cs),
(216,457,o),
(220,445,o),
(220,386,cs),
(220,346,o),
(217,305,o),
(217,265,cs),
(217,143,o),
(207,72,o),
(260,72,cs),
(284,72,o),
(311,99,o)
);
}
);
width = 344;
}
);
unicode = 105;
},
{
glyphname = dotlessi;
layers = (
{
anchors = (
{
name = bottom;
pos = (165,0);
},
{
name = ogonek;
pos = (268,10);
},
{
name = top;
pos = (130,462);
}
);
layerId = "21503E60-83E9-42CA-80F5-20ED7CD97021";
shapes = (
{
closed = 1;
nodes = (
(192,392,c),
(184,182,l),
(184,108,o),
(193,65,o),
(228,65,cs),
(266,65,o),
(293,86,o),
(320,110,c),
(333,100,l),
(333,89,l),
(299,44,o),
(247,-8,o),
(192,-8,cs),
(149,-8,o),
(112,5,o),
(112,104,cs),
(118,325,ls),
(118,377,o),
(109,410,o),
(83,410,cs),
(61,410,o),
(27,393,o),
(3,378,c),
(-10,396,l),
(35,432,o),
(91,471,o),
(130,471,cs),
(175,471,o),
(192,436,o)
);
}
);
width = 323;
},
{
anchors = (
{
name = bottom;
pos = (172,0);
},
{
name = top;
pos = (172,485);
}
);
layerId = "2927A78B-FE88-4016-B2C6-41428F7EDB2B";
shapes = (
{
closed = 1;
nodes = (
(284,72,o),
(311,99,o),
(331,119,c),
(348,103,l),
(348,92,l),
(310,45,o),
(252,-13,o),
(192,-13,cs),
(168,-13,o),
(145,-3,o),
(132,15,cs),
(105,50,o),
(113,101,o),
(113,254,cs),
(113,371,l),
(111,392,o),
(106,420,o),
(78,420,cs),
(56,420,o),
(33,405,o),
(9,388,c),
(-7,410,l),
(39,447,o),
(100,493,o),
(158,493,cs),
(178,493,o),
(198,486,o),
(208,470,cs),
(216,457,o),
(220,445,o),
(220,386,cs),
(220,346,o),
(217,305,o),
(217,265,cs),
(217,143,o),
(207,72,o),
(260,72,cs)
);
}
);
width = 344;
}
);
metricLeft = i;
metricRight = i;
unicode = 305;
},
{
glyphname = j;
layers = (
{
layerId = "21503E60-83E9-42CA-80F5-20ED7CD97021";
shapes = (
{
closed = 1;
nodes = (
(18,375,c),
(5,393,l),
(46,425,o),
(103,468,o),
(146,468,cs),
(194,468,o),
(204,434,o),
(207,401,c),
(214,358,o),
(214,191,o),
(214,154,cs),
(214,134,o),
(214,-6,o),
(202,-41,cs),
(172,-128,o),
(96,-188,o),
(6,-231,c),
(-10,-215,l),
(64,-171,o),
(104,-126,o),
(118,-76,cs),
(135,-14,o),
(138,110,o),
(138,154,cs),
(138,396,o),
(130,408,o),
(94,408,cs),
(78,408,o),
(43,388,o)
);
},
{
closed = 1;
nodes = (
(159,683,cs),
(189,683,o),
(217,661,o),
(217,629,cs),
(217,595,o),
(191,565,o),
(156,565,cs),
(123,565,o),
(100,593,o),
(100,625,cs),
(100,657,o),
(127,683,o)
);
}
);
width = 291;
},
{
layerId = "2927A78B-FE88-4016-B2C6-41428F7EDB2B";
shapes = (
{
closed = 1;
nodes = (
(96,621,cs),
(96,657,o),
(126,687,o),
(162,687,cs),
(198,687,o),
(228,657,o),
(228,621,cs),
(228,585,o),
(198,555,o),
(162,555,cs),
(126,555,o),
(96,585,o)
);
},
{
closed = 1;
nodes = (
(7,389,c),
(-9,411,l),
(36,445,o),
(97,493,o),
(150,493,cs),
(233,493,o),
(220,417,o),
(220,256,cs),
(220,191,o),
(220,81,o),
(215,27,cs),
(203,-85,o),
(81,-180,o),
(-22,-246,c),
(-49,-227,l),
(32,-166,o),
(104,-101,o),
(111,0,cs),
(113,32,o),
(114,78,o),
(114,125,cs),
(114,275,o),
(130,420,o),
(76,420,cs),
(54,420,o),
(27,405,o)
);
}
);
width = 280;
}
);
unicode = 106;
},
{
glyphname = dotlessj;
layers = (
{
layerId = "21503E60-83E9-42CA-80F5-20ED7CD97021";
shapes = (
{
closed = 1;
nodes = (
(18,375,c),
(5,393,l),
(46,425,o),
(103,468,o),
(146,468,cs),
(194,468,o),
(204,434,o),
(207,401,c),
(214,358,o),
(214,191,o),
(214,154,cs),
(214,134,o),
(214,-6,o),
(202,-41,cs),
(172,-128,o),
(96,-188,o),
(6,-231,c),
(-10,-215,l),
(64,-171,o),
(104,-126,o),
(118,-76,cs),
(135,-14,o),
(138,110,o),
(138,154,cs),
(138,396,o),
(130,408,o),
(94,408,cs),
(78,408,o),
(43,388,o)
);
}
);
width = 288;
},
{
layerId = "2927A78B-FE88-4016-B2C6-41428F7EDB2B";
shapes = (
{
closed = 1;
nodes = (
(7,389,c),
(-9,411,l),
(36,445,o),
(97,493,o),
(150,493,cs),
(233,493,o),
(220,417,o),
(220,256,cs),
(220,191,o),
(220,81,o),
(215,27,cs),
(203,-85,o),
(81,-180,o),
(-22,-246,c),
(-49,-227,l),
(32,-166,o),
(104,-101,o),
(111,0,cs),
(113,32,o),
(114,78,o),
(114,125,cs),
(114,275,o),
(130,420,o),
(76,420,cs),
(54,420,o),
(27,405,o)
);
}
);
width = 273;
}
);
metricLeft = j;
metricRight = j;
unicode = 567;
userData = {
public.markColor = "0,0,1,1";
};
},
{
glyphname = k;
layers = (
{
layerId = "21503E60-83E9-42CA-80F5-20ED7CD97021";
shapes = (
{
closed = 1;
nodes = (
(167,266,l),
(301,389,ls),
(379,460,o),
(390,471,o),
(414,485,c),
(460,456,l),
(460,445,l),
(385,401,o),
(314,350,o),
(247,294,cs),
(240,288,o),
(229,279,o),
(229,274,cs),
(229,268,o),
(234,263,o),
(237,258,c),
(296,183,o),
(393,73,o),
(433,73,cs),
(466,73,o),
(489,89,o),
(511,112,c),
(530,92,l),
(506,60,o),
(456,-7,o),
(403,-7,cs),
(373,-7,o),
(357,4,o),
(324,42,c),
(324,42,o),
(235,162,o),
(164,241,c),
(152,234,l),
(152,13,l),
(81,-7,l),
(75,0,l),
(79,157,o),
(87,310,o),
(87,468,cs),
(87,519,o),
(85,567,o),
(78,594,cs),
(69,625,o),
(45,632,o),
(-8,638,c),
(-8,659,l),
(-3,663,l),
(157,686,l),
(154,679,l),
(154,266,l)
);
}
);
width = 516;
},
{
layerId = "2927A78B-FE88-4016-B2C6-41428F7EDB2B";
shapes = (
{
closed = 1;
nodes = (
(193,253,l),
(193,25,l),
(96,-6,l),
(80,3,l),
(83,93,o),
(83,243,o),
(83,363,cs),
(83,540,ls),
(83,562,o),
(82,584,o),
(77,605,cs),
(70,636,o),
(54,638,o),
(-20,645,c),
(-20,674,l),
(-10,681,l),
(191,698,l),
(199,693,l),
(198,654,o),
(191,418,o),
(188,294,c),
(202,294,l),
(290,366,o),
(366,451,o),
(461,515,c),
(520,478,l),
(519,466,l),
(433,420,o),
(348,370,o),
(272,312,c),
(333,224,o),
(432,89,o),
(470,89,cs),
(497,89,o),
(516,103,o),
(541,125,c),
(563,101,l),
(458,-19,o),
(449,-2,o),
(430,-2,cs),
(350,-2,o),
(270,176,o),
(202,262,c)
);
}
);
width = 561;
}
);
unicode = 107;
},
{
glyphname = l;
layers = (
{
layerId = "21503E60-83E9-42CA-80F5-20ED7CD97021";
shapes = (
{
closed = 1;
nodes = (
(289,112,c),
(300,112,l),
(311,100,l),
(277,47,o),
(225,-11,o),
(159,-11,cs),
(108,-11,o),
(77,15,o),
(77,130,cs),
(84,508,ls),
(84,541,o),
(84,584,o),
(79,608,cs),
(72,639,o),
(24,636,o),
(-8,638,c),
(-8,661,l),
(-2,666,l),
(163,686,l),
(169,679,l),
(165,539,o),
(155,399,o),
(155,259,cs),
(155,160,o),
(143,69,o),
(203,65,c),
(236,65,o),
(264,90,o)
);
}
);
width = 301;
},
{
layerId = "2927A78B-FE88-4016-B2C6-41428F7EDB2B";
shapes = (
{
closed = 1;
nodes = (
(195,685,l),
(187,231,l),
(187,218,o),
(186,203,o),
(186,188,cs),
(186,117,o),
(190,78,o),
(224,78,cs),
(252,78,o),
(278,101,o),
(298,123,c),
(310,123,l),
(326,107,l),
(288,56,o),
(228,-7,o),
(163,-7,cs),
(78,-7,o),
(78,62,o),
(78,124,cs),
(78,200,o),
(82,276,o),
(82,358,cs),
(82,414,o),
(82,472,o),
(81,527,cs),
(80,556,o),
(80,597,o),
(76,614,cs),
(68,649,o),
(28,647,o),
(-14,649,c),
(-14,672,l),
(-2,680,l),
(182,697,l)
);
}
);
width = 322;
}
);
unicode = 108;
},
{
glyphname = m;
layers = (
{
layerId = "21503E60-83E9-42CA-80F5-20ED7CD97021";
shapes = (
{
closed = 1;
nodes = (
(383,-4,l),
(383,28,o),
(393,155,o),
(393,269,cs),
(393,352,o),
(377,400,o),
(311,400,cs),
(264,400,o),
(203,362,o),
(194,356,c),
(191,284,o),
(189,212,o),
(189,139,cs),
(189,97,o),
(189,55,o),
(191,14,c),
(124,-10,l),
(110,-2,l),
(111,90,o),
(117,182,o),
(117,273,cs),
(117,348,o),
(118,412,o),
(77,412,cs),
(61,412,o),
(25,396,o),
(2,383,c),
(-10,402,l),
(30,434,o),
(78,469,o),
(127,471,cs),
(177,471,o),
(189,434,o),
(189,397,c),
(197,391,l),
(249,419,o),
(309,459,o),
(369,459,cs),
(406,459,o),
(440,439,o),
(459,407,c),
(475,405,l),
(513,425,o),
(576,460,o),
(635,460,cs),
(664,460,o),
(693,454,o),
(714,433,cs),
(740,406,o),
(734,348,o),
(734,248,cs),
(734,117,ls),
(734,90,o),
(741,52,o),
(785,52,cs),
(806,52,o),
(838,74,o),
(862,92,c),
(876,92,l),
(883,71,l),
(838,30,o),
(783,-18,o),
(723,-18,cs),
(676,-18,o),
(655,21,o),
(655,59,cs),
(655,75,o),
(660,195,o),
(660,269,cs),
(660,351,o),
(640,400,o),
(575,400,cs),
(526,400,o),
(491,382,o),
(463,366,c),
(462,320,o),
(461,274,o),
(461,228,cs),
(461,158,o),
(463,87,o),
(467,18,c),
(393,-10,l)
);
}
);
width = 873;
},
{
layerId = "2927A78B-FE88-4016-B2C6-41428F7EDB2B";
shapes = (
{
closed = 1;
nodes = (
(228,383,c),
(228,264,o),
(229,64,o),
(234,26,c),
(133,-8,l),
(116,0,l),
(120,92,o),
(123,247,o),
(123,290,cs),
(123,357,o),
(124,419,o),
(84,419,cs),
(61,419,o),
(34,404,o),
(12,389,c),
(-7,413,l),
(39,449,o),
(98,492,o),
(153,492,cs),
(201,492,o),
(221,463,o),
(224,428,c),
(234,425,l),
(288,458,o),
(362,495,o),
(427,495,cs),
(474,495,o),
(517,471,o),
(531,423,c),
(546,418,l),
(607,453,o),
(669,494,o),
(736,494,cs),
(818,494,o),
(848,456,o),
(848,315,cs),
(848,272,o),
(844,196,o),
(844,154,cs),
(844,124,o),
(850,91,o),
(885,91,cs),
(910,91,o),
(931,100,o),
(951,114,c),
(961,114,l),
(972,93,l),
(929,52,o),
(870,-7,o),
(810,-7,cs),
(773,-7,o),
(736,13,o),
(736,114,cs),
(736,165,o),
(740,232,o),
(740,283,cs),
(740,339,o),
(744,431,o),
(668,431,cs),
(625,431,o),
(572,396,o),
(533,369,c),
(533,250,o),
(534,93,o),
(539,26,c),
(440,-9,l),
(424,-1,l),
(428,98,o),
(428,193,o),
(428,289,cs),
(428,345,o),
(432,433,o),
(359,433,cs),
(313,433,o),
(264,406,o)
);
}
);
width = 966;
}
);
metricLeft = n;
metricRight = n;
unicode = 109;
},
{
glyphname = n;
layers = (
{
anchors = (
{
name = bottom;
pos = (317,0);
},
{
name = top;
pos = (317,462);
}
);
layerId = "21503E60-83E9-42CA-80F5-20ED7CD97021";
shapes = (
{
closed = 1;
nodes = (
(195,18,c),
(125,-6,l),
(110,1,l),
(112,52,o),
(119,217,o),
(119,298,cs),
(119,365,o),
(115,413,o),
(82,413,cs),
(61,413,o),
(36,397,o),
(7,378,c),
(-10,400,l),
(31,430,o),
(88,471,o),
(125,471,cs),
(175,471,o),
(191,440,o),
(197,403,c),
(205,397,l),
(261,431,o),
(330,469,o),
(394,469,cs),
(423,469,o),
(452,462,o),
(471,440,cs),
(491,416,o),
(491,320,o),
(491,256,cs),
(491,105,o),
(484,60,o),
(539,60,cs),
(562,60,o),
(594,81,o),
(619,100,c),
(632,100,l),
(641,79,l),
(595,34,o),
(532,-10,o),
(484,-10,cs),
(429,-10,o),
(412,30,o),
(412,78,cs),
(417,249,ls),
(417,349,o),
(398,410,o),
(327,410,cs),
(281,410,o),
(234,378,o),
(198,349,c),
(195,277,o),
(192,189,o),
(192,116,cs),
(192,88,o),
(193,58,o)
);
}
);
width = 631;
},
{
anchors = (
{
name = bottom;
pos = (329,0);
},
{
name = top;
pos = (329,485);
}
);
layerId = "2927A78B-FE88-4016-B2C6-41428F7EDB2B";
shapes = (
{
closed = 1;
nodes = (
(224,378,c),
(224,261,o),
(227,59,o),
(234,28,c),
(124,-4,l),
(112,3,l),
(115,101,o),
(119,295,o),
(119,296,cs),
(119,360,o),
(121,423,o),
(81,423,cs),
(61,423,o),
(24,398,o),
(11,390,c),
(-7,414,l),
(39,451,o),
(100,497,o),
(155,497,cs),
(207,497,o),
(218,462,o),
(221,428,c),
(233,424,l),
(291,460,o),
(365,494,o),
(432,494,cs),
(543,494,o),
(533,404,o),
(533,273,cs),
(533,242,o),
(530,202,o),
(530,170,cs),
(530,113,o),
(537,106,o),
(546,98,c),
(553,91,o),
(563,88,o),
(574,88,cs),
(599,88,o),
(621,100,o),
(641,114,c),
(653,114,l),
(664,97,l),
(620,53,o),
(561,-10,o),
(505,-10,cs),
(485,-10,o),
(465,-3,o),
(451,10,cs),
(421,38,o),
(428,94,o),
(428,240,cs),
(428,298,o),
(428,383,o),
(401,408,cs),
(386,422,o),
(365,424,o),
(345,424,cs),
(315,424,o),
(261,398,o)
);
}
);
width = 658;
}
);
unicode = 110;
},
{
glyphname = o;
kernLeft = o_L;
layers = (
{
anchors = (
{
name = bottom;
pos = (269,0);
},
{
name = top;
pos = (269,462);
}
);
layerId = "21503E60-83E9-42CA-80F5-20ED7CD97021";
shapes = (
{
closed = 1;
nodes = (
(214,426,o),
(160,390,o),
(142,316,cs),
(136,291,o),
(134,265,o),
(134,239,cs),
(134,155,o),
(160,27,o),
(269,27,cs),
(377,27,o),
(400,137,o),
(400,220,cs),
(400,302,o),
(381,426,o),
(268,426,cs)
);
},
{
closed = 1;
nodes = (
(384,6,o),
(312,-14,o),
(242,-14,cs),
(104,-14,o),
(55,90,o),
(48,196,c),
(48,265,o),
(55,339,o),
(103,391,cs),
(150,443,o),
(221,465,o),
(291,465,cs),
(438,465,o),
(489,351,o),
(489,239,cs),
(489,174,o),
(475,108,o),
(431,59,cs)
);
}
);
width = 537;
},
{
anchors = (
{
name = top;
pos = (295,476);
}
);
layerId = "2927A78B-FE88-4016-B2C6-41428F7EDB2B";
shapes = (
{
closed = 1;
nodes = (
(188,446,o),
(161,321,o),
(161,234,cs),
(161,167,o),
(183,30,o),
(281,30,cs),
(409,30,o),
(414,156,o),
(414,268,cs),
(414,353,o),
(387,446,o),
(293,446,cs)
);
},
{
closed = 1;
nodes = (
(48,88,o),
(32,162,o),
(32,233,cs),
(32,378,o),
(143,486,o),
(299,486,cs),
(363,486,o),
(429,473,o),
(476,431,cs),
(522,389,o),
(543,332,o),
(543,274,cs),
(543,68,o),
(420,-11,o),
(273,-11,cs),
(212,-11,o),
(148,-3,o),
(104,37,cs)
);
}
);
width = 575;
}
);
unicode = 111;
},
{
glyphname = oslash;
kernLeft = o_L;
layers = (
{
layerId = "21503E60-83E9-42CA-80F5-20ED7CD97021";
shapes = (
{
closed = 1;
nodes = (
(396,526,l),
(402,515,l),
(140,-90,l),
(108,-82,l),
(106,-68,l),
(364,529,l),
(374,531,l)
);
},
{
ref = o;
}
);
width = 520;
},
{
layerId = "2927A78B-FE88-4016-B2C6-41428F7EDB2B";
shapes = (
{
closed = 1;
nodes = (
(454,556,l),
(458,545,l),
(176,-104,l),
(130,-92,l),
(128,-78,l),
(406,563,l),
(418,565,l)
);
},
{
ref = o;
}
);
width = 575;
}
);
unicode = 248;
},
{
glyphname = oe;
kernLeft = o_L;
layers = (
{
layerId = "21503E60-83E9-42CA-80F5-20ED7CD97021";
shapes = (
{
closed = 1;
nodes = (
(530,396,c),
(491,354,o),
(484,309,o),
(484,260,cs),
(484,254,o),
(485,248,o),
(486,242,c),
(490,238,l),
(692,318,l),
(698,320,o),
(705,328,o),
(705,344,cs),
(705,386,o),
(670,438,o),
(614,438,cs),
(581,438,o),
(551,422,o)
);
},
{
closed = 1;
nodes = (
(770,319,cs),
(488,197,l),
(494,134,o),
(528,56,o),
(617,56,cs),
(672,56,o),
(726,89,o),
(771,124,c),
(782,122,l),
(795,104,l),
(733,46,o),
(653,-12,o),
(567,-12,cs),
(433,-12,o),
(401,113,o),
(401,226,cs),
(401,284,o),
(413,343,o),
(452,388,cs),
(501,445,o),
(573,478,o),
(649,478,cs),
(735,478,o),
(791,417,o),
(791,340,cs),
(791,328,o),
(781,324,o)
);
},
{
closed = 1;
nodes = (
(142,316,cs),
(136,291,o),
(134,265,o),
(134,239,cs),
(134,155,o),
(160,27,o),
(269,27,cs),
(377,27,o),
(400,137,o),
(400,220,cs),
(400,302,o),
(381,426,o),
(268,426,cs),
(214,426,o),
(160,390,o)
);
},
{
closed = 1;
nodes = (
(468,119,l),
(459,97,o),
(447,77,o),
(431,59,cs),
(384,6,o),
(312,-14,o),
(242,-14,cs),
(104,-14,o),
(55,90,o),
(48,196,c),
(48,265,o),
(55,339,o),
(103,391,cs),
(150,443,o),
(221,465,o),
(291,465,cs),
(393,465,o),
(448,410,o),
(473,340,c)
);
}
);
width = 815;
},
{
layerId = "2927A78B-FE88-4016-B2C6-41428F7EDB2B";
shapes = (
{
closed = 1;
nodes = (
(549,258,c),
(734,317,o),
(764,315,o),
(764,344,cs),
(764,395,o),
(738,455,o),
(673,455,cs),
(565,455,o),
(536,335,o),
(536,262,cs),
(536,258,o),
(539,257,o),
(543,257,cs),
(545,257,o),
(547,258,o)
);
},
{
closed = 1;
nodes = (
(851,101,l),
(862,82,l),
(796,35,o),
(715,-16,o),
(633,-16,cs),
(576,-16,o),
(517,-2,o),
(477,35,cs),
(429,79,o),
(416,143,o),
(416,204,cs),
(416,351,o),
(507,495,o),
(696,495,cs),
(790,495,o),
(887,459,o),
(887,349,cs),
(887,328,o),
(877,318,o),
(858,312,c),
(857,312,o),
(643,246,o),
(536,213,c),
(536,133,o),
(587,52,o),
(684,52,cs),
(739,52,o),
(790,77,o),
(836,105,c)
);
},
{
closed = 1;
nodes = (
(161,234,cs),
(161,167,o),
(183,30,o),
(281,30,cs),
(409,30,o),
(414,156,o),
(414,268,cs),
(414,353,o),
(387,446,o),
(293,446,cs),
(188,446,o),
(161,321,o)
);
},
{
closed = 1;
nodes = (
(506,109,l),
(459,24,o),
(371,-11,o),
(273,-11,cs),
(212,-11,o),
(148,-3,o),
(104,37,cs),
(48,88,o),
(32,162,o),
(32,233,cs),
(32,378,o),
(143,486,o),
(299,486,cs),
(363,486,o),
(429,473,o),
(476,431,cs),
(494,414,o),
(508,395,o),
(519,374,c)
);
}
);
width = 897;
}
);
metricLeft = o;
metricRight = e;
unicode = 339;
},
{
glyphname = p;
layers = (
{
layerId = "21503E60-83E9-42CA-80F5-20ED7CD97021";
shapes = (
{
closed = 1;
nodes = (
(203,-206,c),
(122,-237,l),
(112,-226,l),
(117,-168,o),
(118,37,o),
(118,94,cs),
(118,315,ls),
(118,360,o),
(109,412,o),
(79,412,cs),
(58,412,o),
(30,397,o),
(6,383,c),
(-8,402,l),
(32,434,o),
(84,470,o),
(128,470,cs),
(173,470,o),
(189,439,o),
(193,395,c),
(201,391,l),
(255,434,o),
(316,465,o),
(385,465,cs),
(487,465,o),
(522,373,o),
(522,298,cs),
(522,151,o),
(417,-11,o),
(262,-11,cs),
(242,-11,o),
(222,-8,o),
(203,-3,c),
(193,-11,l),
(194,-57,o),
(197,-154,o)
);
},
{
closed = 1;
nodes = (
(195,66,c),
(219,44,o),
(250,29,o),
(283,29,cs),
(404,29,o),
(438,144,o),
(438,239,cs),
(438,326,o),
(399,403,o),
(335,403,cs),
(284,403,o),
(243,382,o),
(196,345,c),
(196,339,o),
(193,263,o),
(193,252,cs),
(193,170,o),
(195,67,o)
);
}
);
width = 562;
},
{
layerId = "2927A78B-FE88-4016-B2C6-41428F7EDB2B";
shapes = (
{
closed = 1;
nodes = (
(222,-217,l),
(101,-247,l),
(89,-238,l),
(95,-75,o),
(110,12,o),
(110,297,cs),
(110,359,o),
(112,413,o),
(71,413,cs),
(53,413,o),
(26,396,o),
(8,385,c),
(-6,409,l),
(40,445,o),
(97,488,o),
(153,488,cs),
(197,488,o),
(216,460,o),
(218,425,c),
(226,421,l),
(277,454,o),
(343,488,o),
(400,488,cs),
(534,488,o),
(569,380,o),
(569,284,cs),
(569,143,o),
(478,0,o),
(310,0,cs),
(280,0,o),
(250,4,o),
(224,21,c),
(222,15,l)
);
},
{
closed = 1;
nodes = (
(242,69,cs),
(261,52,o),
(287,42,o),
(314,42,cs),
(423,42,o),
(449,148,o),
(449,230,cs),
(449,307,o),
(433,414,o),
(332,414,cs),
(291,414,o),
(249,389,o),
(215,366,c),
(215,163,ls),
(215,129,o),
(218,91,o)
);
}
);
width = 597;
}
);
unicode = 112;
},
{
glyphname = thorn;
layers = (
{
layerId = "21503E60-83E9-42CA-80F5-20ED7CD97021";
shapes = (
{
closed = 1;
nodes = (
(199,-206,c),
(118,-237,l),
(108,-226,l),
(113,-168,o),
(114,37,o),
(114,94,cs),
(114,315,ls),
(114,360,o),
(105,412,o),
(75,412,cs),
(54,412,o),
(26,397,o),
(2,383,c),
(-12,402,l),
(28,434,o),
(80,470,o),
(124,470,cs),
(160,470,o),
(188,449,o),
(190,380,cs),
(191,349,o),
(191,321,o),
(191,311,c),
(199,307,l),
(253,350,o),
(312,381,o),
(381,381,cs),
(483,381,o),
(518,289,o),
(518,214,cs),
(518,67,o),
(413,-95,o),
(258,-95,cs),
(238,-95,o),
(221,-92,o),
(202,-87,c),
(192,-95,l),
(194,-141,o),
(194,-154,o)
);
},
{
closed = 1;
nodes = (
(191,-18,c),
(215,-40,o),
(246,-55,o),
(279,-55,cs),
(400,-55,o),
(434,60,o),
(434,155,cs),
(434,242,o),
(395,319,o),
(331,319,cs),
(280,319,o),
(239,298,o),
(192,261,c),
(192,255,o),
(190,157,o),
(190,146,cs),
(190,64,o),
(191,-17,o)
);
}
);
width = 543;
},
{
layerId = "2927A78B-FE88-4016-B2C6-41428F7EDB2B";
shapes = (
{
closed = 1;
nodes = (
(220,-217,l),
(99,-247,l),
(87,-238,l),
(93,-75,o),
(108,12,o),
(108,297,cs),
(108,359,o),
(110,464,o),
(69,464,cs),
(51,464,o),
(24,447,o),
(6,436,c),
(-8,460,l),
(38,496,o),
(95,539,o),
(151,539,cs),
(186,539,o),
(214,527,o),
(218,457,cs),
(219,439,o),
(219,364,o),
(219,337,c),
(227,333,l),
(278,366,o),
(341,400,o),
(398,400,cs),
(532,400,o),
(567,292,o),
(567,196,cs),
(567,55,o),
(476,-88,o),
(308,-88,cs),
(278,-88,o),
(248,-84,o),
(222,-67,c),
(220,-73,l)
);
},
{
closed = 1;
nodes = (
(240,-19,cs),
(259,-36,o),
(285,-46,o),
(312,-46,cs),
(421,-46,o),
(447,60,o),
(447,142,cs),
(447,219,o),
(431,326,o),
(330,326,cs),
(289,326,o),
(250,301,o),
(216,278,c),
(213,75,ls),
(212,41,o),
(216,3,o)
);
}
);
width = 595;
}
);
unicode = 254;
},
{
glyphname = q;
layers = (
{
layerId = "21503E60-83E9-42CA-80F5-20ED7CD97021";
shapes = (
{
closed = 1;
nodes = (
(370,-243,l),
(354,-227,l),
(357,-186,o),
(359,-42,o),
(362,54,c),
(355,59,l),
(304,21,o),
(246,-7,o),
(183,-7,cs),
(78,-7,o),
(40,102,o),
(40,186,cs),
(40,325,o),
(111,471,o),
(280,471,cs),
(311,471,o),
(351,457,o),
(379,443,c),
(388,445,l),
(432,504,l),
(453,500,l),
(443,384,o),
(439,245,o),
(439,113,cs),
(439,-9,o),
(443,-125,o),
(451,-214,c)
);
},
{
closed = 1;
nodes = (
(362,105,c),
(362,331,ls),
(362,356,o),
(362,386,o),
(346,402,cs),
(328,420,o),
(305,434,o),
(279,434,cs),
(166,434,o),
(132,325,o),
(132,213,cs),
(132,130,o),
(164,55,o),
(246,55,cs),
(285,55,o),
(329,76,o)
);
}
);
width = 508;
},
{
layerId = "2927A78B-FE88-4016-B2C6-41428F7EDB2B";
shapes = (
{
closed = 1;
nodes = (
(490,-213,c),
(381,-247,l),
(373,-240,l),
(373,54,l),
(364,59,l),
(305,21,o),
(241,-13,o),
(171,-13,cs),
(50,-13,o),
(35,100,o),
(35,202,cs),
(35,340,o),
(104,495,o),
(288,495,cs),
(330,495,o),
(374,484,o),
(409,464,c),
(468,538,l),
(489,535,l),
(483,433,o),
(478,331,o),
(478,228,cs),
(478,97,o),
(482,-85,o)
);
},
{
closed = 1;
nodes = (
(373,112,c),
(373,349,ls),
(373,416,o),
(337,455,o),
(281,455,cs),
(173,455,o),
(150,324,o),
(150,235,cs),
(150,164,o),
(166,61,o),
(257,61,cs),
(305,61,o),
(343,89,o)
);
}
);
width = 543;
}
);
unicode = 113;
},
{
glyphname = r;
layers = (
{
layerId = "21503E60-83E9-42CA-80F5-20ED7CD97021";
shapes = (
{
closed = 1;
nodes = (
(352,339,l),
(340,344,l),
(335,372,o),
(320,402,o),
(287,402,cs),
(246,402,o),
(221,367,o),
(210,340,cs),
(196,307,o),
(203,224,o),
(203,170,cs),
(203,119,o),
(204,69,o),
(206,18,c),
(136,-3,l),
(121,6,l),
(127,76,o),
(133,163,o),
(133,243,cs),
(133,321,o),
(136,412,o),
(90,412,cs),
(67,412,o),
(37,395,o),
(12,381,c),
(0,398,l),
(39,429,o),
(94,473,o),
(135,473,cs),
(180,473,o),
(201,443,o),
(207,401,c),
(217,397,l),
(246,425,o),
(291,467,o),
(327,467,cs),
(376,467,o),
(401,440,o),
(406,388,c)
);
}
);
width = 416;
},
{
layerId = "2927A78B-FE88-4016-B2C6-41428F7EDB2B";
shapes = (
{
closed = 1;
nodes = (
(232,33,c),
(126,-6,l),
(106,1,l),
(109,101,o),
(113,293,o),
(113,294,cs),
(113,354,o),
(116,415,o),
(77,415,cs),
(58,415,o),
(28,400,o),
(9,385,c),
(-7,408,l),
(38,443,o),
(96,489,o),
(151,489,cs),
(206,489,o),
(217,451,o),
(217,402,c),
(228,397,l),
(268,438,o),
(321,486,o),
(379,486,cs),
(436,486,o),
(458,441,o),
(458,396,c),
(383,338,l),
(370,346,l),
(364,374,o),
(346,401,o),
(313,401,cs),
(235,401,o),
(218,313,o),
(218,257,cs),
(218,225,o),
(225,109,o)
);
}
);
width = 457;
}
);
unicode = 114;
},
{
glyphname = s;
layers = (
{
layerId = "21503E60-83E9-42CA-80F5-20ED7CD97021";
shapes = (
{
closed = 1;
nodes = (
(342,383,c),
(287,346,l),
(275,353,l),
(272,397,o),
(255,431,o),
(210,431,cs),
(163,431,o),
(128,396,o),
(128,350,cs),
(128,310,o),
(165,285,o),
(238,254,cs),
(315,221,o),
(353,185,o),
(353,138,cs),
(353,36,o),
(253,-17,o),
(165,-17,cs),
(105,-17,o),
(51,3,o),
(18,66,c),
(67,137,l),
(81,136,l),
(85,74,o),
(132,21,o),
(195,21,cs),
(237,21,o),
(280,56,o),
(280,97,cs),
(280,148,o),
(228,175,o),
(181,195,cs),
(118,221,o),
(56,257,o),
(56,323,cs),
(56,413,o),
(146,466,o),
(229,466,cs),
(281,466,o),
(339,444,o)
);
}
);
width = 379;
},
{
layerId = "2927A78B-FE88-4016-B2C6-41428F7EDB2B";
shapes = (
{
closed = 1;
nodes = (
(396,426,c),
(323,352,l),
(308,356,l),
(301,403,o),
(273,457,o),
(210,457,cs),
(165,457,o),
(145,429,o),
(145,385,cs),
(145,327,o),
(219,294,o),
(270,271,cs),
(362,229,o),
(402,204,o),
(402,138,cs),
(402,33,o),
(284,-15,o),
(185,-15,cs),
(119,-15,o),
(59,0,o),
(12,52,c),
(75,146,l),
(90,145,l),
(105,88,o),
(131,22,o),
(207,22,cs),
(251,22,o),
(290,50,o),
(290,95,cs),
(290,113,o),
(281,128,o),
(267,141,cs),
(216,188,o),
(48,219,o),
(48,331,cs),
(48,445,o),
(144,494,o),
(247,494,cs),
(306,494,o),
(367,484,o)
);
}
);
width = 423;
}
);
unicode = 115;
},
{
glyphname = germandbls;
layers = (
{
layerId = "21503E60-83E9-42CA-80F5-20ED7CD97021";
shapes = (
{
closed = 1;
nodes = (
(10,434,l),
(71,434,l),
(77,440,l),
(77,475,o),
(79,526,o),
(95,562,cs),
(125,632,o),
(185,669,o),
(248,669,cs),
(302,669,o),
(328,642,o),
(341,615,c),
(283,561,l),
(271,565,l),
(267,586,o),
(260,629,o),
(213,629,cs),
(170,629,o),
(153,542,o),
(153,440,c),
(157,434,l),
(399,434,l),
(404,427,l),
(397,405,l),
(314,259,l),
(365,218,o),
(435,162,o),
(435,68,c),
(434,-60,o),
(331,-160,o),
(169,-160,c),
(164,-136,l),
(249,-119,o),
(326,-61,o),
(349,6,cs),
(364,50,o),
(360,89,o),
(339,127,cs),
(311,176,o),
(263,219,o),
(234,242,c),
(234,266,l),
(310,399,l),
(157,399,l),
(151,393,l),
(151,282,ls),
(151,188,o),
(154,93,o),
(161,12,c),
(82,-12,l),
(65,-1,l),
(72,98,o),
(78,192,o),
(78,283,cs),
(78,391,l),
(72,399,l),
(4,399,l),
(-1,406,l),
(3,428,l)
);
}
);
width = 453;
},
{
layerId = "2927A78B-FE88-4016-B2C6-41428F7EDB2B";
shapes = (
{
closed = 1;
nodes = (
(191,392,l),
(191,266,o),
(200,128,o),
(207,18,c),
(98,-10,l),
(81,-1,l),
(85,102,o),
(88,261,o),
(88,391,c),
(79,400,l),
(-1,400,l),
(-6,408,l),
(4,437,l),
(15,444,l),
(80,444,l),
(88,454,l),
(98,668,o),
(221,686,o),
(278,686,cs),
(297,686,o),
(361,679,o),
(395,609,c),
(325,558,l),
(309,565,l),
(309,613,o),
(275,644,o),
(254,644,cs),
(234,644,o),
(206,617,o),
(197,571,cs),
(191,543,o),
(191,517,o),
(191,454,c),
(200,445,l),
(457,445,l),
(463,435,l),
(454,409,l),
(369,259,l),
(413,223,o),
(495,157,o),
(495,76,cs),
(495,-82,o),
(394,-160,o),
(205,-160,c),
(202,-135,l),
(291,-117,o),
(361,-62,o),
(384,12,cs),
(396,49,o),
(395,82,o),
(380,116,cs),
(355,173,o),
(300,217,o),
(269,242,c),
(269,266,l),
(345,400,l),
(200,400,l)
);
}
);
width = 513;
}
);
unicode = 223;
},
{
glyphname = t;
layers = (
{
layerId = "21503E60-83E9-42CA-80F5-20ED7CD97021";
shapes = (
{
closed = 1;
nodes = (
(121,582,c),
(205,611,l),
(212,606,l),
(207,549,o),
(202,498,o),
(201,440,c),
(207,435,l),
(335,435,l),
(340,431,l),
(332,405,l),
(326,400,l),
(207,400,l),
(201,394,l),
(201,205,ls),
(201,134,o),
(209,55,o),
(272,55,cs),
(297,55,o),
(333,77,o),
(363,96,c),
(375,94,l),
(382,79,l),
(336,36,o),
(276,-9,o),
(218,-9,cs),
(195,-9,o),
(164,-2,o),
(146,22,cs),
(125,49,o),
(123,68,o),
(123,203,cs),
(123,393,l),
(117,400,l),
(5,400,l),
(0,405,l),
(7,429,l),
(13,435,l),
(117,435,l),
(123,441,l),
(123,492,o),
(123,556,o)
);
}
);
width = 385;
},
{
layerId = "2927A78B-FE88-4016-B2C6-41428F7EDB2B";
shapes = (
{
closed = 1;
nodes = (
(101,588,c),
(208,624,l),
(223,617,l),
(223,616,o),
(215,515,o),
(211,453,c),
(218,445,l),
(343,445,l),
(350,435,l),
(340,409,l),
(328,400,l),
(218,400,l),
(210,392,l),
(210,233,ls),
(210,149,o),
(210,73,o),
(265,73,cs),
(292,73,o),
(324,93,o),
(346,113,c),
(356,113,l),
(368,98,l),
(330,48,o),
(270,-11,o),
(203,-11,cs),
(107,-11,o),
(105,79,o),
(105,163,cs),
(105,391,l),
(96,400,l),
(-14,400,l),
(-20,408,l),
(-10,437,l),
(1,444,l),
(97,444,l),
(104,453,l),
(103,505,o),
(101,587,o)
);
}
);
width = 370;
}
);
unicode = 116;
},
{
glyphname = u;
layers = (
{
anchors = (
{
name = bottom;
pos = (319,0);
},
{
name = top;
pos = (319,462);
}
);
layerId = "21503E60-83E9-42CA-80F5-20ED7CD97021";
shapes = (
{
closed = 1;
nodes = (
(635,105,l),
(646,86,l),
(599,45,o),
(536,-8,o),
(485,-8,cs),
(439,-8,o),
(420,22,o),
(416,64,c),
(408,65,l),
(352,31,o),
(279,-10,o),
(220,-10,cs),
(134,-10,o),
(115,56,o),
(115,112,cs),
(115,145,o),
(119,246,o),
(119,275,cs),
(119,366,o),
(115,382,o),
(102,396,cs),
(96,403,o),
(86,405,o),
(74,405,cs),
(60,405,o),
(26,388,o),
(3,375,c),
(-10,395,l),
(29,425,o),
(84,468,o),
(126,468,cs),
(201,468,o),
(192,413,o),
(192,244,cs),
(192,142,o),
(190,51,o),
(282,51,cs),
(327,51,o),
(374,80,o),
(413,104,c),
(413,169,o),
(414,258,o),
(414,329,cs),
(414,375,o),
(414,414,o),
(413,435,c),
(490,470,l),
(503,459,l),
(495,366,o),
(491,273,o),
(491,181,cs),
(491,120,o),
(491,65,o),
(540,65,cs),
(567,65,o),
(601,88,o),
(627,107,c)
);
}
);
width = 638;
},
{
anchors = (
{
name = bottom;
pos = (327,0);
},
{
name = top;
pos = (327,485);
}
);
layerId = "2927A78B-FE88-4016-B2C6-41428F7EDB2B";
shapes = (
{
closed = 1;
nodes = (
(428,314,o),
(426,393,o),
(422,466,c),
(525,500,l),
(537,490,l),
(533,399,o),
(532,309,o),
(532,217,cs),
(532,189,o),
(518,90,o),
(573,90,cs),
(593,90,o),
(619,105,o),
(641,118,c),
(651,118,l),
(659,98,l),
(616,55,o),
(554,-8,o),
(503,-8,cs),
(456,-8,o),
(437,23,o),
(431,61,c),
(421,67,l),
(362,36,o),
(288,-8,o),
(233,-8,cs),
(196,-8,o),
(162,1,o),
(136,25,cs),
(103,55,o),
(107,109,o),
(107,204,cs),
(107,227,o),
(108,249,o),
(108,269,cs),
(108,346,o),
(115,420,o),
(69,420,cs),
(52,420,o),
(26,404,o),
(8,393,c),
(-6,418,l),
(39,451,o),
(98,496,o),
(148,496,cs),
(212,496,o),
(224,451,o),
(224,401,cs),
(224,360,o),
(217,287,o),
(217,226,cs),
(217,125,o),
(229,66,o),
(313,66,cs),
(359,66,o),
(393,88,o),
(427,114,c),
(428,153,o),
(428,194,o),
(428,236,cs)
);
}
);
width = 654;
}
);
unicode = 117;
},
{
glyphname = v;
layers = (
{
layerId = "21503E60-83E9-42CA-80F5-20ED7CD97021";
shapes = (
{
closed = 1;
nodes = (
(413,460,ls),
(416,462,o),
(419,462,o),
(421,462,cs),
(440,462,o),
(467,420,o),
(467,362,cs),
(467,307,o),
(440,257,o),
(412,212,cs),
(367,140,o),
(312,77,o),
(253,17,cs),
(242,6,o),
(228,-8,o),
(223,-11,c),
(199,-11,l),
(130,247,ls),
(107,332,o),
(83,408,o),
(52,408,cs),
(30,408,o),
(12,400,o),
(-11,387,c),
(-20,411,l),
(16,436,o),
(66,469,o),
(105,469,cs),
(156,469,o),
(170,400,o),
(198,293,cs),
(213,233,o),
(245,82,o),
(266,82,cs),
(271,82,o),
(282,96,o),
(290,104,c),
(340,163,o),
(397,241,o),
(397,312,cs),
(397,344,o),
(377,380,o),
(360,412,c),
(359,413,o),
(359,415,o),
(359,417,cs),
(359,420,o),
(361,423,o),
(363,425,c)
);
}
);
width = 493;
},
{
layerId = "2927A78B-FE88-4016-B2C6-41428F7EDB2B";
shapes = (
{
closed = 1;
nodes = (
(8,386,c),
(-7,411,l),
(40,444,o),
(101,487,o),
(152,487,cs),
(166,487,o),
(182,484,o),
(193,475,cs),
(245,433,o),
(261,113,o),
(320,113,cs),
(330,113,o),
(341,118,o),
(347,124,c),
(401,171,o),
(441,230,o),
(441,302,cs),
(441,340,o),
(422,385,o),
(397,416,c),
(397,433,l),
(472,490,l),
(485,490,l),
(521,468,o),
(537,428,o),
(537,389,cs),
(537,321,o),
(501,260,o),
(461,204,cs),
(369,77,o),
(281,8,o),
(257,-12,c),
(214,-12,l),
(200,51,o),
(174,161,o),
(153,245,cs),
(137,308,o),
(128,412,o),
(77,412,cs),
(63,412,o),
(30,400,o)
);
}
);
width = 552;
}
);
unicode = 118;
},
{
glyphname = w;
layers = (
{
layerId = "21503E60-83E9-42CA-80F5-20ED7CD97021";
shapes = (
{
closed = 1;
nodes = (
(668,416,c),
(667,418,o),
(667,420,o),
(667,422,cs),
(667,425,o),
(667,428,o),
(669,429,c),
(726,464,l),
(727,465,o),
(729,465,o),
(732,465,cs),
(757,465,o),
(775,393,o),
(775,369,cs),
(775,314,o),
(747,263,o),
(719,216,cs),
(674,142,o),
(619,76,o),
(561,13,cs),
(551,3,o),
(539,-8,o),
(526,-8,cs),
(515,-8,o),
(503,4,o),
(500,13,cs),
(483,61,o),
(438,236,o),
(409,350,c),
(407,354,o),
(405,360,o),
(400,360,cs),
(396,360,o),
(390,358,o),
(389,355,c),
(333,252,o),
(265,124,o),
(210,5,c),
(168,-8,l),
(161,-2,l),
(137,222,ls),
(116,413,o),
(82,412,o),
(72,412,cs),
(49,412,o),
(16,395,o),
(-11,381,c),
(-20,401,l),
(19,429,o),
(73,469,o),
(114,469,cs),
(168,469,o),
(184,414,o),
(192,373,cs),
(207,293,o),
(211,211,o),
(221,130,c),
(232,128,l),
(289,231,o),
(346,335,o),
(398,441,c),
(450,467,l),
(462,464,l),
(488,338,o),
(515,214,o),
(559,96,cs),
(562,89,o),
(569,81,o),
(577,81,cs),
(581,81,o),
(589,87,o),
(592,91,cs),
(643,155,o),
(706,231,o),
(706,312,cs),
(706,345,o),
(686,385,o)
);
}
);
width = 801;
},
{
layerId = "2927A78B-FE88-4016-B2C6-41428F7EDB2B";
shapes = (
{
closed = 1;
nodes = (
(232,382,cs),
(267,142,l),
(277,139,l),
(347,244,o),
(414,351,o),
(470,463,c),
(524,493,l),
(537,491,l),
(562,365,o),
(595,241,o),
(646,121,cs),
(648,116,o),
(651,109,o),
(655,109,cs),
(661,109,o),
(670,111,o),
(675,115,cs),
(733,160,o),
(789,229,o),
(789,302,cs),
(789,342,o),
(765,388,o),
(742,423,c),
(742,436,l),
(824,496,l),
(840,494,l),
(868,463,o),
(891,427,o),
(891,387,cs),
(891,285,o),
(776,161,o),
(688,68,cs),
(664,43,o),
(622,-7,o),
(589,-7,cs),
(568,-7,o),
(557,24,o),
(551,43,cs),
(457,336,l),
(447,336,l),
(382,224,o),
(308,115,o),
(246,2,c),
(184,-13,l),
(173,-7,l),
(169,67,o),
(160,140,o),
(151,213,cs),
(140,302,o),
(130,408,o),
(79,408,cs),
(55,408,o),
(27,400,o),
(7,388,c),
(-7,407,l),
(39,443,o),
(100,490,o),
(156,490,cs),
(179,490,o),
(195,479,o),
(211,465,cs),
(223,454,o),
(224,432,o)
);
}
);
width = 906;
}
);
metricLeft = v;
metricRight = v;
unicode = 119;
},
{
glyphname = x;
layers = (
{
layerId = "21503E60-83E9-42CA-80F5-20ED7CD97021";
shapes = (
{
closed = 1;
nodes = (
(410,462,cs),
(441,433,ls),
(442,432,o),
(444,430,o),
(444,429,cs),
(444,426,o),
(443,425,o),
(441,424,c),
(385,385,o),
(321,320,o),
(269,259,c),
(310,169,o),
(369,63,o),
(413,63,cs),
(437,63,o),
(464,84,o),
(484,101,c),
(492,101,l),
(500,82,l),
(465,44,o),
(414,-12,o),
(372,-12,cs),
(321,-12,o),
(287,62,o),
(221,191,c),
(214,191,l),
(175,131,o),
(135,69,o),
(105,-8,c),
(89,-12,l),
(61,13,l),
(61,21,l),
(104,90,o),
(154,159,o),
(203,223,c),
(165,300,o),
(117,407,o),
(68,407,cs),
(47,407,o),
(22,394,o),
(4,382,c),
(-10,400,l),
(25,427,o),
(75,464,o),
(108,464,cs),
(125,464,o),
(148,460,o),
(162,445,cs),
(183,422,o),
(224,350,o),
(253,294,c),
(259,293,l),
(295,341,o),
(354,411,o),
(398,462,c),
(399,464,o),
(401,464,o),
(404,464,cs),
(406,464,o),
(408,464,o)
);
}
);
width = 490;
},
{
layerId = "2927A78B-FE88-4016-B2C6-41428F7EDB2B";
shapes = (
{
closed = 1;
nodes = (
(482,489,l),
(519,453,l),
(519,443,l),
(439,396,o),
(370,332,o),
(311,267,c),
(351,190,o),
(410,77,o),
(456,77,cs),
(482,77,o),
(509,98,o),
(528,117,c),
(538,117,l),
(549,103,l),
(515,53,o),
(460,-12,o),
(399,-12,cs),
(353,-12,o),
(330,24,o),
(308,58,c),
(241,182,l),
(231,182,l),
(184,126,o),
(143,62,o),
(114,-4,c),
(98,-8,l),
(50,17,l),
(50,24,l),
(99,94,o),
(155,165,o),
(217,227,c),
(195,276,o),
(158,341,o),
(148,358,cs),
(133,384,o),
(111,418,o),
(82,418,cs),
(63,418,o),
(33,400,o),
(13,386,c),
(-5,410,l),
(36,446,o),
(88,491,o),
(141,491,cs),
(160,491,o),
(179,489,o),
(194,476,cs),
(236,438,o),
(265,367,o),
(290,310,c),
(296,310,l),
(350,372,o),
(406,434,o),
(470,489,c)
);
}
);
width = 550;
}
);
unicode = 120;
},
{
glyphname = y;
layers = (
{
anchors = (
{
name = bottom;
pos = (277,0);
},
{
name = top;
pos = (277,462);
}
);
layerId = "21503E60-83E9-42CA-80F5-20ED7CD97021";
shapes = (
{
closed = 1;
nodes = (
(104,-182,c),
(102,-171,l),
(146,-115,l),
(159,-115,l),
(180,-153,o),
(218,-192,o),
(263,-192,cs),
(370,-192,o),
(394,-91,o),
(404,-34,cs),
(410,-1,o),
(411,32,o),
(412,64,c),
(406,69,l),
(350,34,o),
(282,-8,o),
(218,-8,cs),
(121,-8,o),
(114,90,o),
(114,157,cs),
(114,202,o),
(118,244,o),
(118,294,cs),
(118,366,o),
(113,410,o),
(72,410,cs),
(55,410,o),
(24,394,o),
(1,382,c),
(-10,401,l),
(4,411,o),
(83,468,o),
(129,468,cs),
(172,468,o),
(192,435,o),
(192,398,cs),
(192,342,o),
(188,284,o),
(188,226,cs),
(191,133,o),
(200,103,o),
(216,82,cs),
(231,63,o),
(255,56,o),
(279,56,cs),
(327,56,o),
(376,86,o),
(413,108,c),
(414,143,o),
(415,179,o),
(415,215,cs),
(415,287,o),
(412,359,o),
(407,428,c),
(486,466,l),
(498,462,l),
(484,258,o),
(499,46,o),
(477,-49,cs),
(441,-179,o),
(338,-233,o),
(231,-233,cs),
(184,-233,o),
(131,-210,o)
);
}
);
width = 572;
},
{
anchors = (
{
name = bottom;
pos = (297,0);
},
{
name = top;
pos = (317,485);
}
);
layerId = "2927A78B-FE88-4016-B2C6-41428F7EDB2B";
shapes = (
{
closed = 1;
nodes = (
(534,487,l),
(530,415,o),
(530,398,o),
(530,137,cs),
(530,61,o),
(527,15,o),
(515,-35,cs),
(487,-155,o),
(351,-232,o),
(228,-232,cs),
(171,-232,o),
(104,-203,o),
(68,-161,c),
(128,-82,l),
(149,-82,l),
(180,-136,o),
(222,-182,o),
(273,-182,cs),
(387,-182,o),
(414,-76,o),
(417,54,c),
(407,58,l),
(353,23,o),
(276,-11,o),
(218,-11,cs),
(105,-11,o),
(107,82,o),
(107,176,cs),
(107,227,o),
(113,279,o),
(113,330,cs),
(113,362,o),
(114,417,o),
(69,417,cs),
(52,417,o),
(27,400,o),
(11,386,c),
(-7,411,l),
(36,448,o),
(98,489,o),
(157,489,cs),
(174,489,o),
(190,482,o),
(202,471,cs),
(213,461,o),
(220,446,o),
(220,384,cs),
(220,325,o),
(215,270,o),
(215,208,cs),
(215,101,o),
(233,61,o),
(306,61,cs),
(347,61,o),
(402,92,o),
(418,103,c),
(423,161,o),
(425,224,o),
(425,287,cs),
(425,345,o),
(423,403,o),
(416,456,c),
(516,491,l)
);
}
);
width = 593;
}
);
unicode = 121;
},
{
glyphname = z;
layers = (
{
layerId = "21503E60-83E9-42CA-80F5-20ED7CD97021";
shapes = (
{
closed = 1;
nodes = (
(402,462,c),
(408,462,l),
(422,449,l),
(339,361,o),
(231,228,o),
(132,94,c),
(137,86,l),
(235,76,o),
(333,73,o),
(342,73,cs),
(399,73,o),
(428,115,o),
(451,151,c),
(473,139,l),
(432,59,ls),
(412,19,o),
(385,-9,o),
(335,-8,c),
(324,-9,o),
(249,1,o),
(206,5,cs),
(89,16,l),
(65,16,o),
(43,-4,o),
(27,-27,c),
(21,-27,l),
(6,-8,l),
(301,373,l),
(291,371,o),
(282,371,o),
(271,371,cs),
(238,371,o),
(187,390,o),
(151,390,cs),
(114,390,o),
(93,362,o),
(62,319,c),
(42,332,l),
(92,421,l),
(112,452,o),
(125,462,o),
(154,462,cs),
(205,462,o),
(273,431,o),
(329,431,cs),
(358,431,o),
(381,445,o)
);
}
);
width = 463;
},
{
layerId = "2927A78B-FE88-4016-B2C6-41428F7EDB2B";
shapes = (
{
closed = 1;
nodes = (
(452,492,c),
(473,474,l),
(410,396,o),
(337,312,o),
(267,240,cs),
(153,116,l),
(157,107,l),
(224,107,o),
(292,93,o),
(357,93,cs),
(413,93,o),
(450,128,o),
(480,171,c),
(505,155,l),
(459,69,ls),
(435,23,o),
(412,-8,o),
(350,-8,cs),
(259,-8,o),
(170,17,o),
(79,17,cs),
(52,17,o),
(34,-1,o),
(22,-14,c),
(12,-14,l),
(-2,-2,l),
(99,135,o),
(236,248,o),
(340,377,c),
(333,377,o),
(325,376,o),
(318,376,cs),
(251,376,o),
(175,398,o),
(135,398,cs),
(104,398,o),
(75,365,o),
(56,342,c),
(30,354,l),
(99,468,ls),
(109,484,o),
(132,492,o),
(153,492,cs),
(216,492,o),
(285,462,o),
(358,462,cs),
(393,462,o),
(424,473,o)
);
}
);
width = 509;
}
);
unicode = 122;
},
{
glyphname = f.alt;
layers = (
{
layerId = "21503E60-83E9-42CA-80F5-20ED7CD97021";
shapes = (
{
closed = 1;
nodes = (
(314,669,l),
(292,669,ls),
(229,669,o),
(169,632,o),
(139,562,cs),
(123,526,o),
(121,475,o),
(121,440,c),
(115,434,l),
(10,434,l),
(3,428,l),
(-1,406,l),
(4,399,l),
(116,399,l),
(122,391,l),
(122,283,ls),
(122,192,o),
(116,98,o),
(109,-1,c),
(126,-12,l),
(205,12,l),
(198,93,o),
(195,188,o),
(195,282,cs),
(195,393,l),
(201,399,l),
(316,399,l),
(323,405,l),
(330,427,l),
(325,434,l),
(201,434,l),
(197,440,l),
(197,506,o),
(203,570,o),
(225,607,cs),
(237,627,o),
(253,636,o),
(275,638,cs),
(318,642,o),
(308,640,o),
(314,641,c)
);
}
);
width = 317;
},
{
layerId = "2927A78B-FE88-4016-B2C6-41428F7EDB2B";
shapes = (
{
closed = 1;
nodes = (
(361,644,l),
(285,644,ls),
(265,644,o),
(237,617,o),
(228,571,cs),
(222,543,o),
(222,517,o),
(222,454,c),
(231,445,l),
(357,445,l),
(363,435,l),
(354,409,l),
(342,400,l),
(231,400,l),
(222,392,l),
(222,266,o),
(231,128,o),
(238,18,c),
(129,-10,l),
(112,-1,l),
(116,102,o),
(119,261,o),
(119,391,c),
(110,400,l),
(-1,400,l),
(-6,408,l),
(4,437,l),
(15,444,l),
(111,444,l),
(119,454,l),
(129,668,o),
(252,686,o),
(309,686,cs),
(361,684,l)
);
}
);
width = 357;
}
);
metricLeft = f;
},
{
glyphname = ordfeminine;
layers = (
{
layerId = "21503E60-83E9-42CA-80F5-20ED7CD97021";
shapes = (
{
closed = 1;
nodes = (
(269,550,c),
(308,570,l),
(312,567,l),
(309,519,o),
(307,470,o),
(307,422,cs),
(307,397,o),
(309,371,o),
(309,346,cs),
(309,330,o),
(311,304,o),
(336,304,cs),
(346,304,o),
(368,311,o),
(384,316,c),
(389,300,l),
(360,284,o),
(319,262,o),
(296,262,cs),
(269,262,o),
(259,279,o),
(255,301,c),
(244,303,l),
(208,282,o),
(167,262,o),
(124,262,cs),
(43,262,o),
(15,332,o),
(15,391,cs),
(15,483,o),
(67,573,o),
(190,573,cs),
(213,573,o),
(246,565,o)
);
},
{
closed = 1;
nodes = (
(253,334,c),
(253,484,ls),
(253,501,o),
(253,518,o),
(241,529,cs),
(228,541,o),
(210,550,o),
(192,550,cs),
(165,550,o),
(141,541,o),
(121,525,cs),
(104,511,o),
(83,476,o),
(82,410,cs),
(81,383,o),
(86,355,o),
(103,332,cs),
(119,311,o),
(148,305,o),
(175,305,cs),
(204,305,o),
(232,320,o)
);
}
);
width = 366;
},
{
layerId = "2927A78B-FE88-4016-B2C6-41428F7EDB2B";
shapes = (
{
closed = 1;
nodes = (
(337,590,l),
(346,585,l),
(340,526,o),
(335,466,o),
(335,407,cs),
(335,349,o),
(336,317,o),
(359,317,cs),
(375,317,o),
(394,333,o),
(408,345,c),
(422,331,l),
(394,300,o),
(354,262,o),
(305,262,cs),
(274,262,o),
(265,285,o),
(261,305,c),
(252,308,l),
(214,283,o),
(168,260,o),
(120,260,cs),
(43,260,o),
(19,339,o),
(19,394,cs),
(19,529,o),
(81,594,o),
(191,594,cs),
(229,594,o),
(263,584,o),
(294,566,c)
);
},
{
closed = 1;
nodes = (
(262,485,cs),
(262,519,o),
(254,569,o),
(197,569,cs),
(116,569,o),
(99,478,o),
(99,420,cs),
(99,375,o),
(115,311,o),
(173,311,cs),
(205,311,o),
(234,328,o),
(257,346,c),
(261,375,o),
(262,441,o)
);
}
);
width = 400;
}
);
unicode = 170;
},
{
glyphname = ordmasculine;
layers = (
{
layerId = "21503E60-83E9-42CA-80F5-20ED7CD97021";
shapes = (
{
closed = 1;
nodes = (
(85,475,cs),
(81,459,o),
(79,442,o),
(79,425,cs),
(79,370,o),
(98,288,o),
(179,288,cs),
(258,288,o),
(275,359,o),
(275,413,cs),
(275,466,o),
(261,547,o),
(178,547,cs),
(139,547,o),
(98,522,o)
);
},
{
closed = 1;
nodes = (
(159,261,cs),
(59,261,o),
(22,326,o),
(16,397,c),
(16,442,o),
(21,490,o),
(56,524,cs),
(91,558,o),
(144,572,o),
(195,572,cs),
(229,572,o),
(264,567,o),
(290,546,cs),
(327,516,o),
(340,468,o),
(340,425,cs),
(340,383,o),
(330,340,o),
(298,308,cs),
(263,274,o),
(210,261,o)
);
}
);
width = 356;
},
{
layerId = "2927A78B-FE88-4016-B2C6-41428F7EDB2B";
shapes = (
{
closed = 1;
nodes = (
(105,422,cs),
(105,378,o),
(120,290,o),
(190,290,cs),
(280,290,o),
(283,371,o),
(283,444,cs),
(283,496,o),
(266,560,o),
(198,560,cs),
(123,560,o),
(105,479,o)
);
},
{
closed = 1;
nodes = (
(13,421,cs),
(13,516,o),
(92,586,o),
(202,586,cs),
(248,586,o),
(294,577,o),
(327,550,cs),
(359,523,o),
(375,486,o),
(375,448,cs),
(375,314,o),
(288,263,o),
(184,263,cs),
(140,263,o),
(95,268,o),
(64,294,cs),
(24,327,o),
(13,375,o)
);
}
);
width = 388;
}
);
unicode = 186;
},
{
export = 0;
glyphname = Gamma;
layers = (
{
layerId = "21503E60-83E9-42CA-80F5-20ED7CD97021";
shapes = (
{
closed = 1;
nodes = (
(464,697,c),
(477,522,l),
(452,522,l),
(427,604,ls),
(412,653,o),
(317,652,o),
(258,652,cs),
(238,652,o),
(217,651,o),
(197,650,cs),
(159,647,o),
(161,586,o),
(161,549,cs),
(161,372,o),
(161,194,o),
(164,16,c),
(87,-7,l),
(77,4,l),
(80,187,o),
(84,461,o),
(84,553,cs),
(84,583,o),
(89,633,o),
(68,651,cs),
(42,673,l),
(45,693,l),
(282,693,ls),
(343,693,o),
(404,694,o)
);
}
);
width = 492;
},
{
layerId = "2927A78B-FE88-4016-B2C6-41428F7EDB2B";
shapes = (
{
closed = 1;
nodes = (
(544,692,l),
(561,511,l),
(533,508,l),
(492,586,ls),
(465,638,o),
(386,632,o),
(329,633,cs),
(290,633,o),
(210,639,o),
(210,606,c),
(207,569,o),
(207,479,o),
(207,416,cs),
(207,287,o),
(208,159,o),
(216,31,c),
(100,-9,l),
(83,3,l),
(87,182,o),
(88,539,o),
(88,587,cs),
(88,608,o),
(84,630,o),
(68,645,cs),
(36,675,l),
(38,692,l)
);
}
);
width = 584;
}
);
unicode = 915;
},
{
export = 0;
glyphname = Theta;
layers = (
{
layerId = "21503E60-83E9-42CA-80F5-20ED7CD97021";
shapes = (
{
closed = 1;
nodes = (
(220,349,l),
(217,457,l),
(242,457,l),
(242,438,o),
(246,419,o),
(246,400,cs),
(246,379,o),
(360,384,o),
(413,384,cs),
(453,384,o),
(536,375,o),
(535,406,cs),
(533,457,l),
(561,457,l),
(561,243,l),
(531,244,l),
(531,249,o),
(532,253,o),
(532,258,cs),
(532,280,o),
(535,322,o),
(513,322,cs),
(478,322,o),
(444,326,o),
(409,326,cs),
(369,326,o),
(318,324,o),
(272,322,cs),
(262,322,o),
(247,320,o),
(247,306,cs),
(247,241,l),
(220,241,l)
);
},
{
closed = 1;
nodes = (
(348,-12,cs),
(272,-12,o),
(192,4,o),
(138,59,cs),
(67,130,o),
(41,232,o),
(41,331,cs),
(41,427,o),
(43,469,o),
(86,543,cs),
(144,643,o),
(283,701,o),
(435,701,cs),
(514,701,o),
(598,681,o),
(655,624,cs),
(718,561,o),
(738,468,o),
(738,381,cs),
(738,71,o),
(544,-12,o)
);
},
{
closed = 1;
nodes = (
(391,31,cs),
(476,31,o),
(529,58,o),
(579,108,cs),
(638,167,o),
(644,286,o),
(644,377,cs),
(644,457,o),
(624,539,o),
(567,596,cs),
(518,645,o),
(449,663,o),
(381,663,cs),
(187,663,o),
(134,504,o),
(134,345,cs),
(134,197,o),
(208,31,o)
);
}
);
width = 778;
},
{
layerId = "2927A78B-FE88-4016-B2C6-41428F7EDB2B";
shapes = (
{
closed = 1;
nodes = (
(569,429,cs),
(584,473,l),
(605,473,l),
(605,229,l),
(579,229,l),
(565,285,ls),
(559,308,o),
(510,303,o),
(459,303,cs),
(406,303,o),
(316,310,o),
(307,284,cs),
(288,229,l),
(269,229,l),
(269,473,l),
(295,473,l),
(307,422,ls),
(311,406,o),
(413,409,o),
(466,409,cs),
(504,409,o),
(560,402,o)
);
},
{
closed = 1;
nodes = (
(389,-14,cs),
(299,-14,o),
(205,5,o),
(140,64,cs),
(66,131,o),
(38,227,o),
(38,321,cs),
(38,424,o),
(72,526,o),
(152,598,cs),
(236,674,o),
(364,699,o),
(482,699,cs),
(576,699,o),
(673,682,o),
(741,621,cs),
(809,559,o),
(833,470,o),
(833,383,cs),
(833,276,o),
(806,166,o),
(721,89,cs),
(634,10,o),
(510,-14,o)
);
},
{
closed = 1;
nodes = (
(454,32,cs),
(519,31,o),
(578,56,o),
(624,98,cs),
(685,153,o),
(699,251,o),
(699,331,cs),
(699,546,o),
(593,655,o),
(429,655,cs),
(214,655,o),
(176,486,o),
(176,348,cs),
(176,200,o),
(259,32,o)
);
}
);
width = 873;
}
);
unicode = 920;
},
{
export = 0;
glyphname = Lambda;
layers = (
{
layerId = "21503E60-83E9-42CA-80F5-20ED7CD97021";
shapes = (
{
closed = 1;
nodes = (
(368,673,c),
(434,698,l),
(488,483,o),
(551,271,o),
(647,71,c),
(652,59,o),
(666,51,o),
(679,52,cs),
(746,55,l),
(745,33,l),
(693,17,o),
(641,3,o),
(588,-7,c),
(565,1,l),
(497,187,o),
(438,377,o),
(375,565,c),
(363,565,l),
(268,377,o),
(122,83,o),
(94,17,c),
(69,7,o),
(43,-2,o),
(16,-6,c),
(3,4,l),
(130,224,o),
(253,446,o)
);
}
);
width = 748;
},
{
layerId = "2927A78B-FE88-4016-B2C6-41428F7EDB2B";
shapes = (
{
closed = 1;
nodes = (
(395,672,c),
(500,694,l),
(543,524,o),
(586,350,o),
(659,188,cs),
(683,134,o),
(715,62,o),
(777,62,cs),
(787,62,o),
(797,63,o),
(806,66,c),
(808,39,l),
(621,-13,l),
(593,-2,o),
(571,19,o),
(562,45,cs),
(550,77,o),
(456,374,o),
(404,539,c),
(389,539,l),
(293,366,o),
(214,200,o),
(134,20,c),
(22,-4,l),
(10,16,l),
(151,228,o),
(279,447,o)
);
}
);
width = 816;
}
);
unicode = 923;
},
{
export = 0;
glyphname = Xi;
layers = (
{
layerId = "21503E60-83E9-42CA-80F5-20ED7CD97021";
shapes = (
{
closed = 1;
nodes = (
(556,688,l),
(578,524,l),
(544,524,l),
(528,585,l),
(524,606,o),
(501,618,o),
(483,618,cs),
(137,618,ls),
(117,618,o),
(93,609,o),
(86,589,cs),
(63,525,l),
(36,523,l),
(43,580,o),
(44,638,o),
(49,695,c)
);
},
{
closed = 1;
nodes = (
(131,329,c),
(148,399,l),
(185,397,o),
(222,397,o),
(259,397,cs),
(323,397,o),
(386,399,o),
(450,402,c),
(435,330,l),
(381,331,o),
(327,332,o),
(272,332,cs),
(225,332,o),
(178,331,o)
);
},
{
closed = 1;
nodes = (
(578,147,l),
(563,-6,l),
(562,-6,o),
(219,-2,o),
(47,0,c),
(47,1,o),
(40,101,o),
(36,152,c),
(62,153,l),
(76,102,ls),
(81,83,o),
(96,72,o),
(113,72,cs),
(514,72,ls),
(536,72,o),
(535,84,o),
(553,147,c)
);
}
);
width = 613;
},
{
layerId = "2927A78B-FE88-4016-B2C6-41428F7EDB2B";
shapes = (
{
closed = 1;
nodes = (
(641,186,l),
(620,-6,l),
(68,-6,l),
(47,186,l),
(73,188,l),
(90,136,ls),
(97,115,o),
(122,106,o),
(146,106,cs),
(540,106,ls),
(561,106,o),
(584,113,o),
(592,133,cs),
(613,189,l)
);
},
{
closed = 1;
nodes = (
(167,413,l),
(521,413,l),
(525,406,l),
(495,308,l),
(225,307,ls),
(198,307,o),
(170,305,o),
(143,302,c),
(135,308,l)
);
},
{
closed = 1;
nodes = (
(616,693,l),
(638,505,l),
(615,505,l),
(593,547,ls),
(578,575,o),
(533,584,o),
(497,584,cs),
(159,585,ls),
(137,585,o),
(112,582,o),
(102,562,cs),
(74,505,l),
(44,505,l),
(64,693,l)
);
}
);
width = 684;
}
);
unicode = 926;
},
{
export = 0;
glyphname = Pi;
layers = (
{
layerId = "21503E60-83E9-42CA-80F5-20ED7CD97021";
shapes = (
{
closed = 1;
nodes = (
(668,658,l),
(592,641,ls),
(587,640,o),
(583,638,o),
(579,635,c),
(574,628,o),
(572,513,o),
(572,412,cs),
(572,277,o),
(574,143,o),
(584,8,c),
(504,-14,l),
(490,-3,l),
(493,95,o),
(493,192,o),
(493,290,cs),
(493,398,o),
(492,519,o),
(491,627,cs),
(491,637,o),
(480,640,o),
(478,640,cs),
(189,640,ls),
(183,640,o),
(175,634,o),
(175,626,c),
(168,525,o),
(168,424,o),
(168,322,cs),
(168,240,o),
(171,118,o),
(173,15,c),
(88,-4,l),
(81,2,l),
(88,155,o),
(89,307,o),
(89,461,cs),
(89,485,o),
(89,510,o),
(89,534,cs),
(89,564,o),
(88,620,o),
(76,632,c),
(67,640,o),
(58,643,o),
(1,660,c),
(1,690,l),
(76,685,o),
(151,681,o),
(226,681,cs),
(424,681,ls),
(468,681,o),
(587,684,o),
(668,686,c)
);
}
);
width = 668;
},
{
layerId = "2927A78B-FE88-4016-B2C6-41428F7EDB2B";
shapes = (
{
closed = 1;
nodes = (
(703,214,c),
(703,19,l),
(577,-14,l),
(561,-3,l),
(566,191,ls),
(567,231,o),
(568,440,o),
(568,601,cs),
(568,617,o),
(552,623,o),
(530,623,cs),
(263,623,ls),
(247,623,o),
(230,615,o),
(228,599,cs),
(223,562,o),
(223,411,o),
(223,316,cs),
(223,220,o),
(225,124,o),
(231,27,c),
(109,-9,l),
(94,1,l),
(97,103,o),
(98,206,o),
(98,309,cs),
(98,408,o),
(95,507,o),
(95,605,cs),
(95,619,o),
(90,633,o),
(75,638,cs),
(8,659,l),
(8,690,l),
(79,687,o),
(149,686,o),
(220,686,cs),
(792,686,l),
(790,653,l),
(730,641,ls),
(677,630,o),
(692,527,o),
(692,471,cs),
(692,385,o),
(692,288,o)
);
}
);
width = 800;
}
);
unicode = 928;
},
{
export = 0;
glyphname = Sigma;
layers = (
{
layerId = "21503E60-83E9-42CA-80F5-20ED7CD97021";
shapes = (
{
closed = 1;
nodes = (
(299,362,c),
(124,106,l),
(129,96,l),
(218,94,o),
(306,94,o),
(395,94,cs),
(449,94,o),
(503,96,o),
(556,104,c),
(559,94,l),
(544,5,l),
(455,8,o),
(367,9,o),
(278,9,cs),
(188,9,o),
(98,2,o),
(8,2,c),
(8,3,o),
(13,30,o),
(17,49,c),
(180,265,ls),
(199,291,o),
(224,325,o),
(234,350,c),
(226,372,o),
(212,396,o),
(198,416,cs),
(46,641,l),
(114,688,l),
(150,687,o),
(186,687,o),
(222,687,cs),
(324,687,o),
(426,690,o),
(528,695,c),
(532,684,l),
(510,635,l),
(179,635,l),
(168,622,l),
(305,400,ls),
(308,395,o),
(310,390,o),
(310,384,cs),
(310,378,o),
(303,369,o)
);
}
);
width = 571;
},
{
layerId = "2927A78B-FE88-4016-B2C6-41428F7EDB2B";
shapes = (
{
closed = 1;
nodes = (
(361,378,cs),
(157,125,l),
(318,125,o),
(478,126,o),
(637,134,c),
(643,119,l),
(610,-1,l),
(539,4,o),
(466,2,o),
(393,2,cs),
(266,2,o),
(139,1,o),
(12,1,c),
(31,68,l),
(109,150,o),
(198,260,o),
(268,350,c),
(71,626,l),
(71,639,l),
(150,690,l),
(305,690,o),
(461,690,o),
(616,699,c),
(626,691,l),
(588,623,l),
(522,626,o),
(363,626,o),
(247,626,c),
(242,619,l),
(363,442,ls),
(373,428,o),
(376,419,o),
(376,411,c),
(375,403,o),
(369,388,o)
);
}
);
width = 664;
}
);
unicode = 931;
},
{
export = 0;
glyphname = Upsilon;
layers = (
{
layerId = "21503E60-83E9-42CA-80F5-20ED7CD97021";
shapes = (
{
closed = 1;
nodes = (
(672,546,c),
(650,543,l),
(644,580,o),
(626,618,o),
(574,618,cs),
(546,618,o),
(521,607,o),
(501,587,cs),
(374,460,o),
(372,347,o),
(372,25,c),
(305,-11,l),
(288,-4,l),
(292,71,o),
(292,146,o),
(292,221,cs),
(292,297,o),
(285,373,o),
(265,446,cs),
(244,523,o),
(196,625,o),
(112,625,cs),
(65,625,o),
(38,588,o),
(26,548,c),
(7,555,l),
(19,624,o),
(48,697,o),
(142,697,cs),
(288,697,o),
(320,505,o),
(333,375,c),
(342,375,l),
(363,498,o),
(411,697,o),
(566,697,cs),
(651,697,o),
(672,621,o)
);
}
);
width = 682;
},
{
layerId = "2927A78B-FE88-4016-B2C6-41428F7EDB2B";
shapes = (
{
closed = 1;
nodes = (
(454,27,c),
(332,-6,l),
(312,2,l),
(317,68,o),
(318,134,o),
(318,200,cs),
(318,276,o),
(310,353,o),
(288,426,cs),
(265,502,o),
(217,602,o),
(121,602,cs),
(68,602,o),
(48,567,o),
(33,530,c),
(13,535,l),
(20,616,o),
(77,691,o),
(181,691,cs),
(357,691,o),
(375,506,o),
(380,371,c),
(390,371,l),
(415,491,o),
(464,707,o),
(622,707,cs),
(734,707,o),
(747,614,o),
(747,536,c),
(722,534,l),
(714,572,o),
(690,601,o),
(648,601,cs),
(617,601,o),
(591,592,o),
(570,573,cs),
(472,484,o),
(446,338,o),
(446,210,cs),
(446,149,o),
(450,88,o)
);
}
);
width = 764;
}
);
unicode = 933;
},
{
export = 0;
glyphname = Phi;
layers = (
{
layerId = "21503E60-83E9-42CA-80F5-20ED7CD97021";
shapes = (
{
closed = 1;
nodes = (
(234,684,l),
(493,686,l),
(493,661,l),
(430,651,ls),
(415,649,o),
(406,635,o),
(406,621,cs),
(406,608,l),
(413,601,l),
(626,601,o),
(703,503,o),
(703,373,cs),
(703,298,o),
(683,221,o),
(630,168,cs),
(578,116,o),
(486,89,o),
(414,86,c),
(406,80,l),
(409,60,o),
(422,42,o),
(443,38,cs),
(502,26,l),
(502,2,l),
(234,2,l),
(234,23,l),
(296,38,ls),
(312,42,o),
(318,64,o),
(320,80,c),
(313,86,l),
(169,88,o),
(28,159,o),
(28,332,cs),
(28,397,o),
(45,464,o),
(92,512,cs),
(149,570,o),
(230,599,o),
(312,601,c),
(320,608,l),
(320,620,ls),
(320,634,o),
(310,646,o),
(297,648,cs),
(234,657,l)
);
},
{
closed = 1;
nodes = (
(406,565,l),
(406,122,l),
(412,114,l),
(551,117,o),
(611,233,o),
(611,352,cs),
(611,523,o),
(522,571,o),
(413,573,c)
);
},
{
closed = 1;
nodes = (
(320,121,l),
(320,565,l),
(313,573,l),
(191,568,o),
(120,463,o),
(120,347,cs),
(120,238,o),
(187,117,o),
(313,114,c)
);
}
);
width = 732;
},
{
layerId = "2927A78B-FE88-4016-B2C6-41428F7EDB2B";
shapes = (
{
closed = 1;
nodes = (
(594,661,l),
(516,646,ls),
(505,644,o),
(494,636,o),
(494,625,cs),
(494,598,l),
(504,587,l),
(752,587,o),
(836,503,o),
(836,367,cs),
(836,296,o),
(818,222,o),
(762,172,cs),
(695,112,o),
(597,92,o),
(504,90,c),
(494,80,l),
(494,54,l),
(496,48,o),
(512,45,o),
(522,43,cs),
(604,28,l),
(604,0,l),
(271,0,l),
(272,27,l),
(339,39,o),
(366,37,o),
(369,59,c),
(369,80,l),
(359,90,l),
(126,95,o),
(30,198,o),
(30,342,cs),
(30,518,o),
(194,584,o),
(359,588,cs),
(361,588,o),
(368,597,o),
(369,598,c),
(369,622,ls),
(369,633,o),
(362,642,o),
(349,644,cs),
(271,658,l),
(271,685,l),
(594,685,l)
);
},
{
closed = 1;
nodes = (
(504,116,l),
(653,123,o),
(696,246,o),
(696,358,cs),
(696,520,o),
(602,554,o),
(504,556,c),
(494,546,l),
(494,127,l)
);
},
{
closed = 1;
nodes = (
(359,556,l),
(222,549,o),
(173,445,o),
(173,344,cs),
(173,282,o),
(188,217,o),
(237,173,cs),
(269,144,o),
(314,119,o),
(359,116,c),
(369,126,l),
(369,546,l)
);
}
);
width = 868;
}
);
unicode = 934;
},
{
export = 0;
glyphname = Psi;
layers = (
{
layerId = "21503E60-83E9-42CA-80F5-20ED7CD97021";
shapes = (
{
closed = 1;
nodes = (
(437,244,l),
(439,86,ls),
(439,64,o),
(450,43,o),
(472,38,cs),
(529,26,l),
(529,-1,l),
(263,-1,l),
(263,26,l),
(331,38,ls),
(353,42,o),
(360,78,o),
(360,87,cs),
(360,242,l),
(354,248,l),
(235,248,o),
(164,282,o),
(141,372,cs),
(92,539,o),
(139,644,o),
(72,644,c),
(72,644,o),
(71,644,o),
(70,644,c),
(7,634,l),
(0,656,l),
(108,692,l),
(111,694,o),
(131,694,o),
(143,694,cs),
(179,694,o),
(186,653,o),
(186,595,cs),
(186,463,o),
(204,283,o),
(354,275,c),
(360,282,l),
(360,365,ls),
(360,465,o),
(360,585,o),
(354,667,c),
(440,690,l),
(444,682,l),
(437,607,o),
(431,533,o),
(431,458,cs),
(431,399,o),
(432,340,o),
(434,282,c),
(441,276,l),
(553,282,o),
(582,396,o),
(600,523,cs),
(606,567,o),
(607,612,o),
(619,655,c),
(653,667,o),
(688,675,o),
(723,679,c),
(726,661,l),
(682,633,o),
(681,578,o),
(665,488,cs),
(634,285,o),
(560,253,o),
(443,251,c)
);
}
);
width = 736;
},
{
layerId = "2927A78B-FE88-4016-B2C6-41428F7EDB2B";
shapes = (
{
closed = 1;
nodes = (
(756,592,cs),
(720,418,ls),
(700,324,o),
(671,278,o),
(498,252,c),
(491,243,l),
(491,184,o),
(487,57,o),
(525,46,cs),
(601,26,l),
(601,-1,l),
(270,-1,l),
(270,28,l),
(341,44,ls),
(357,47,o),
(368,59,o),
(368,74,cs),
(368,240,l),
(361,249,l),
(324,254,o),
(286,259,o),
(251,270,cs),
(12,342,o),
(206,649,o),
(56,649,cs),
(48,649,o),
(28,646,o),
(13,640,c),
(7,664,l),
(65,678,o),
(167,703,o),
(186,703,cs),
(269,703,o),
(243,597,o),
(246,511,cs),
(249,432,o),
(273,315,o),
(363,285,c),
(372,291,l),
(372,420,o),
(372,607,o),
(368,666,c),
(482,698,l),
(497,686,l),
(493,559,o),
(493,420,o),
(493,287,c),
(501,281,l),
(557,295,o),
(588,344,o),
(596,394,cs),
(624,581,ls),
(628,607,o),
(635,633,o),
(652,655,c),
(702,670,o),
(754,682,o),
(807,688,c),
(803,661,l),
(773,650,o),
(762,620,o)
);
}
);
width = 819;
}
);
unicode = 936;
},
{
export = 0;
glyphname = alpha;
layers = (
{
layerId = "21503E60-83E9-42CA-80F5-20ED7CD97021";
shapes = (
{
closed = 1;
nodes = (
(349,212,c),
(315,324,o),
(288,411,o),
(212,411,cs),
(120,411,o),
(96,290,o),
(96,216,cs),
(96,159,o),
(113,62,o),
(182,62,cs),
(240,62,o),
(298,140,o)
);
},
{
closed = 1;
nodes = (
(504,468,l),
(555,445,l),
(509,376,o),
(417,238,o),
(417,237,c),
(433,177,o),
(467,50,o),
(515,50,cs),
(540,50,o),
(575,75,o),
(602,96,c),
(612,95,l),
(619,76,l),
(551,22,o),
(502,-20,o),
(468,-20,cs),
(445,-20,o),
(420,-1,o),
(414,24,c),
(368,158,l),
(357,160,l),
(292,82,ls),
(256,38,o),
(196,-12,o),
(136,-12,cs),
(55,-12,o),
(30,101,o),
(30,169,cs),
(30,307,o),
(111,468,o),
(262,468,cs),
(351,468,o),
(385,363,o),
(400,308,c),
(410,307,l)
);
}
);
width = 609;
},
{
layerId = "2927A78B-FE88-4016-B2C6-41428F7EDB2B";
shapes = (
{
closed = 1;
nodes = (
(559,476,l),
(626,440,l),
(492,261,l),
(539,112,ls),
(545,91,o),
(561,64,o),
(586,64,cs),
(596,64,o),
(620,81,o),
(638,95,c),
(651,94,l),
(661,79,l),
(620,38,o),
(565,-18,o),
(515,-18,cs),
(454,-18,o),
(437,65,o),
(411,158,c),
(403,159,l),
(377,129,o),
(335,86,o),
(317,69,cs),
(272,27,o),
(209,-14,o),
(145,-14,cs),
(49,-14,o),
(29,96,o),
(29,168,cs),
(29,312,o),
(133,474,o),
(305,474,cs),
(378,474,o),
(426,441,o),
(466,333,c),
(475,333,l)
);
},
{
closed = 1;
nodes = (
(394,220,c),
(376,276,o),
(343,414,o),
(250,414,cs),
(155,414,o),
(136,300,o),
(136,217,cs),
(136,162,o),
(153,72,o),
(222,72,cs),
(252,72,o),
(276,90,o),
(297,108,cs),
(319,127,o),
(350,158,o)
);
}
);
width = 661;
}
);
unicode = 945;
},
{
export = 0;
glyphname = beta;
layers = (
{
layerId = "21503E60-83E9-42CA-80F5-20ED7CD97021";
shapes = (
{
closed = 1;
nodes = (
(324,380,l),
(373,378,o),
(428,366,o),
(458,335,cs),
(492,300,o),
(512,250,o),
(512,202,cs),
(512,64,o),
(396,-15,o),
(267,-15,cs),
(229,-15,o),
(193,-1,o),
(173,34,c),
(222,103,l),
(235,97,l),
(235,95,o),
(235,92,o),
(235,90,cs),
(235,52,o),
(269,21,o),
(307,21,cs),
(391,21,o),
(427,120,o),
(427,194,cs),
(427,295,o),
(360,352,o),
(262,352,cs),
(241,352,o),
(220,352,o),
(199,350,c),
(201,386,l),
(290,386,o),
(370,434,o),
(370,540,cs),
(370,596,o),
(329,651,o),
(269,651,cs),
(201,651,o),
(166,606,o),
(151,545,cs),
(129,458,o),
(135,394,o),
(135,208,cs),
(135,82,o),
(137,-44,o),
(144,-169,c),
(68,-202,l),
(56,-187,l),
(61,3,o),
(57,194,o),
(65,384,cs),
(67,435,o),
(75,513,o),
(97,560,cs),
(135,641,o),
(206,698,o),
(312,698,cs),
(387,698,o),
(448,638,o),
(448,563,cs),
(448,488,o),
(390,417,o),
(325,392,c)
);
}
);
width = 530;
},
{
layerId = "2927A78B-FE88-4016-B2C6-41428F7EDB2B";
shapes = (
{
closed = 1;
nodes = (
(177,-152,c),
(71,-194,l),
(57,-184,l),
(62,-62,o),
(62,156,o),
(62,326,cs),
(62,383,o),
(63,442,o),
(82,497,cs),
(121,610,o),
(209,676,o),
(328,676,cs),
(411,676,o),
(499,641,o),
(499,552,cs),
(499,476,o),
(444,409,o),
(360,383,c),
(358,372,l),
(490,359,o),
(565,305,o),
(565,206,cs),
(565,55,o),
(440,-11,o),
(301,-11,cs),
(259,-11,o),
(208,-5,o),
(189,34,c),
(250,109,l),
(262,106,l),
(269,70,o),
(293,26,o),
(334,26,cs),
(423,26,o),
(441,127,o),
(441,194,cs),
(441,222,o),
(425,278,o),
(391,309,cs),
(359,338,o),
(282,338,o),
(226,338,c),
(227,372,l),
(326,372,o),
(398,439,o),
(398,531,cs),
(398,591,o),
(344,630,o),
(286,630,cs),
(178,630,o),
(167,517,o),
(167,424,cs),
(167,423,o),
(173,40,o)
);
}
);
width = 582;
}
);
unicode = 946;
},
{
export = 0;
glyphname = gamma;
layers = (
{
layerId = "21503E60-83E9-42CA-80F5-20ED7CD97021";
shapes = (
{
closed = 1;
nodes = (
(538,470,l),
(598,443,l),
(518,312,o),
(428,188,o),
(353,54,c),
(336,11,l),
(336,3,o),
(336,-4,o),
(336,-12,cs),
(336,-65,o),
(333,-120,o),
(328,-172,c),
(294,-198,l),
(273,-191,o),
(255,-179,o),
(238,-165,c),
(291,0,l),
(291,39,o),
(260,300,o),
(187,372,cs),
(168,390,o),
(143,403,o),
(117,403,cs),
(90,403,o),
(50,396,o),
(30,373,cs),
(7,346,l),
(-9,358,l),
(41,435,o),
(83,469,o),
(160,469,cs),
(309,469,o),
(333,238,o),
(333,92,c),
(341,90,l),
(406,210,o),
(488,370,o),
(525,465,c)
);
}
);
width = 589;
},
{
layerId = "2927A78B-FE88-4016-B2C6-41428F7EDB2B";
shapes = (
{
closed = 1;
nodes = (
(303,-201,l),
(231,-152,l),
(292,-7,l),
(286,68,o),
(271,174,o),
(249,246,cs),
(229,310,o),
(197,408,o),
(110,408,cs),
(75,408,o),
(38,387,o),
(12,366,c),
(-5,391,l),
(44,435,o),
(106,471,o),
(176,471,cs),
(344,471,o),
(359,285,o),
(363,133,c),
(372,131,l),
(438,241,o),
(487,342,o),
(525,463,c),
(544,475,l),
(623,444,l),
(558,328,o),
(488,233,o),
(420,138,cs),
(405,118,o),
(376,61,o),
(366,33,c),
(366,-27,o),
(366,-112,o),
(358,-166,c)
);
}
);
width = 622;
}
);
unicode = 947;
},
{
export = 0;
glyphname = delta;
layers = (
{
layerId = "21503E60-83E9-42CA-80F5-20ED7CD97021";
shapes = (
{
closed = 1;
nodes = (
(349,687,c),
(354,679,l),
(339,637,l),
(304,639,o),
(266,646,o),
(200,646,cs),
(167,646,o),
(135,637,o),
(135,605,cs),
(135,578,o),
(160,562,o),
(240,486,cs),
(335,395,ls),
(373,356,o),
(403,306,o),
(403,251,cs),
(403,122,o),
(300,-9,o),
(169,-9,cs),
(65,-9,o),
(21,78,o),
(21,160,cs),
(21,263,o),
(102,365,o),
(179,442,c),
(141,477,o),
(87,527,o),
(87,565,cs),
(87,578,o),
(92,590,o),
(98,602,cs),
(133,673,o),
(196,694,o),
(269,694,cs),
(296,694,o),
(320,691,o)
);
},
{
closed = 1;
nodes = (
(203,422,c),
(133,350,o),
(98,288,o),
(98,212,cs),
(98,140,o),
(134,44,o),
(219,44,cs),
(294,44,o),
(339,126,o),
(339,209,cs),
(339,281,o),
(263,362,o)
);
}
);
width = 423;
},
{
layerId = "2927A78B-FE88-4016-B2C6-41428F7EDB2B";
shapes = (
{
closed = 1;
nodes = (
(194,390,l),
(147,350,o),
(124,293,o),
(124,236,cs),
(124,167,o),
(163,58,o),
(249,58,cs),
(324,58,o),
(367,91,o),
(367,169,cs),
(367,236,o),
(289,309,o),
(226,361,cs)
);
},
{
closed = 1;
nodes = (
(394,655,l),
(376,612,l),
(356,616,o),
(300,624,o),
(263,624,cs),
(224,624,o),
(164,621,o),
(164,577,cs),
(164,503,o),
(445,397,o),
(445,244,cs),
(445,108,o),
(325,-11,o),
(181,-11,cs),
(64,-11,o),
(21,73,o),
(21,163,cs),
(21,263,o),
(85,351,o),
(170,411,c),
(141,437,o),
(95,480,o),
(95,518,cs),
(95,561,o),
(119,599,o),
(152,629,cs),
(194,667,o),
(277,672,o),
(303,672,cs),
(320,672,o),
(361,667,o),
(388,664,c)
);
}
);
width = 463;
}
);
unicode = 948;
},
{
export = 0;
glyphname = epsilon;
layers = (
{
layerId = "21503E60-83E9-42CA-80F5-20ED7CD97021";
shapes = (
{
closed = 1;
nodes = (
(335,430,c),
(305,365,l),
(294,366,l),
(279,409,o),
(238,430,o),
(198,430,cs),
(158,430,o),
(112,402,o),
(112,353,cs),
(112,266,o),
(170,279,o),
(251,274,c),
(230,227,l),
(215,231,o),
(200,232,o),
(184,232,cs),
(139,232,o),
(91,205,o),
(91,151,cs),
(91,78,o),
(159,38,o),
(223,38,cs),
(269,38,o),
(317,66,o),
(356,98,c),
(365,96,l),
(373,82,l),
(320,25,o),
(248,-15,o),
(169,-15,cs),
(95,-15,o),
(21,30,o),
(21,109,cs),
(21,166,o),
(52,210,o),
(106,235,c),
(106,242,l),
(83,256,o),
(63,290,o),
(63,320,cs),
(63,416,o),
(145,471,o),
(230,471,cs),
(269,471,o),
(304,452,o)
);
}
);
width = 370;
},
{
layerId = "2927A78B-FE88-4016-B2C6-41428F7EDB2B";
shapes = (
{
closed = 1;
nodes = (
(283,286,c),
(251,222,l),
(238,226,o),
(200,233,o),
(186,233,cs),
(143,233,o),
(125,196,o),
(125,168,cs),
(125,97,o),
(189,61,o),
(260,61,cs),
(312,61,o),
(361,85,o),
(401,114,c),
(409,113,l),
(421,96,l),
(354,37,o),
(267,-16,o),
(175,-16,cs),
(96,-16,o),
(28,35,o),
(28,118,cs),
(28,162,o),
(54,217,o),
(120,239,c),
(119,245,l),
(79,258,o),
(51,301,o),
(51,343,cs),
(51,425,o),
(151,472,o),
(229,472,cs),
(277,472,o),
(326,459,o),
(360,427,c),
(317,352,l),
(306,352,l),
(282,402,o),
(250,436,o),
(199,436,cs),
(164,436,o),
(127,411,o),
(127,378,cs),
(127,299,o),
(217,286,o)
);
}
);
width = 417;
}
);
unicode = 949;
},
{
export = 0;
glyphname = zeta;
layers = (
{
layerId = "21503E60-83E9-42CA-80F5-20ED7CD97021";
shapes = (
{
closed = 1;
nodes = (
(363,-136,c),
(342,-124,l),
(357,-97,o),
(376,-65,o),
(376,-39,cs),
(376,-15,o),
(347,-1,o),
(325,-1,cs),
(284,-1,o),
(216,-10,o),
(190,-10,cs),
(66,-10,o),
(28,81,o),
(28,174,cs),
(28,333,o),
(162,504,o),
(292,613,c),
(291,620,l),
(200,628,l),
(175,632,o),
(149,638,o),
(131,655,c),
(131,656,o),
(131,657,o),
(133,659,c),
(161,694,l),
(163,695,o),
(164,695,o),
(166,695,cs),
(168,695,o),
(167,695,o),
(174,691,c),
(222,659,o),
(264,647,o),
(319,647,cs),
(345,647,o),
(374,650,o),
(408,655,c),
(408,636,l),
(253,587,o),
(105,391,o),
(105,210,cs),
(105,127,o),
(150,47,o),
(254,47,cs),
(294,47,o),
(331,53,o),
(355,53,cs),
(396,53,o),
(435,42,o),
(435,6,cs),
(435,-42,o),
(395,-96,o)
);
}
);
width = 421;
},
{
layerId = "2927A78B-FE88-4016-B2C6-41428F7EDB2B";
shapes = (
{
closed = 1;
nodes = (
(371,-129,c),
(349,-115,l),
(364,-93,o),
(377,-69,o),
(377,-42,cs),
(377,-16,o),
(354,-1,o),
(312,-1,cs),
(276,-1,o),
(215,-9,o),
(188,-9,cs),
(168,-9,o),
(105,1,o),
(80,24,cs),
(40,60,o),
(24,112,o),
(24,162,cs),
(24,323,o),
(163,482,o),
(299,580,c),
(297,589,l),
(247,591,o),
(169,600,o),
(121,623,c),
(119,634,l),
(156,674,l),
(167,674,l),
(210,643,o),
(266,617,o),
(367,617,cs),
(390,617,o),
(413,620,o),
(433,623,c),
(433,599,l),
(269,550,o),
(139,393,o),
(139,214,cs),
(139,172,o),
(146,128,o),
(178,97,cs),
(200,76,o),
(251,72,o),
(260,72,cs),
(291,72,o),
(340,78,o),
(373,78,cs),
(388,78,o),
(456,74,o),
(456,26,cs),
(456,-18,o),
(407,-82,o)
);
}
);
width = 451;
}
);
unicode = 950;
},
{
export = 0;
glyphname = eta;
layers = (
{
layerId = "21503E60-83E9-42CA-80F5-20ED7CD97021";
shapes = (
{
closed = 1;
nodes = (
(416,-199,l),
(407,-188,l),
(408,-161,o),
(408,20,o),
(408,125,cs),
(408,295,o),
(428,402,o),
(323,402,cs),
(276,402,o),
(228,373,o),
(187,344,c),
(185,320,o),
(185,237,o),
(185,184,cs),
(185,138,o),
(189,71,o),
(192,14,c),
(120,-11,l),
(111,-1,l),
(111,334,ls),
(111,366,o),
(109,408,o),
(72,408,cs),
(53,408,o),
(25,389,o),
(3,375,c),
(-13,393,l),
(23,422,o),
(72,463,o),
(117,463,cs),
(158,463,o),
(183,442,o),
(186,393,c),
(197,391,l),
(253,428,o),
(324,466,o),
(388,466,cs),
(492,466,o),
(481,381,o),
(481,204,cs),
(481,81,o),
(483,-42,o),
(498,-164,c)
);
}
);
width = 540;
},
{
layerId = "2927A78B-FE88-4016-B2C6-41428F7EDB2B";
shapes = (
{
closed = 1;
nodes = (
(524,-156,c),
(418,-197,l),
(404,-185,l),
(410,-79,o),
(410,61,o),
(410,184,cs),
(410,298,o),
(419,402,o),
(327,402,cs),
(285,402,o),
(248,386,o),
(214,365,c),
(214,291,o),
(216,53,o),
(218,31,c),
(115,-7,l),
(104,3,l),
(104,104,o),
(112,206,o),
(112,307,cs),
(112,344,o),
(113,396,o),
(73,396,cs),
(55,396,o),
(30,381,o),
(11,369,c),
(-5,392,l),
(45,434,o),
(90,470,o),
(149,470,cs),
(182,470,o),
(203,457,o),
(211,406,c),
(221,403,l),
(278,436,o),
(344,469,o),
(410,469,cs),
(441,469,o),
(466,456,o),
(487,437,cs),
(540,387,o),
(507,59,o)
);
}
);
width = 575;
}
);
unicode = 951;
},
{
export = 0;
glyphname = theta;
layers = (
{
layerId = "21503E60-83E9-42CA-80F5-20ED7CD97021";
shapes = (
{
closed = 1;
nodes = (
(214,-11,cs),
(61,-11,o),
(42,190,o),
(42,325,cs),
(42,385,o),
(43,447,o),
(62,505,cs),
(96,613,o),
(185,695,o),
(300,695,cs),
(453,695,o),
(469,502,o),
(469,368,cs),
(469,308,o),
(464,247,o),
(446,191,cs),
(414,88,o),
(323,-11,o)
);
},
{
closed = 1;
nodes = (
(125,370,l),
(379,370,l),
(384,377,l),
(378,481,o),
(373,648,o),
(255,648,cs),
(130,648,o),
(119,471,o),
(119,377,c)
);
},
{
closed = 1;
nodes = (
(381,333,l),
(126,333,l),
(119,326,l),
(119,215,o),
(146,47,o),
(271,47,cs),
(298,47,o),
(319,64,o),
(338,83,cs),
(385,131,o),
(389,240,o),
(389,325,c)
);
}
);
width = 500;
},
{
layerId = "2927A78B-FE88-4016-B2C6-41428F7EDB2B";
shapes = (
{
closed = 1;
nodes = (
(331,677,cs),
(490,677,o),
(523,516,o),
(523,398,cs),
(523,330,o),
(517,261,o),
(495,196,cs),
(458,83,o),
(362,-14,o),
(234,-14,cs),
(71,-14,o),
(44,176,o),
(44,310,cs),
(44,369,o),
(47,440,o),
(67,496,cs),
(108,610,o),
(208,677,o)
);
},
{
closed = 1;
nodes = (
(274,361,l),
(411,361,l),
(419,370,l),
(415,440,o),
(398,622,o),
(265,622,cs),
(140,622,o),
(137,457,o),
(137,371,c),
(148,361,l)
);
},
{
closed = 1;
nodes = (
(140,306,l),
(148,233,o),
(177,53,o),
(295,53,cs),
(417,53,o),
(421,182,o),
(421,308,c),
(412,317,l),
(150,317,l)
);
}
);
width = 555;
}
);
unicode = 952;
},
{
export = 0;
glyphname = iota;
layers = (
{
layerId = "21503E60-83E9-42CA-80F5-20ED7CD97021";
shapes = (
{
closed = 1;
nodes = (
(275,109,l),
(288,95,l),
(250,47,o),
(195,-9,o),
(138,-9,cs),
(86,-9,o),
(57,52,o),
(57,102,cs),
(57,449,l),
(138,474,l),
(149,464,l),
(134,375,o),
(132,285,o),
(132,195,cs),
(132,150,o),
(130,64,o),
(191,64,cs),
(219,64,o),
(246,88,o),
(266,108,c)
);
}
);
width = 278;
},
{
layerId = "2927A78B-FE88-4016-B2C6-41428F7EDB2B";
shapes = (
{
closed = 1;
nodes = (
(276,104,l),
(288,92,l),
(254,43,o),
(204,-11,o),
(134,-11,cs),
(63,-11,o),
(59,79,o),
(59,139,cs),
(59,239,o),
(59,338,o),
(54,438,c),
(157,469,l),
(170,461,l),
(165,362,o),
(163,264,o),
(163,165,cs),
(163,119,o),
(166,68,o),
(203,68,cs),
(230,68,o),
(250,86,o),
(268,104,c)
);
}
);
width = 284;
}
);
unicode = 953;
},
{
export = 0;
glyphname = kappa;
layers = (
{
layerId = "21503E60-83E9-42CA-80F5-20ED7CD97021";
shapes = (
{
closed = 1;
nodes = (
(450,441,l),
(449,426,l),
(360,388,o),
(247,323,o),
(204,272,c),
(203,270,o),
(203,268,o),
(203,266,c),
(207,255,l),
(287,180,o),
(373,112,o),
(462,48,c),
(461,34,l),
(394,-2,l),
(309,70,o),
(219,146,o),
(143,216,c),
(134,212,l),
(134,151,o),
(137,85,o),
(140,22,c),
(77,-4,l),
(61,1,l),
(62,64,o),
(62,128,o),
(62,191,cs),
(62,274,o),
(61,356,o),
(58,439,c),
(137,465,l),
(142,459,l),
(140,401,o),
(136,295,o),
(135,264,c),
(141,262,l),
(217,344,o),
(305,412,o),
(399,472,c)
);
}
);
width = 459;
},
{
layerId = "2927A78B-FE88-4016-B2C6-41428F7EDB2B";
shapes = (
{
closed = 1;
nodes = (
(434,467,c),
(509,437,l),
(509,427,l),
(429,393,o),
(314,330,o),
(251,278,c),
(328,193,o),
(415,113,o),
(501,49,c),
(502,40,l),
(395,-12,l),
(353,27,o),
(309,64,o),
(270,106,cs),
(175,208,l),
(166,201,l),
(166,141,o),
(167,85,o),
(169,25,c),
(72,-7,l),
(61,-1,l),
(61,75,o),
(63,150,o),
(63,226,cs),
(63,233,o),
(60,367,o),
(58,437,c),
(163,471,l),
(166,459,l),
(166,259,l),
(173,255,l),
(280,357,o),
(344,411,o)
);
}
);
width = 511;
}
);
unicode = 954;
},
{
export = 0;
glyphname = lambda;
layers = (
{
layerId = "21503E60-83E9-42CA-80F5-20ED7CD97021";
shapes = (
{
closed = 1;
nodes = (
(394,-4,l),
(248,380,ls),
(247,383,o),
(244,386,o),
(240,386,c),
(236,385,o),
(234,382,o),
(233,379,c),
(105,108,o),
(96,89,o),
(70,11,c),
(11,-6,l),
(-7,7,l),
(224,442,l),
(220,476,o),
(175,646,o),
(94,646,cs),
(79,646,o),
(47,639,o),
(24,634,c),
(16,659,l),
(60,675,o),
(110,690,o),
(162,690,cs),
(194,690,o),
(220,674,o),
(252,612,cs),
(274,568,o),
(304,461,o),
(328,396,cs),
(346,344,o),
(381,247,o),
(482,27,c),
(482,26,o),
(483,25,o),
(483,23,cs),
(483,19,o),
(481,15,o),
(481,15,c),
(408,-11,l)
);
}
);
width = 481;
},
{
layerId = "2927A78B-FE88-4016-B2C6-41428F7EDB2B";
shapes = (
{
closed = 1;
nodes = (
(259,374,l),
(173,206,o),
(135,125,o),
(102,20,c),
(6,-6,l),
(-2,7,l),
(34,79,o),
(73,150,o),
(115,220,cs),
(228,408,ls),
(233,416,o),
(239,427,o),
(243,436,c),
(226,484,o),
(206,530,o),
(199,545,cs),
(180,584,o),
(150,626,o),
(102,626,cs),
(80,626,o),
(56,622,o),
(33,615,c),
(23,638,l),
(72,659,o),
(124,679,o),
(179,679,cs),
(242,679,o),
(278,640,o),
(303,586,cs),
(331,525,o),
(352,461,o),
(377,398,cs),
(425,277,o),
(477,158,o),
(534,41,c),
(532,29,l),
(432,-8,l),
(408,3,l),
(362,131,o),
(318,247,o),
(266,374,c)
);
}
);
width = 536;
}
);
unicode = 955;
},
{
export = 0;
glyphname = nu;
layers = (
{
layerId = "21503E60-83E9-42CA-80F5-20ED7CD97021";
shapes = (
{
closed = 1;
nodes = (
(534,444,l),
(398,170,ls),
(374,122,o),
(352,74,o),
(332,24,c),
(276,-8,l),
(269,-1,l),
(257,80,o),
(241,161,o),
(214,238,cs),
(191,304,o),
(148,402,o),
(75,402,cs),
(44,402,o),
(23,394,o),
(8,384,c),
(-12,410,l),
(23,449,o),
(66,471,o),
(119,471,cs),
(149,471,o),
(182,460,o),
(203,439,cs),
(258,384,o),
(295,220,o),
(321,101,c),
(326,101,l),
(382,219,o),
(418,329,o),
(451,458,c),
(474,468,l),
(531,452,l)
);
}
);
width = 529;
},
{
layerId = "2927A78B-FE88-4016-B2C6-41428F7EDB2B";
shapes = (
{
closed = 1;
nodes = (
(496,471,l),
(567,445,l),
(572,432,l),
(563,413,o),
(554,393,o),
(544,373,cs),
(363,20,l),
(291,-6,l),
(281,-1,l),
(258,110,o),
(235,229,o),
(179,330,cs),
(170,346,o),
(132,405,o),
(79,405,cs),
(56,405,o),
(33,397,o),
(14,387,c),
(-5,416,l),
(35,452,o),
(92,473,o),
(148,473,cs),
(183,473,o),
(220,465,o),
(245,441,cs),
(311,376,o),
(337,236,o),
(359,131,c),
(368,130,l),
(422,256,l),
(445,322,o),
(463,389,o),
(471,456,c)
);
}
);
width = 575;
}
);
unicode = 957;
},
{
export = 0;
glyphname = xi;
layers = (
{
layerId = "21503E60-83E9-42CA-80F5-20ED7CD97021";
shapes = (
{
closed = 1;
nodes = (
(411,-137,c),
(390,-122,l),
(405,-97,o),
(424,-67,o),
(424,-43,cs),
(424,-1,o),
(379,8,o),
(345,8,cs),
(293,8,o),
(187,-8,o),
(159,-8,cs),
(76,-8,o),
(14,45,o),
(14,126,cs),
(14,234,o),
(105,311,o),
(199,340,c),
(199,346,l),
(148,357,o),
(91,381,o),
(91,451,cs),
(91,530,o),
(159,585,o),
(227,612,c),
(226,620,l),
(182,621,o),
(135,626,o),
(94,648,c),
(122,694,l),
(130,694,l),
(169,662,o),
(220,649,o),
(270,649,cs),
(301,649,o),
(336,654,o),
(368,660,c),
(368,632,l),
(281,622,o),
(169,588,o),
(169,478,cs),
(169,387,o),
(255,366,o),
(329,358,c),
(329,335,l),
(221,335,o),
(99,287,o),
(99,155,cs),
(99,86,o),
(152,47,o),
(218,47,cs),
(274,47,o),
(358,58,o),
(398,58,cs),
(430,58,o),
(485,49,o),
(485,7,cs),
(485,-40,o),
(443,-94,o)
);
}
);
width = 472;
},
{
layerId = "2927A78B-FE88-4016-B2C6-41428F7EDB2B";
shapes = (
{
closed = 1;
nodes = (
(432,-126,c),
(411,-110,l),
(426,-91,o),
(445,-64,o),
(445,-46,cs),
(445,-9,o),
(408,3,o),
(372,3,cs),
(319,3,o),
(240,-9,o),
(202,-9,cs),
(69,-9,o),
(16,61,o),
(16,145,cs),
(16,228,o),
(112,302,o),
(193,331,c),
(193,342,l),
(162,348,o),
(79,370,o),
(79,449,cs),
(79,524,o),
(164,570,o),
(233,596,c),
(231,606,l),
(185,608,o),
(100,610,o),
(78,640,c),
(122,689,l),
(130,688,l),
(170,650,o),
(232,635,o),
(292,635,cs),
(332,635,o),
(360,637,o),
(395,641,c),
(398,612,l),
(325,603,o),
(194,572,o),
(194,478,cs),
(194,374,o),
(287,369,o),
(369,367,c),
(369,341,l),
(304,336,o),
(237,323,o),
(190,280,cs),
(161,254,o),
(136,221,o),
(136,183,cs),
(136,154,o),
(138,123,o),
(161,103,cs),
(187,80,o),
(225,77,o),
(261,77,cs),
(309,77,o),
(382,88,o),
(418,88,cs),
(488,88,o),
(519,71,o),
(519,29,cs),
(519,-32,o),
(474,-82,o)
);
}
);
width = 516;
}
);
unicode = 958;
},
{
export = 0;
glyphname = pi;
layers = (
{
layerId = "21503E60-83E9-42CA-80F5-20ED7CD97021";
shapes = (
{
closed = 1;
nodes = (
(171,460,cs),
(494,460,ls),
(533,460,o),
(571,470,o),
(605,488,c),
(613,481,l),
(578,422,l),
(544,406,o),
(507,395,o),
(469,394,c),
(462,387,l),
(460,352,o),
(456,316,o),
(456,282,cs),
(456,192,o),
(454,63,o),
(519,63,cs),
(537,63,o),
(553,69,o),
(568,79,c),
(574,77,l),
(584,60,l),
(553,32,o),
(512,0,o),
(471,0,cs),
(452,0,o),
(430,0,o),
(418,12,cs),
(389,39,o),
(387,102,o),
(387,147,cs),
(387,228,o),
(393,308,o),
(403,388,c),
(397,394,l),
(254,394,l),
(227,264,o),
(182,133,o),
(138,5,c),
(127,-5,l),
(72,10,l),
(71,23,l),
(138,139,o),
(192,282,o),
(217,394,c),
(143,394,ls),
(94,394,o),
(68,384,o),
(45,325,cs),
(27,279,l),
(6,288,l),
(34,401,l),
(52,459,o),
(113,460,o)
);
}
);
width = 596;
},
{
layerId = "2927A78B-FE88-4016-B2C6-41428F7EDB2B";
shapes = (
{
closed = 1;
nodes = (
(162,485,cs),
(534,485,ls),
(580,485,o),
(633,493,o),
(660,523,c),
(676,511,l),
(652,461,o),
(617,388,o),
(587,388,cs),
(509,388,l),
(504,344,o),
(500,294,o),
(500,258,cs),
(500,174,o),
(502,81,o),
(573,81,cs),
(589,81,o),
(611,94,o),
(625,107,c),
(635,105,l),
(645,85,l),
(606,48,o),
(557,1,o),
(498,1,cs),
(390,1,o),
(395,96,o),
(395,183,cs),
(395,248,o),
(401,315,o),
(409,380,c),
(402,388,l),
(274,388,l),
(249,254,o),
(212,131,o),
(158,4,c),
(145,-4,l),
(67,8,l),
(66,21,l),
(80,40,o),
(136,125,o),
(171,200,cs),
(191,243,o),
(212,333,o),
(220,388,c),
(126,388,ls),
(83,388,o),
(53,325,o),
(37,279,c),
(9,291,l),
(22,355,o),
(46,450,o),
(70,468,cs),
(92,485,o),
(130,485,o)
);
}
);
width = 667;
}
);
unicode = 960;
},
{
export = 0;
glyphname = rho;
layers = (
{
layerId = "21503E60-83E9-42CA-80F5-20ED7CD97021";
shapes = (
{
closed = 1;
nodes = (
(77,-189,l),
(57,-181,l),
(51,-77,o),
(46,28,o),
(46,133,cs),
(46,253,o),
(43,358,o),
(119,425,cs),
(160,461,o),
(217,477,o),
(271,477,cs),
(322,477,o),
(369,459,o),
(406,423,cs),
(446,383,o),
(455,309,o),
(455,251,cs),
(455,133,o),
(371,-3,o),
(251,-3,cs),
(197,-3,o),
(152,25,o),
(119,75,c),
(112,74,l),
(115,-6,o),
(119,-78,o),
(139,-156,c),
(139,-157,o),
(135,-165,o),
(133,-169,c)
);
},
{
closed = 1;
nodes = (
(117,231,cs),
(117,154,o),
(138,47,o),
(222,47,cs),
(326,47,o),
(367,147,o),
(367,234,cs),
(367,324,o),
(347,441,o),
(256,441,cs),
(145,441,o),
(117,321,o)
);
}
);
width = 484;
},
{
layerId = "2927A78B-FE88-4016-B2C6-41428F7EDB2B";
shapes = (
{
closed = 1;
nodes = (
(166,-166,l),
(74,-196,l),
(60,-193,o),
(49,-188,o),
(49,-181,cs),
(45,-68,o),
(42,55,o),
(42,162,cs),
(42,417,o),
(158,474,o),
(292,474,cs),
(350,474,o),
(409,459,o),
(451,421,cs),
(495,381,o),
(504,325,o),
(504,270,cs),
(504,91,o),
(410,-2,o),
(292,-2,cs),
(243,-2,o),
(191,14,o),
(153,55,c),
(144,53,l),
(144,-15,o),
(158,-88,o),
(174,-154,c)
);
},
{
closed = 1;
nodes = (
(159,133,cs),
(173,85,o),
(207,53,o),
(260,53,cs),
(369,53,o),
(382,177,o),
(382,266,cs),
(382,334,o),
(365,439,o),
(284,439,cs),
(176,439,o),
(148,318,o),
(148,222,cs),
(148,198,o),
(150,160,o)
);
}
);
width = 534;
}
);
unicode = 961;
},
{
export = 0;
glyphname = sigma;
layers = (
{
layerId = "21503E60-83E9-42CA-80F5-20ED7CD97021";
shapes = (
{
closed = 1;
nodes = (
(210,462,cs),
(552,476,l),
(557,466,l),
(543,409,l),
(536,403,l),
(472,416,o),
(403,424,o),
(337,432,c),
(336,426,l),
(403,381,o),
(438,311,o),
(438,228,cs),
(438,96,o),
(351,-5,o),
(206,-5,cs),
(77,-5,o),
(31,112,o),
(31,221,cs),
(31,339,o),
(84,457,o)
);
},
{
closed = 1;
nodes = (
(229,429,cs),
(141,429,o),
(114,327,o),
(114,253,cs),
(114,218,o),
(117,184,o),
(128,150,cs),
(143,102,o),
(183,36,o),
(243,36,cs),
(339,36,o),
(359,147,o),
(359,216,cs),
(359,307,o),
(333,429,o)
);
}
);
width = 543;
},
{
layerId = "2927A78B-FE88-4016-B2C6-41428F7EDB2B";
shapes = (
{
closed = 1;
nodes = (
(271,425,cs),
(229,425,o),
(158,406,o),
(158,228,cs),
(158,154,o),
(169,32,o),
(267,32,cs),
(367,32,o),
(386,154,o),
(386,233,cs),
(386,303,o),
(377,425,o)
);
},
{
closed = 1;
nodes = (
(619,475,c),
(627,471,l),
(605,393,l),
(595,386,l),
(398,421,l),
(392,414,l),
(468,370,o),
(493,305,o),
(493,231,cs),
(493,166,o),
(478,99,o),
(427,53,cs),
(384,14,o),
(325,-11,o),
(265,-11,cs),
(205,-11,o),
(142,-2,o),
(98,38,cs),
(45,86,o),
(32,157,o),
(32,224,cs),
(32,289,o),
(40,360,o),
(92,408,cs),
(140,452,o),
(204,464,o),
(271,464,cs),
(384,464,o),
(506,472,o)
);
}
);
width = 625;
}
);
unicode = 963;
},
{
export = 0;
glyphname = tau;
layers = (
{
layerId = "21503E60-83E9-42CA-80F5-20ED7CD97021";
shapes = (
{
closed = 1;
nodes = (
(130,461,cs),
(384,461,ls),
(422,461,o),
(460,468,o),
(494,484,c),
(507,475,l),
(464,408,l),
(437,402,o),
(409,398,o),
(381,398,cs),
(313,398,l),
(304,390,l),
(302,356,o),
(293,279,o),
(293,225,cs),
(293,191,o),
(292,57,o),
(354,57,cs),
(373,57,o),
(399,72,o),
(415,82,c),
(424,80,l),
(433,66,l),
(394,29,o),
(341,-9,o),
(298,-9,cs),
(230,-9,o),
(220,79,o),
(220,142,cs),
(220,225,o),
(228,308,o),
(235,391,c),
(228,398,l),
(153,398,ls),
(125,398,o),
(88,396,o),
(68,376,cs),
(55,362,o),
(38,316,o),
(25,282,c),
(3,285,l),
(7,304,o),
(29,406,o),
(42,426,cs),
(62,456,o),
(101,461,o)
);
}
);
width = 486;
},
{
layerId = "2927A78B-FE88-4016-B2C6-41428F7EDB2B";
shapes = (
{
closed = 1;
nodes = (
(476,372,cs),
(354,372,l),
(343,361,l),
(337,320,o),
(330,261,o),
(330,223,cs),
(330,167,o),
(337,69,o),
(406,69,cs),
(420,69,o),
(441,80,o),
(459,93,c),
(469,92,l),
(479,77,l),
(439,37,o),
(383,-7,o),
(327,-7,cs),
(227,-7,o),
(220,74,o),
(220,127,cs),
(220,220,o),
(232,286,o),
(240,361,c),
(231,371,l),
(157,371,ls),
(135,371,o),
(96,368,o),
(79,353,cs),
(56,332,o),
(44,298,o),
(34,268,c),
(8,276,l),
(16,315,o),
(28,370,o),
(33,391,cs),
(46,445,o),
(91,460,o),
(138,460,cs),
(433,460,ls),
(475,460,o),
(517,472,o),
(549,497,c),
(561,488,l),
(552,450,o),
(504,372,o)
);
}
);
width = 555;
}
);
unicode = 964;
},
{
export = 0;
glyphname = upsilon;
layers = (
{
layerId = "21503E60-83E9-42CA-80F5-20ED7CD97021";
shapes = (
{
closed = 1;
nodes = (
(387,398,c),
(383,416,l),
(425,467,l),
(445,471,l),
(490,423,o),
(519,362,o),
(519,296,cs),
(519,140,o),
(377,-12,o),
(221,-12,cs),
(140,-12,o),
(113,54,o),
(113,119,cs),
(113,330,ls),
(113,371,o),
(105,414,o),
(75,414,cs),
(49,414,o),
(25,396,o),
(4,379,c),
(-12,401,l),
(26,435,o),
(75,472,o),
(125,472,cs),
(181,472,o),
(191,422,o),
(191,376,cs),
(191,310,o),
(186,250,o),
(186,181,cs),
(186,109,o),
(213,51,o),
(280,51,cs),
(409,51,o),
(444,177,o),
(444,253,cs),
(444,307,o),
(426,360,o)
);
}
);
width = 543;
},
{
layerId = "2927A78B-FE88-4016-B2C6-41428F7EDB2B";
shapes = (
{
closed = 1;
nodes = (
(400,399,c),
(397,411,l),
(480,472,l),
(496,466,l),
(547,422,o),
(561,357,o),
(561,295,cs),
(561,152,o),
(442,-2,o),
(279,-2,cs),
(179,-2,o),
(116,66,o),
(116,145,c),
(117,149,o),
(114,252,o),
(114,305,cs),
(114,347,o),
(105,392,o),
(71,392,cs),
(51,392,o),
(29,381,o),
(9,371,c),
(-6,390,l),
(43,423,o),
(112,471,o),
(150,471,cs),
(217,471,o),
(218,396,o),
(218,371,cs),
(218,240,ls),
(218,141,o),
(255,65,o),
(347,65,cs),
(444,65,o),
(476,151,o),
(476,230,cs),
(476,293,o),
(446,352,o)
);
}
);
width = 590;
}
);
unicode = 965;
},
{
export = 0;
glyphname = phi;
layers = (
{
layerId = "21503E60-83E9-42CA-80F5-20ED7CD97021";
shapes = (
{
closed = 1;
nodes = (
(365,-156,c),
(293,-192,l),
(276,-182,l),
(277,-125,o),
(281,-70,o),
(281,-13,c),
(273,-4,l),
(76,1,o),
(26,97,o),
(26,212,cs),
(26,284,o),
(50,354,o),
(100,405,cs),
(147,452,o),
(230,473,o),
(272,473,c),
(281,482,l),
(281,539,o),
(279,596,o),
(275,652,c),
(357,694,l),
(364,686,l),
(359,619,o),
(356,551,o),
(356,483,c),
(364,473,l),
(549,473,o),
(619,383,o),
(619,259,cs),
(619,192,o),
(598,123,o),
(550,75,cs),
(500,25,o),
(433,4,o),
(363,2,c),
(354,-8,l),
(354,-57,o),
(358,-107,o)
);
},
{
closed = 1;
nodes = (
(362,33,l),
(475,40,o),
(537,156,o),
(537,261,cs),
(537,312,o),
(526,364,o),
(490,401,cs),
(456,435,o),
(410,442,o),
(363,443,c),
(354,434,l),
(354,42,l)
);
},
{
closed = 1;
nodes = (
(272,441,l),
(241,441,o),
(192,428,o),
(162,398,cs),
(121,357,o),
(109,298,o),
(109,242,cs),
(109,143,o),
(163,29,o),
(273,29,c),
(281,38,l),
(281,433,l)
);
}
);
width = 644;
},
{
layerId = "2927A78B-FE88-4016-B2C6-41428F7EDB2B";
shapes = (
{
closed = 1;
nodes = (
(323,-196,l),
(309,-185,l),
(313,-130,o),
(317,-73,o),
(317,-16,c),
(308,-7,l),
(87,-7,o),
(27,97,o),
(27,227,cs),
(27,291,o),
(43,358,o),
(94,404,cs),
(124,431,o),
(180,469,o),
(307,469,c),
(316,479,l),
(315,532,o),
(312,584,o),
(311,637,c),
(416,672,l),
(424,663,l),
(422,637,o),
(422,561,o),
(421,479,c),
(431,469,l),
(477,468,o),
(525,469,o),
(584,454,cs),
(695,424,o),
(731,345,o),
(731,259,cs),
(731,186,o),
(708,114,o),
(651,62,cs),
(589,5,o),
(504,-7,o),
(430,-7,c),
(422,-16,l),
(422,-64,o),
(422,-111,o),
(423,-159,c)
);
},
{
closed = 1;
nodes = (
(306,437,l),
(263,437,o),
(232,421,o),
(199,391,cs),
(158,353,o),
(154,292,o),
(154,236,cs),
(154,126,o),
(199,28,o),
(308,28,c),
(316,38,l),
(316,427,l)
);
},
{
closed = 1;
nodes = (
(430,28,l),
(568,28,o),
(604,148,o),
(604,248,cs),
(604,435,o),
(493,437,o),
(431,437,c),
(421,428,l),
(421,36,l)
);
}
);
width = 756;
}
);
unicode = 966;
},
{
export = 0;
glyphname = chi;
layers = (
{
layerId = "21503E60-83E9-42CA-80F5-20ED7CD97021";
shapes = (
{
closed = 1;
nodes = (
(294,206,l),
(481,456,l),
(501,460,l),
(534,428,l),
(535,421,l),
(356,215,ls),
(340,196,o),
(323,177,o),
(308,156,c),
(361,38,o),
(431,-132,o),
(493,-132,cs),
(517,-132,o),
(541,-128,o),
(562,-117,c),
(570,-140,l),
(527,-165,o),
(473,-197,o),
(432,-197,cs),
(366,-197,o),
(324,-64,o),
(262,83,c),
(252,83,l),
(194,-5,o),
(134,-94,o),
(98,-185,c),
(81,-191,l),
(31,-161,l),
(99,-61,o),
(168,38,o),
(242,134,c),
(242,135,o),
(168,277,o),
(133,349,cs),
(119,377,o),
(97,411,o),
(68,411,cs),
(50,411,o),
(22,389,o),
(3,374,c),
(-12,395,l),
(51,443,ls),
(70,458,o),
(95,466,o),
(120,466,cs),
(157,466,o),
(180,428,o),
(194,398,cs),
(284,206,l)
);
}
);
width = 525;
},
{
layerId = "2927A78B-FE88-4016-B2C6-41428F7EDB2B";
shapes = (
{
closed = 1;
nodes = (
(597,-116,c),
(602,-138,l),
(555,-162,o),
(502,-193,o),
(454,-193,cs),
(367,-193,o),
(332,-86,o),
(259,71,c),
(248,71,l),
(224,41,o),
(167,-44,o),
(110,-191,c),
(97,-197,l),
(14,-162,l),
(82,-62,o),
(156,32,o),
(232,124,c),
(202,190,o),
(165,270,o),
(150,299,cs),
(130,338,o),
(103,386,o),
(69,386,cs),
(57,386,o),
(40,378,o),
(13,359,c),
(-5,381,l),
(36,417,o),
(91,462,o),
(143,462,cs),
(188,462,o),
(210,417,o),
(226,385,c),
(229,381,o),
(271,291,o),
(303,222,c),
(313,222,l),
(497,464,l),
(512,470,l),
(567,436,l),
(565,425,l),
(493,334,o),
(405,255,o),
(328,167,c),
(397,21,o),
(460,-122,o),
(544,-122,cs),
(562,-122,o),
(580,-119,o)
);
}
);
width = 563;
}
);
unicode = 967;
},
{
export = 0;
glyphname = psi;
layers = (
{
layerId = "21503E60-83E9-42CA-80F5-20ED7CD97021";
shapes = (
{
closed = 1;
nodes = (
(352,-182,l),
(352,-6,l),
(345,2,l),
(155,2,o),
(113,66,o),
(113,172,cs),
(113,325,ls),
(113,355,o),
(107,415,o),
(69,415,cs),
(50,415,o),
(25,398,o),
(5,385,c),
(-12,406,l),
(27,437,o),
(76,472,o),
(123,472,cs),
(152,472,o),
(187,474,o),
(187,358,cs),
(187,229,ls),
(187,149,o),
(199,108,o),
(228,80,cs),
(250,59,o),
(301,36,o),
(345,36,c),
(352,42,l),
(352,357,ls),
(352,453,o),
(346,561,o),
(340,662,c),
(420,695,l),
(427,688,l),
(425,658,o),
(425,494,o),
(425,396,cs),
(425,44,l),
(431,37,l),
(494,42,o),
(547,96,o),
(561,114,cs),
(597,158,o),
(608,211,o),
(608,267,cs),
(608,321,o),
(581,370,o),
(545,409,c),
(548,422,l),
(592,470,l),
(613,467,l),
(654,416,o),
(679,352,o),
(679,286,cs),
(679,147,o),
(571,33,o),
(432,4,c),
(425,-4,l),
(425,-54,o),
(427,-105,o),
(434,-154,c),
(358,-189,l)
);
}
);
width = 704;
},
{
layerId = "2927A78B-FE88-4016-B2C6-41428F7EDB2B";
shapes = (
{
closed = 1;
nodes = (
(461,672,l),
(469,663,l),
(465,615,o),
(465,407,o),
(465,279,cs),
(465,43,l),
(474,35,l),
(610,56,o),
(644,155,o),
(644,248,cs),
(644,303,o),
(617,353,o),
(573,390,c),
(573,404,l),
(640,465,l),
(640,465,o),
(659,459,o),
(664,458,c),
(710,414,o),
(739,356,o),
(739,295,cs),
(739,217,o),
(709,136,o),
(648,81,cs),
(599,36,o),
(540,15,o),
(473,2,c),
(465,-8,l),
(466,-59,o),
(466,-108,o),
(467,-159,c),
(367,-196,l),
(354,-185,l),
(358,-129,o),
(360,-71,o),
(362,-13,c),
(354,-5,l),
(141,-5,o),
(107,78,o),
(107,189,cs),
(107,224,o),
(110,259,o),
(110,294,cs),
(110,360,o),
(103,371,o),
(92,381,cs),
(84,388,o),
(73,391,o),
(62,391,cs),
(44,391,o),
(23,380,o),
(7,371,c),
(-6,390,l),
(39,424,o),
(100,471,o),
(152,471,cs),
(167,471,o),
(182,467,o),
(194,457,cs),
(207,446,o),
(216,428,o),
(216,352,cs),
(216,312,o),
(213,271,o),
(213,231,cs),
(213,124,o),
(248,28,o),
(355,28,c),
(363,36,l),
(363,266,ls),
(363,390,o),
(358,513,o),
(355,637,c)
);
}
);
width = 763;
}
);
unicode = 968;
},
{
export = 0;
glyphname = omega;
layers = (
{
layerId = "21503E60-83E9-42CA-80F5-20ED7CD97021";
shapes = (
{
closed = 1;
nodes = (
(612,421,l),
(654,469,l),
(668,472,l),
(719,432,o),
(744,370,o),
(744,306,cs),
(744,164,o),
(639,-4,o),
(493,-4,cs),
(436,-4,o),
(408,10,o),
(372,87,c),
(360,87,l),
(315,41,o),
(258,-13,o),
(188,-13,cs),
(84,-13,o),
(30,85,o),
(30,176,cs),
(30,293,o),
(69,419,o),
(204,466,c),
(220,452,l),
(142,392,o),
(112,323,o),
(112,232,cs),
(112,152,o),
(142,50,o),
(232,50,cs),
(266,50,o),
(297,68,o),
(321,92,cs),
(354,125,o),
(358,196,o),
(358,249,cs),
(358,438,l),
(433,466,l),
(439,459,l),
(430,400,o),
(430,329,o),
(430,264,cs),
(430,179,o),
(444,61,o),
(538,61,cs),
(632,61,o),
(677,157,o),
(677,244,cs),
(677,305,o),
(657,368,o),
(609,409,c)
);
}
);
width = 771;
},
{
layerId = "2927A78B-FE88-4016-B2C6-41428F7EDB2B";
shapes = (
{
closed = 1;
nodes = (
(667,432,l),
(735,495,l),
(755,499,l),
(818,467,o),
(838,378,o),
(838,315,cs),
(838,166,o),
(732,-7,o),
(556,-7,cs),
(491,-7,o),
(440,2,o),
(404,74,c),
(389,74,l),
(338,29,o),
(282,-9,o),
(204,-9,cs),
(77,-9,o),
(29,105,o),
(29,198,cs),
(29,317,o),
(77,457,o),
(225,496,c),
(242,476,l),
(160,435,o),
(128,354,o),
(128,275,cs),
(128,191,o),
(172,73,o),
(284,73,cs),
(348,73,o),
(383,128,o),
(383,207,cs),
(383,369,ls),
(383,381,o),
(380,431,o),
(378,464,c),
(485,496,l),
(495,486,l),
(489,416,o),
(485,346,o),
(485,276,cs),
(485,171,o),
(510,67,o),
(613,67,cs),
(712,67,o),
(752,156,o),
(752,232,cs),
(752,300,o),
(726,366,o),
(670,413,c)
);
}
);
width = 866;
}
);
unicode = 969;
},
{
export = 0;
glyphname = theta1;
layers = (
{
layerId = "21503E60-83E9-42CA-80F5-20ED7CD97021";
shapes = (
{
closed = 1;
nodes = (
(397,370,l),
(397,422,o),
(391,472,o),
(375,521,cs),
(356,579,o),
(316,659,o),
(255,659,cs),
(211,659,o),
(178,620,o),
(178,577,cs),
(178,462,o),
(281,375,o),
(392,365,c)
);
},
{
closed = 1;
nodes = (
(114,118,cs),
(114,228,ls),
(114,264,o),
(110,312,o),
(70,312,cs),
(48,312,o),
(23,297,o),
(1,284,c),
(-10,304,l),
(28,337,o),
(80,372,o),
(130,372,cs),
(169,372,o),
(188,336,o),
(188,297,cs),
(188,189,ls),
(188,71,o),
(201,34,o),
(257,34,cs),
(382,34,o),
(401,223,o),
(401,326,c),
(397,331,l),
(265,344,o),
(136,416,o),
(136,551,cs),
(136,635,o),
(201,698,o),
(285,698,cs),
(319,698,o),
(351,682,o),
(375,658,cs),
(451,582,o),
(471,466,o),
(471,367,c),
(475,361,l),
(528,361,l),
(528,334,l),
(476,334,l),
(472,330,l),
(472,277,o),
(465,230,o),
(448,180,cs),
(413,80,o),
(322,-14,o),
(218,-14,cs),
(145,-14,o),
(114,42,o)
);
}
);
width = 526;
},
{
layerId = "2927A78B-FE88-4016-B2C6-41428F7EDB2B";
shapes = (
{
closed = 1;
nodes = (
(5,273,c),
(-8,293,l),
(41,327,o),
(104,370,o),
(145,370,cs),
(208,370,o),
(205,307,o),
(205,237,cs),
(205,149,o),
(227,66,o),
(319,66,cs),
(368,66,o),
(441,98,o),
(452,307,c),
(444,315,l),
(339,335,l),
(239,364,o),
(167,429,o),
(167,521,cs),
(167,607,o),
(232,676,o),
(331,676,cs),
(375,676,o),
(418,661,o),
(449,633,cs),
(536,554,o),
(540,449,o),
(540,351,c),
(546,342,l),
(563,342,o),
(592,341,o),
(604,341,c),
(604,306,l),
(575,306,o),
(558,306,o),
(543,307,c),
(534,300,l),
(514,137,o),
(398,-8,o),
(255,-8,cs),
(115,-8,o),
(99,113,o),
(99,204,cs),
(99,278,o),
(81,291,o),
(53,291,cs),
(38,291,o),
(20,282,o)
);
},
{
closed = 1;
nodes = (
(453,359,l),
(453,377,ls),
(453,464,o),
(422,633,o),
(305,633,cs),
(269,633,o),
(235,611,o),
(235,565,cs),
(235,458,o),
(315,377,o),
(446,353,c)
);
}
);
width = 602;
}
);
unicode = 977;
},
{
export = 0;
glyphname = phi1;
layers = (
{
layerId = "21503E60-83E9-42CA-80F5-20ED7CD97021";
shapes = (
{
closed = 1;
nodes = (
(252,-183,l),
(254,-15,l),
(247,-8,l),
(188,-2,o),
(138,8,o),
(86,68,cs),
(41,120,o),
(23,180,o),
(23,249,cs),
(23,355,o),
(107,438,o),
(206,467,c),
(218,445,l),
(134,406,o),
(103,348,o),
(103,267,cs),
(103,200,o),
(116,121,o),
(164,74,cs),
(201,37,o),
(228,28,o),
(247,28,c),
(254,35,l),
(254,240,ls),
(254,301,o),
(262,366,o),
(320,416,cs),
(363,453,o),
(414,464,o),
(456,464,cs),
(567,464,o),
(617,373,o),
(617,277,cs),
(617,208,o),
(598,139,o),
(549,90,cs),
(491,32,o),
(414,4,o),
(333,-7,c),
(326,-15,l),
(326,-69,o),
(329,-122,o),
(334,-176,c),
(265,-197,l)
);
},
{
closed = 1;
nodes = (
(333,26,l),
(387,28,o),
(436,52,o),
(474,91,cs),
(519,137,o),
(534,211,o),
(534,277,cs),
(534,305,o),
(519,425,o),
(437,425,cs),
(355,425,o),
(326,356,o),
(326,265,cs),
(326,33,l)
);
}
);
width = 642;
},
{
layerId = "2927A78B-FE88-4016-B2C6-41428F7EDB2B";
shapes = (
{
closed = 1;
nodes = (
(272,-201,l),
(257,-197,l),
(260,-154,o),
(262,-60,o),
(262,-9,c),
(256,-1,l),
(90,6,o),
(24,116,o),
(24,227,cs),
(24,359,o),
(127,446,o),
(261,472,c),
(271,448,l),
(173,418,o),
(140,345,o),
(140,266,cs),
(140,190,o),
(161,52,o),
(256,36,c),
(262,42,l),
(262,270,ls),
(262,331,o),
(285,365,o),
(325,403,cs),
(358,434,o),
(424,468,o),
(499,468,cs),
(629,468,o),
(676,366,o),
(676,273,cs),
(676,200,o),
(651,128,o),
(594,76,cs),
(535,22,o),
(455,-1,o),
(373,-3,c),
(367,-10,l),
(367,-62,o),
(370,-138,o),
(372,-171,c)
);
},
{
closed = 1;
nodes = (
(373,30,l),
(398,30,o),
(413,31,o),
(433,41,cs),
(531,88,o),
(557,168,o),
(557,255,cs),
(557,323,o),
(520,421,o),
(457,421,cs),
(365,421,o),
(367,323,o),
(367,256,cs),
(367,38,l)
);
}
);
width = 702;
}
);
unicode = 981;
},
{
export = 0;
glyphname = pi1;
layers = (
{
layerId = "21503E60-83E9-42CA-80F5-20ED7CD97021";
shapes = (
{
closed = 1;
nodes = (
(437,330,l),
(445,318,l),
(445,164,ls),
(445,101,o),
(490,56,o),
(547,56,cs),
(644,56,o),
(682,165,o),
(682,249,cs),
(682,307,o),
(669,353,o),
(618,407,cs),
(559,468,o),
(449,477,o),
(362,477,cs),
(162,477,o),
(116,437,o),
(48,369,c),
(33,385,l),
(66,424,o),
(96,461,o),
(141,489,cs),
(183,515,o),
(246,541,o),
(401,541,cs),
(608,541,o),
(749,467,o),
(749,306,cs),
(749,164,o),
(637,-12,o),
(503,-12,cs),
(445,-12,o),
(396,25,o),
(376,83,c),
(368,84,l),
(319,31,o),
(256,-8,o),
(183,-8,cs),
(78,-8,o),
(40,106,o),
(40,194,cs),
(40,278,o),
(90,336,o),
(164,387,c),
(174,366,l),
(136,329,o),
(119,277,o),
(119,224,cs),
(119,151,o),
(148,47,o),
(231,47,cs),
(335,47,o),
(361,155,o),
(361,236,cs),
(361,258,o),
(358,280,o),
(356,302,c)
);
}
);
width = 775;
},
{
layerId = "2927A78B-FE88-4016-B2C6-41428F7EDB2B";
shapes = (
{
closed = 1;
nodes = (
(214,381,c),
(224,367,l),
(222,364,l),
(159,334,o),
(123,280,o),
(123,219,cs),
(123,147,o),
(167,65,o),
(255,65,cs),
(359,65,o),
(362,150,o),
(361,235,cs),
(360,314,l),
(454,346,l),
(469,330,l),
(467,298,o),
(464,237,o),
(464,234,cs),
(466,164,o),
(483,60,o),
(571,60,cs),
(674,60,o),
(722,145,o),
(722,227,cs),
(722,290,o),
(701,353,o),
(652,398,cs),
(582,462,o),
(462,473,o),
(362,473,cs),
(255,473,o),
(124,450,o),
(56,375,c),
(39,389,l),
(144,531,o),
(276,547,o),
(418,547,cs),
(673,547,o),
(808,456,o),
(808,291,cs),
(808,110,o),
(664,-11,o),
(518,-11,cs),
(459,-11,o),
(406,17,o),
(382,66,c),
(371,69,l),
(322,22,o),
(267,-11,o),
(198,-11,cs),
(88,-11,o),
(27,70,o),
(27,162,cs),
(27,262,o),
(102,350,o)
);
}
);
width = 834;
}
);
unicode = 982;
},
{
glyphname = zero;
layers = (
{
layerId = "21503E60-83E9-42CA-80F5-20ED7CD97021";
shapes = (
{
closed = 1;
nodes = (
(290,704,c),
(411,627,o),
(460,489,o),
(460,356,cs),
(460,197,o),
(391,-14,o),
(207,-14,cs),
(62,-14,o),
(34,188,o),
(34,303,cs),
(34,423,o),
(79,544,o),
(164,629,cs),
(197,662,o),
(246,686,o)
);
},
{
closed = 1;
nodes = (
(234,640,c),
(146,585,o),
(101,472,o),
(101,371,cs),
(101,313,o),
(106,254,o),
(122,199,cs),
(142,131,o),
(188,52,o),
(252,52,cs),
(374,52,o),
(398,188,o),
(398,285,cs),
(398,375,o),
(374,460,o),
(330,539,cs),
(323,551,o),
(279,621,o)
);
}
);
width = 500;
},
{
layerId = "2927A78B-FE88-4016-B2C6-41428F7EDB2B";
shapes = (
{
closed = 1;
nodes = (
(325,716,c),
(481,647,o),
(513,482,o),
(513,344,cs),
(513,221,o),
(448,-15,o),
(251,-15,cs),
(88,-15,o),
(40,160,o),
(40,285,cs),
(40,410,o),
(73,539,o),
(174,626,cs),
(218,664,o),
(270,703,o)
);
},
{
closed = 1;
nodes = (
(256,632,c),
(161,584,o),
(133,479,o),
(133,384,cs),
(133,328,o),
(140,272,o),
(159,218,cs),
(183,151,o),
(236,67,o),
(312,67,cs),
(389,67,o),
(436,135,o),
(436,274,cs),
(436,368,o),
(422,464,o),
(365,543,cs),
(338,580,o),
(296,621,o)
);
}
);
width = 550;
}
);
unicode = 48;
},
{
glyphname = one;
layers = (
{
layerId = "21503E60-83E9-42CA-80F5-20ED7CD97021";
shapes = (
{
closed = 1;
nodes = (
(308,712,l),
(314,700,l),
(309,611,o),
(307,521,o),
(307,432,cs),
(307,296,o),
(307,98,o),
(310,22,c),
(226,-5,l),
(214,0,l),
(219,139,o),
(222,279,o),
(222,419,cs),
(222,530,o),
(237,612,o),
(175,612,cs),
(92,612,l),
(92,639,l)
);
}
);
width = 500;
},
{
layerId = "2927A78B-FE88-4016-B2C6-41428F7EDB2B";
shapes = (
{
closed = 1;
nodes = (
(70,626,l),
(341,715,l),
(357,697,l),
(346,560,o),
(342,422,o),
(342,284,cs),
(342,200,o),
(342,96,o),
(345,32,c),
(238,-9,l),
(217,5,l),
(230,123,o),
(237,242,o),
(237,361,cs),
(237,428,o),
(236,494,o),
(231,561,cs),
(230,578,o),
(215,594,o),
(198,594,cs),
(70,594,l)
);
}
);
width = 550;
}
);
unicode = 49;
},
{
glyphname = two;
layers = (
{
layerId = "21503E60-83E9-42CA-80F5-20ED7CD97021";
shapes = (
{
closed = 1;
nodes = (
(472,80,l),
(449,2,l),
(12,2,l),
(12,18,l),
(69,76,o),
(125,135,o),
(178,197,cs),
(256,288,o),
(334,389,o),
(334,508,cs),
(334,560,o),
(306,640,o),
(221,640,cs),
(166,640,o),
(122,608,o),
(84,576,c),
(64,595,l),
(118,655,o),
(191,708,o),
(275,708,cs),
(363,708,o),
(426,640,o),
(426,553,cs),
(426,499,o),
(404,451,o),
(378,405,cs),
(319,298,o),
(231,197,o),
(147,99,c),
(146,98,o),
(145,97,o),
(145,95,cs),
(145,89,o),
(153,88,o),
(158,88,cs),
(467,88,l)
);
}
);
width = 500;
},
{
layerId = "2927A78B-FE88-4016-B2C6-41428F7EDB2B";
shapes = (
{
closed = 1;
nodes = (
(529,109,l),
(500,5,l),
(15,5,l),
(15,25,l),
(113,106,o),
(202,194,o),
(276,294,cs),
(322,356,o),
(359,427,o),
(359,503,cs),
(359,566,o),
(332,641,o),
(242,641,cs),
(190,641,o),
(138,608,o),
(94,580,c),
(76,604,l),
(139,661,o),
(224,715,o),
(313,715,cs),
(406,715,o),
(491,661,o),
(491,569,cs),
(491,408,o),
(303,256,o),
(186,118,c),
(185,117,o),
(185,115,o),
(185,114,cs),
(185,112,o),
(188,109,o),
(191,109,cs)
);
}
);
width = 550;
}
);
unicode = 50;
},
{
glyphname = three;
layers = (
{
layerId = "21503E60-83E9-42CA-80F5-20ED7CD97021";
shapes = (
{
closed = 1;
nodes = (
(241,382,c),
(241,374,l),
(368,363,o),
(446,315,o),
(446,215,cs),
(446,78,o),
(314,-17,o),
(181,-17,cs),
(124,-17,o),
(70,3,o),
(25,38,c),
(18,49,l),
(60,121,l),
(70,121,l),
(100,70,o),
(145,23,o),
(206,23,cs),
(296,23,o),
(352,100,o),
(352,186,cs),
(352,229,o),
(332,269,o),
(303,300,cs),
(264,341,o),
(185,345,o),
(125,345,c),
(126,371,l),
(247,399,o),
(317,450,o),
(317,540,cs),
(317,602,o),
(268,639,o),
(208,639,cs),
(169,639,o),
(123,610,o),
(86,586,c),
(72,608,l),
(123,651,o),
(191,702,o),
(253,702,cs),
(334,702,o),
(399,655,o),
(399,568,cs),
(399,472,o),
(328,407,o)
);
}
);
width = 500;
},
{
layerId = "2927A78B-FE88-4016-B2C6-41428F7EDB2B";
shapes = (
{
closed = 1;
nodes = (
(281,391,c),
(281,384,l),
(420,372,o),
(496,319,o),
(496,223,cs),
(496,75,o),
(353,-8,o),
(210,-8,cs),
(142,-8,o),
(75,12,o),
(25,53,c),
(82,160,l),
(101,158,l),
(117,102,o),
(154,32,o),
(217,32,cs),
(328,32,o),
(369,117,o),
(369,201,cs),
(369,332,o),
(251,359,o),
(133,359,c),
(133,388,l),
(218,393,o),
(338,433,o),
(338,542,cs),
(338,602,o),
(293,644,o),
(229,644,cs),
(179,644,o),
(132,615,o),
(89,588,c),
(72,613,l),
(135,660,o),
(213,708,o),
(295,708,cs),
(376,708,o),
(455,663,o),
(455,582,cs),
(455,488,o),
(372,425,o)
);
}
);
width = 550;
}
);
unicode = 51;
},
{
glyphname = four;
layers = (
{
layerId = "21503E60-83E9-42CA-80F5-20ED7CD97021";
shapes = (
{
closed = 1;
nodes = (
(361,704,l),
(368,698,l),
(367,671,o),
(367,399,o),
(367,244,c),
(374,235,l),
(468,235,l),
(473,228,l),
(457,191,l),
(375,191,l),
(367,183,l),
(367,129,o),
(367,50,o),
(370,28,c),
(290,-5,l),
(285,1,l),
(290,36,o),
(290,119,o),
(290,182,c),
(283,191,l),
(-1,191,l),
(-1,235,l),
(285,669,l)
);
},
{
closed = 1;
nodes = (
(290,243,l),
(290,585,ls),
(290,590,o),
(288,593,o),
(285,593,cs),
(283,593,o),
(281,592,o),
(280,591,c),
(246,552,o),
(216,506,o),
(187,461,cs),
(149,402,o),
(65,264,o),
(64,242,c),
(69,235,l),
(284,235,l)
);
}
);
width = 500;
},
{
layerId = "2927A78B-FE88-4016-B2C6-41428F7EDB2B";
shapes = (
{
closed = 1;
nodes = (
(413,255,l),
(515,255,l),
(519,246,l),
(490,184,l),
(413,184,l),
(406,177,l),
(406,128,o),
(408,80,o),
(413,32,c),
(305,-12,l),
(291,-1,l),
(297,58,o),
(301,118,o),
(301,178,c),
(294,184,l),
(2,184,l),
(2,236,l),
(301,679,l),
(406,708,l),
(406,698,l),
(406,263,l)
);
},
{
closed = 1;
nodes = (
(301,260,l),
(301,571,l),
(295,581,l),
(290,581,o),
(248,529,o),
(197,455,cs),
(96,307,o),
(82,265,o),
(82,261,c),
(88,255,l),
(293,255,l)
);
}
);
width = 550;
}
);
unicode = 52;
},
{
glyphname = five;
layers = (
{
layerId = "21503E60-83E9-42CA-80F5-20ED7CD97021";
shapes = (
{
closed = 1;
nodes = (
(125,594,cs),
(125,413,l),
(125,406,l),
(166,426,o),
(211,443,o),
(257,443,cs),
(374,443,o),
(448,363,o),
(448,251,cs),
(448,98,o),
(323,-11,o),
(178,-11,cs),
(115,-11,o),
(54,15,o),
(13,64,c),
(12,76,l),
(56,132,l),
(67,132,l),
(89,83,o),
(124,26,o),
(186,26,cs),
(298,26,o),
(352,121,o),
(352,223,cs),
(352,305,o),
(316,395,o),
(213,395,cs),
(169,395,o),
(128,373,o),
(96,342,c),
(83,353,l),
(83,680,l),
(90,687,l),
(425,687,l),
(398,609,l),
(311,607,o),
(185,604,o),
(137,604,cs),
(131,604,o),
(125,600,o)
);
}
);
width = 500;
},
{
layerId = "2927A78B-FE88-4016-B2C6-41428F7EDB2B";
shapes = (
{
closed = 1;
nodes = (
(475,694,l),
(480,690,l),
(442,591,l),
(137,591,l),
(137,417,l),
(147,413,l),
(193,435,o),
(239,446,o),
(285,446,cs),
(409,446,o),
(495,371,o),
(495,255,cs),
(495,105,o),
(371,-12,o),
(209,-12,cs),
(143,-12,o),
(98,-6,o),
(18,49,c),
(18,62,l),
(67,157,l),
(85,157,l),
(104,94,o),
(143,30,o),
(221,30,cs),
(336,30,o),
(368,140,o),
(368,230,cs),
(368,305,o),
(337,397,o),
(224,397,cs),
(188,397,o),
(131,372,o),
(103,341,c),
(83,349,l),
(83,694,l)
);
}
);
width = 550;
}
);
unicode = 53;
},
{
glyphname = six;
layers = (
{
layerId = "21503E60-83E9-42CA-80F5-20ED7CD97021";
shapes = (
{
closed = 1;
nodes = (
(471,688,c),
(451,634,l),
(442,630,l),
(422,638,o),
(404,641,o),
(384,641,cs),
(323,641,o),
(269,614,o),
(228,576,cs),
(149,503,o),
(130,402,o),
(129,306,c),
(136,305,l),
(189,348,o),
(252,377,o),
(321,377,cs),
(412,377,o),
(471,296,o),
(471,211,cs),
(471,94,o),
(356,-13,o),
(236,-13,cs),
(95,-13,o),
(45,124,o),
(45,238,cs),
(45,363,o),
(90,487,o),
(179,576,cs),
(241,641,o),
(327,700,o),
(416,700,cs),
(431,700,o),
(456,694,o)
);
},
{
closed = 1;
nodes = (
(132,265,c),
(132,174,o),
(157,32,o),
(263,32,cs),
(348,32,o),
(392,96,o),
(392,172,cs),
(392,246,o),
(335,314,o),
(256,314,cs),
(215,314,o),
(154,286,o)
);
}
);
width = 500;
},
{
layerId = "2927A78B-FE88-4016-B2C6-41428F7EDB2B";
shapes = (
{
closed = 1;
nodes = (
(496,625,l),
(477,623,l),
(453,638,o),
(424,646,o),
(395,646,cs),
(230,646,o),
(164,473,o),
(159,336,c),
(167,331,l),
(217,362,o),
(273,386,o),
(334,386,cs),
(440,386,o),
(509,305,o),
(509,216,cs),
(509,97,o),
(377,-12,o),
(243,-12,cs),
(100,-12,o),
(44,141,o),
(44,253,cs),
(44,465,o),
(221,704,o),
(459,704,cs),
(472,704,o),
(504,697,o),
(520,690,c)
);
},
{
closed = 1;
nodes = (
(161,286,c),
(165,196,o),
(184,39,o),
(304,39,cs),
(375,39,o),
(419,107,o),
(419,165,cs),
(419,244,o),
(368,320,o),
(269,320,cs),
(230,320,o),
(194,303,o)
);
}
);
width = 550;
}
);
unicode = 54;
},
{
glyphname = seven;
layers = (
{
layerId = "21503E60-83E9-42CA-80F5-20ED7CD97021";
shapes = (
{
closed = 1;
nodes = (
(494,674,l),
(340,422,ls),
(262,294,o),
(197,158,o),
(165,12,c),
(81,-8,l),
(75,0,l),
(99,82,o),
(184,232,o),
(238,324,c),
(238,324,o),
(336,495,o),
(398,594,c),
(392,606,l),
(56,606,l),
(49,615,l),
(70,694,l),
(88,688,o),
(241,686,o),
(286,686,cs),
(494,686,l)
);
}
);
width = 500;
},
{
layerId = "2927A78B-FE88-4016-B2C6-41428F7EDB2B";
shapes = (
{
closed = 1;
nodes = (
(251,20,c),
(132,-15,l),
(113,4,l),
(165,214,o),
(289,378,o),
(444,582,c),
(446,585,o),
(447,588,o),
(447,592,c),
(444,596,o),
(438,596,o),
(433,596,cs),
(338,595,o),
(243,595,o),
(148,595,cs),
(105,593,o),
(105,577,o),
(87,480,c),
(50,480,l),
(50,696,l),
(197,693,o),
(381,693,o),
(547,693,c),
(547,676,l),
(466,560,o),
(391,442,o),
(328,318,cs),
(282,226,o),
(258,120,o)
);
}
);
width = 550;
}
);
unicode = 55;
},
{
glyphname = eight;
layers = (
{
layerId = "21503E60-83E9-42CA-80F5-20ED7CD97021";
shapes = (
{
closed = 1;
nodes = (
(238,334,c),
(169,298,o),
(123,254,o),
(123,177,cs),
(123,107,o),
(166,32,o),
(245,32,cs),
(328,32,o),
(374,89,o),
(374,168,cs),
(374,243,o),
(320,282,o)
);
},
{
closed = 1;
nodes = (
(312,385,l),
(418,313,o),
(461,277,o),
(461,197,cs),
(461,68,o),
(338,-10,o),
(219,-10,cs),
(171,-10,o),
(117,0,o),
(82,35,cs),
(50,67,o),
(40,112,o),
(40,157,cs),
(40,250,o),
(93,289,o),
(201,352,c),
(201,363,l),
(146,401,o),
(89,459,o),
(89,530,cs),
(89,628,o),
(173,674,o),
(254,706,c),
(257,706,o),
(260,706,o),
(263,706,cs),
(365,706,o),
(435,650,o),
(435,568,cs),
(435,496,o),
(372,433,o),
(312,396,c)
);
},
{
closed = 1;
nodes = (
(279,412,c),
(321,441,o),
(351,490,o),
(351,543,cs),
(351,593,o),
(308,659,o),
(223,659,c),
(177,629,o),
(166,601,o),
(166,562,cs),
(166,503,o),
(226,449,o)
);
}
);
width = 500;
},
{
layerId = "2927A78B-FE88-4016-B2C6-41428F7EDB2B";
shapes = (
{
closed = 1;
nodes = (
(249,330,c),
(176,297,o),
(148,259,o),
(148,196,cs),
(148,125,o),
(201,37,o),
(282,37,cs),
(364,37,o),
(402,91,o),
(402,157,cs),
(402,235,o),
(316,291,o)
);
},
{
closed = 1;
nodes = (
(356,393,l),
(449,331,o),
(505,290,o),
(505,206,cs),
(505,75,o),
(370,-5,o),
(237,-5,cs),
(128,-5,o),
(42,59,o),
(42,161,cs),
(42,254,o),
(103,300,o),
(212,353,c),
(212,360,l),
(152,407,o),
(82,460,o),
(82,533,cs),
(82,629,o),
(195,685,o),
(291,720,c),
(401,705,o),
(483,665,o),
(483,586,cs),
(483,509,o),
(418,448,o),
(356,403,c)
);
},
{
closed = 1;
nodes = (
(315,422,c),
(358,451,o),
(381,502,o),
(381,550,cs),
(381,620,o),
(319,661,o),
(252,667,c),
(209,651,o),
(187,611,o),
(187,570,cs),
(187,520,o),
(260,460,o)
);
}
);
width = 550;
}
);
unicode = 56;
},
{
glyphname = nine;
layers = (
{
layerId = "21503E60-83E9-42CA-80F5-20ED7CD97021";
shapes = (
{
closed = 1;
nodes = (
(214,11,c),
(129,-9,l),
(119,-1,l),
(139,45,o),
(187,109,o),
(232,167,c),
(232,167,o),
(317,281,o),
(349,336,c),
(344,342,l),
(295,316,o),
(246,299,o),
(194,299,cs),
(125,299,o),
(40,369,o),
(40,465,cs),
(40,517,o),
(50,562,o),
(79,598,cs),
(108,634,o),
(196,680,o),
(246,702,c),
(391,702,o),
(462,635,o),
(462,528,cs),
(462,443,o),
(402,347,o),
(350,270,cs),
(296,191,o),
(227,94,o)
);
},
{
closed = 1;
nodes = (
(351,384,cs),
(376,409,o),
(382,447,o),
(382,482,cs),
(382,566,o),
(327,644,o),
(219,644,cs),
(162,644,o),
(129,567,o),
(129,515,cs),
(129,438,o),
(175,352,o),
(259,352,cs),
(292,352,o),
(327,360,o)
);
}
);
width = 500;
},
{
layerId = "2927A78B-FE88-4016-B2C6-41428F7EDB2B";
shapes = (
{
closed = 1;
nodes = (
(376,342,l),
(369,349,l),
(298,313,o),
(235,303,o),
(215,303,cs),
(125,303,o),
(48,382,o),
(48,465,cs),
(48,580,o),
(146,651,o),
(252,707,c),
(295,707,o),
(335,707,o),
(377,698,cs),
(457,681,o),
(514,622,o),
(514,551,cs),
(514,514,o),
(500,480,o),
(485,446,cs),
(422,303,o),
(291,170,o),
(235,16,c),
(128,-10,l),
(113,2,l),
(132,36,o),
(154,66,o),
(179,97,cs)
);
},
{
closed = 1;
nodes = (
(380,393,c),
(389,416,o),
(400,445,o),
(400,470,cs),
(400,522,o),
(381,572,o),
(341,608,cs),
(313,634,o),
(247,646,o),
(215,646,c),
(176,616,o),
(155,568,o),
(155,523,cs),
(155,446,o),
(204,370,o),
(302,370,cs),
(331,370,o),
(356,380,o)
);
}
);
width = 550;
}
);
unicode = 57;
},
{
glyphname = zero.dnom;
layers = (
{
layerId = "21503E60-83E9-42CA-80F5-20ED7CD97021";
shapes = (
{
closed = 1;
nodes = (
(297.6,376.8,o),
(330.6,293.4,o),
(330.6,213.6,cs),
(330.6,115.2,o),
(281.4,-8.4,o),
(159,-8.4,cs),
(61.8,-8.4,o),
(41.4,111,o),
(41.4,181.8,cs),
(41.4,253.8,o),
(72,326.4,o),
(129.6,377.4,cs),
(152.4,397.2,o),
(186,411.6,o),
(214.8,422.4,c)
);
},
{
closed = 1;
nodes = (
(118.2,350.4,o),
(87,283.2,o),
(87,222.6,cs),
(87,187.8,o),
(90,151.8,o),
(101.4,119.4,cs),
(115.2,78.6,o),
(145.2,31.2,o),
(189.6,31.2,cs),
(271.2,31.2,o),
(288.6,111.6,o),
(288.6,171,cs),
(288.6,225,o),
(271.8,276,o),
(242.4,323.4,cs),
(237.6,330.6,o),
(207.6,372.6,o),
(177,384,c)
);
}
);
width = 376;
},
{
layerId = "2927A78B-FE88-4016-B2C6-41428F7EDB2B";
shapes = (
{
closed = 1;
nodes = (
(249,423,o),
(269,409,o),
(280,400,cs),
(342,350,o),
(355,277,o),
(355,206,cs),
(355,146,o),
(339,81,o),
(280,28,cs),
(254,4,o),
(218,-9,o),
(184,-9,cs),
(77,-9,o),
(46,96,o),
(46,171,cs),
(46,246,o),
(67,324,o),
(133,376,cs),
(162,399,o),
(197,422,o),
(232,430,c)
);
},
{
closed = 1;
nodes = (
(126,350,o),
(106,288,o),
(106,230,cs),
(106,196,o),
(110,163,o),
(123,131,cs),
(139,90,o),
(173,40,o),
(223,40,cs),
(275,40,o),
(304,82,o),
(304,164,cs),
(304,220,o),
(295,278,o),
(258,326,cs),
(241,348,o),
(213,372,o),
(187,379,c)
);
}
);
width = 400;
}
);
},
{
glyphname = one.dnom;
layers = (
{
layerId = "21503E60-83E9-42CA-80F5-20ED7CD97021";
shapes = (
{
closed = 1;
nodes = (
(232,420,l),
(228,367,o),
(227,312,o),
(227,259,cs),
(227,177,o),
(227,59,o),
(229,13,c),
(172,-3,l),
(164,0,l),
(167,83,o),
(169,167,o),
(169,251,cs),
(169,318,o),
(179,367,o),
(137,367,cs),
(81,367,l),
(81,383,l),
(227,427,l)
);
}
);
width = 376;
},
{
layerId = "2927A78B-FE88-4016-B2C6-41428F7EDB2B";
shapes = (
{
closed = 1;
nodes = (
(242,429,l),
(253,418,l),
(246,336,o),
(243,253,o),
(243,170,cs),
(243,120,o),
(243,57,o),
(245,19,c),
(175,-5,l),
(161,3,l),
(169,74,o),
(174,146,o),
(174,217,cs),
(174,257,o),
(173,297,o),
(170,337,cs),
(169,348,o),
(160,356,o),
(149,356,cs),
(65,356,l),
(65,376,l)
);
}
);
width = 400;
}
);
},
{
glyphname = two.dnom;
layers = (
{
layerId = "21503E60-83E9-42CA-80F5-20ED7CD97021";
shapes = (
{
closed = 1;
nodes = (
(323,1,l),
(27,1,l),
(27,11,l),
(65,46,o),
(103,81,o),
(139,118,cs),
(192,173,o),
(245,233,o),
(245,305,cs),
(245,338,o),
(225,384,o),
(169,384,cs),
(132,384,o),
(101,365,o),
(75,346,c),
(62,357,l),
(99,393,o),
(149,425,o),
(205,425,cs),
(263,425,o),
(307,385,o),
(307,332,cs),
(307,248,o),
(200,142,o),
(118,59,cs),
(117,58,o),
(117,58,o),
(117,57,cs),
(117,53,o),
(122,53,o),
(126,53,cs),
(335,53,l),
(338,48,l)
);
}
);
width = 376;
},
{
layerId = "2927A78B-FE88-4016-B2C6-41428F7EDB2B";
shapes = (
{
closed = 1;
nodes = (
(346,3,l),
(29,3,l),
(29,15,l),
(93,64,o),
(151,116,o),
(200,176,cs),
(230,213,o),
(254,256,o),
(254,302,cs),
(254,340,o),
(237,385,o),
(178,385,cs),
(143,385,o),
(109,365,o),
(80,348,c),
(69,362,l),
(110,396,o),
(166,429,o),
(224,429,cs),
(284,429,o),
(340,397,o),
(340,341,cs),
(340,244,o),
(217,154,o),
(141,71,cs),
(140,70,o),
(140,69,o),
(140,68,cs),
(140,67,o),
(142,65,o),
(144,65,cs),
(365,65,l)
);
}
);
width = 400;
}
);
},
{
glyphname = three.dnom;
layers = (
{
layerId = "21503E60-83E9-42CA-80F5-20ED7CD97021";
shapes = (
{
closed = 1;
nodes = (
(182,224,l),
(265,217,o),
(321,191,o),
(321,129,cs),
(321,46,o),
(231,-10,o),
(142,-10,cs),
(103,-10,o),
(66,2,o),
(35,23,c),
(31,29,l),
(59,73,l),
(66,73,l),
(88,41,o),
(117,14,o),
(158,14,cs),
(218,14,o),
(257,59,o),
(257,112,cs),
(257,138,o),
(244,161,o),
(224,180,cs),
(198,205,o),
(144,207,o),
(103,207,c),
(104,223,l),
(185,240,o),
(233,269,o),
(233,324,cs),
(233,361,o),
(201,383,o),
(160,383,cs),
(134,383,o),
(103,367,o),
(77,352,c),
(67,365,l),
(102,391,o),
(148,421,o),
(190,421,cs),
(243,421,o),
(289,394,o),
(289,341,cs),
(289,283,o),
(241,244,o),
(182,229,c)
);
}
);
width = 376;
},
{
layerId = "2927A78B-FE88-4016-B2C6-41428F7EDB2B";
shapes = (
{
closed = 1;
nodes = (
(203,230,l),
(293,223,o),
(344,192,o),
(344,134,cs),
(344,45,o),
(249,-5,o),
(157,-5,cs),
(113,-5,o),
(68,7,o),
(35,32,c),
(73,96,l),
(85,95,l),
(95,62,o),
(119,19,o),
(161,19,cs),
(232,19,o),
(260,69,o),
(260,121,cs),
(260,200,o),
(182,215,o),
(106,215,c),
(106,233,l),
(161,236,o),
(240,259,o),
(240,325,cs),
(240,362,o),
(210,386,o),
(169,386,cs),
(137,386,o),
(105,370,o),
(77,353,c),
(66,368,l),
(107,396,o),
(159,425,o),
(212,425,cs),
(264,425,o),
(317,398,o),
(317,349,cs),
(317,293,o),
(264,255,o),
(203,235,c)
);
}
);
width = 400;
}
);
},
{
glyphname = four.dnom;
layers = (
{
layerId = "21503E60-83E9-42CA-80F5-20ED7CD97021";
shapes = (
{
closed = 1;
nodes = (
(268,419,l),
(267,403,o),
(268,239,o),
(268,146,c),
(272,141,l),
(336,141,l),
(339,137,l),
(328,115,l),
(272,115,l),
(268,110,l),
(268,78,o),
(267,30,o),
(269,17,c),
(215,-3,l),
(212,1,l),
(216,22,o),
(215,71,o),
(215,109,c),
(210,115,l),
(18,115,l),
(18,141,l),
(212,401,l),
(263,422,l)
);
},
{
closed = 1;
nodes = (
(215,351,ls),
(215,355,o),
(214,356,o),
(212,356,cs),
(211,356,o),
(209,356,o),
(208,355,cs),
(185,332,o),
(165,304,o),
(145,277,cs),
(119,242,o),
(62,158,o),
(62,145,c),
(65,141,l),
(211,141,l),
(215,146,l)
);
}
);
width = 376;
},
{
layerId = "2927A78B-FE88-4016-B2C6-41428F7EDB2B";
shapes = (
{
closed = 1;
nodes = (
(356,153,l),
(358,148,l),
(340,110,l),
(289,110,l),
(285,106,l),
(285,77,o),
(286,48,o),
(289,19,c),
(218,-7,l),
(209,-1,l),
(213,34,o),
(216,71,o),
(216,107,c),
(211,110,l),
(20,110,l),
(20,142,l),
(216,407,l),
(285,425,l),
(285,419,l),
(285,158,l),
(289,153,l)
);
},
{
closed = 1;
nodes = (
(216,343,l),
(212,349,l),
(209,349,o),
(181,318,o),
(148,273,cs),
(82,184,o),
(74,159,o),
(73,157,cs),
(77,153,l),
(211,153,l),
(216,156,l)
);
}
);
width = 400;
}
);
},
{
glyphname = five.dnom;
layers = (
{
layerId = "21503E60-83E9-42CA-80F5-20ED7CD97021";
shapes = (
{
closed = 1;
nodes = (
(103,248,l),
(103,244,l),
(131,256,o),
(162,266,o),
(193,266,cs),
(272,266,o),
(322,218,o),
(322,151,cs),
(322,58,o),
(236,-7,o),
(139,-7,cs),
(96,-7,o),
(56,9,o),
(28,38,c),
(27,46,l),
(56,79,l),
(64,79,l),
(78,50,o),
(104,16,o),
(145,16,cs),
(221,16,o),
(257,72,o),
(257,134,cs),
(257,184,o),
(232,237,o),
(163,237,cs),
(133,237,o),
(105,224,o),
(83,205,c),
(75,212,l),
(75,408,l),
(80,412,l),
(307,412,l),
(289,365,l),
(230,364,o),
(144,362,o),
(112,362,cs),
(108,362,o),
(103,360,o),
(103,356,cs)
);
}
);
width = 376;
},
{
layerId = "2927A78B-FE88-4016-B2C6-41428F7EDB2B";
shapes = (
{
closed = 1;
nodes = (
(333,414,l),
(308,355,l),
(109,355,l),
(109,250,l),
(116,248,l),
(145,261,o),
(176,268,o),
(206,268,cs),
(287,268,o),
(343,223,o),
(343,153,cs),
(343,62,o),
(260,-7,o),
(156,-7,cs),
(113,-7,o),
(83,-4,o),
(31,29,c),
(31,37,l),
(63,94,l),
(75,94,l),
(88,56,o),
(113,18,o),
(164,18,cs),
(239,18,o),
(260,84,o),
(260,138,cs),
(260,183,o),
(240,238,o),
(166,238,cs),
(143,238,o),
(105,224,o),
(86,205,c),
(73,209,l),
(73,416,l),
(330,416,l)
);
}
);
width = 400;
}
);
},
{
glyphname = six.dnom;
layers = (
{
layerId = "21503E60-83E9-42CA-80F5-20ED7CD97021";
shapes = (
{
closed = 1;
nodes = (
(325,380,l),
(318,378,l),
(305,383,o),
(293,385,o),
(279,385,cs),
(238,385,o),
(201,369,o),
(173,346,cs),
(120,302,o),
(107,242,o),
(106,184,c),
(111,183,l),
(147,209,o),
(189,226,o),
(236,226,cs),
(297,226,o),
(338,178,o),
(338,127,cs),
(338,56,o),
(260,-8,o),
(179,-8,cs),
(83,-8,o),
(49,74,o),
(49,143,cs),
(49,219,o),
(80,291,o),
(140,346,cs),
(183,385,o),
(240,420,o),
(301,420,cs),
(311,420,o),
(328,417,o),
(338,413,c)
);
},
{
closed = 1;
nodes = (
(108,101,o),
(127,19,o),
(197,19,cs),
(253,19,o),
(284,56,o),
(284,103,cs),
(284,147,o),
(246,188,o),
(192,188,cs),
(164,188,o),
(123,172,o),
(108,159,c)
);
}
);
width = 376;
},
{
layerId = "2927A78B-FE88-4016-B2C6-41428F7EDB2B";
shapes = (
{
closed = 1;
nodes = (
(331,374,l),
(315,383,o),
(297,388,o),
(278,388,cs),
(170,388,o),
(128,285,o),
(123,202,c),
(128,199,l),
(160,218,o),
(198,232,o),
(238,232,cs),
(308,232,o),
(352,183,o),
(352,130,cs),
(352,58,o),
(265,-7,o),
(178,-7,cs),
(84,-7,o),
(48,85,o),
(48,152,cs),
(48,279,o),
(163,422,o),
(319,422,cs),
(327,422,o),
(349,418,o),
(359,414,c),
(343,375,l)
);
},
{
closed = 1;
nodes = (
(128,116,o),
(141,23,o),
(218,23,cs),
(264,23,o),
(293,64,o),
(293,99,cs),
(293,147,o),
(259,192,o),
(195,192,cs),
(170,192,o),
(146,182,o),
(124,172,c)
);
}
);
width = 400;
}
);
},
{
glyphname = seven.dnom;
layers = (
{
layerId = "21503E60-83E9-42CA-80F5-20ED7CD97021";
shapes = (
{
closed = 1;
nodes = (
(249,253,ls),
(196,176,o),
(152,95,o),
(130,7,c),
(74,-5,l),
(70,0,l),
(86,49,o),
(144,139,o),
(181,194,cs),
(181,194,o),
(247,297,o),
(289,356,c),
(284,364,l),
(56,364,l),
(52,369,l),
(66,416,l),
(79,412,o),
(182,412,o),
(213,412,cs),
(353,412,l),
(353,404,l)
);
}
);
width = 376;
},
{
layerId = "2927A78B-FE88-4016-B2C6-41428F7EDB2B";
shapes = (
{
closed = 1;
nodes = (
(106,-9,l),
(94,2,l),
(126,128,o),
(209,227,o),
(310,349,cs),
(311,351,o),
(311,353,o),
(311,355,cs),
(309,357,o),
(305,358,o),
(302,358,cs),
(240,357,o),
(178,357,o),
(116,357,cs),
(89,356,o),
(87,346,o),
(76,288,c),
(52,288,l),
(52,418,l),
(149,416,o),
(268,416,o),
(377,416,c),
(377,406,l),
(324,336,o),
(275,265,o),
(234,191,cs),
(203,136,o),
(188,72,o),
(184,12,c)
);
}
);
width = 400;
}
);
},
{
glyphname = eight.dnom;
layers = (
{
layerId = "21503E60-83E9-42CA-80F5-20ED7CD97021";
shapes = (
{
closed = 1;
nodes = (
(134,178,o),
(102,153,o),
(102,106,cs),
(102,63,o),
(132,19,o),
(185,19,cs),
(239,19,o),
(272,52,o),
(272,101,cs),
(272,145,o),
(235,169,o),
(180,200,c)
);
},
{
closed = 1;
nodes = (
(301,187,o),
(331,167,o),
(331,118,cs),
(331,41,o),
(248,-6,o),
(167,-6,cs),
(135,-6,o),
(97,0,o),
(74,21,cs),
(52,40,o),
(46,67,o),
(46,94,cs),
(46,150,o),
(83,174,o),
(155,211,c),
(155,218,l),
(117,241,o),
(79,275,o),
(79,318,cs),
(79,378,o),
(137,405,o),
(191,424,cs),
(193,424,o),
(195,424,o),
(197,424,cs),
(265,424,o),
(314,391,o),
(314,341,cs),
(314,298,o),
(270,260,o),
(230,238,c),
(230,231,l)
);
},
{
closed = 1;
nodes = (
(237,264,o),
(257,294,o),
(257,326,cs),
(257,356,o),
(228,395,o),
(170,395,c),
(139,377,o),
(131,360,o),
(131,337,cs),
(131,302,o),
(172,269,o),
(208,247,c)
);
}
);
width = 376;
},
{
layerId = "2927A78B-FE88-4016-B2C6-41428F7EDB2B";
shapes = (
{
closed = 1;
nodes = (
(136,179,o),
(116,157,o),
(116,118,cs),
(116,75,o),
(151,22,o),
(203,22,cs),
(256,22,o),
(282,53,o),
(282,94,cs),
(282,141,o),
(226,174,o),
(182,198,c)
);
},
{
closed = 1;
nodes = (
(313,199,o),
(349,175,o),
(349,124,cs),
(349,45,o),
(262,-3,o),
(174,-3,cs),
(104,-3,o),
(47,36,o),
(47,97,cs),
(47,153,o),
(86,180,o),
(158,212,c),
(158,216,l),
(120,244,o),
(73,275,o),
(73,320,cs),
(73,378,o),
(147,411,o),
(209,432,c),
(285,423,o),
(335,398,o),
(335,352,cs),
(335,306,o),
(293,270,o),
(252,242,c),
(252,236,l)
);
},
{
closed = 1;
nodes = (
(253,270,o),
(268,301,o),
(268,330,cs),
(268,372,o),
(228,396,o),
(184,400,c),
(156,390,o),
(142,366,o),
(142,342,cs),
(142,313,o),
(189,276,o),
(225,253,c)
);
}
);
width = 400;
}
);
},
{
glyphname = nine.dnom;
layers = (
{
layerId = "21503E60-83E9-42CA-80F5-20ED7CD97021";
shapes = (
{
closed = 1;
nodes = (
(106,-5,l),
(99,-1,l),
(113,27,o),
(146,65,o),
(176,100,cs),
(176,100,o),
(234,169,o),
(256,202,c),
(251,205,l),
(219,189,o),
(185,179,o),
(150,179,cs),
(104,179,o),
(46,221,o),
(46,279,cs),
(46,310,o),
(53,337,o),
(72,359,cs),
(91,381,o),
(151,408,o),
(185,421,c),
(283,421,o),
(332,382,o),
(332,317,cs),
(332,267,o),
(292,208,o),
(256,162,cs),
(220,115,o),
(174,57,o),
(164,7,c)
);
},
{
closed = 1;
nodes = (
(274,245,o),
(278,268,o),
(278,289,cs),
(278,340,o),
(240,386,o),
(167,386,cs),
(129,386,o),
(106,340,o),
(106,309,cs),
(106,262,o),
(137,211,o),
(194,211,cs),
(216,211,o),
(241,216,o),
(257,230,cs)
);
}
);
width = 376;
},
{
layerId = "2927A78B-FE88-4016-B2C6-41428F7EDB2B";
shapes = (
{
closed = 1;
nodes = (
(260,209,l),
(213,187,o),
(173,182,o),
(160,182,cs),
(101,182,o),
(50,229,o),
(50,279,cs),
(50,347,o),
(115,390,o),
(184,424,c),
(212,424,o),
(239,424,o),
(266,419,cs),
(318,409,o),
(355,374,o),
(355,331,cs),
(355,309,o),
(347,288,o),
(337,268,cs),
(296,183,o),
(209,102,o),
(173,10,c),
(103,-6,l),
(93,1,l),
(106,21,o),
(120,39,o),
(136,58,cs),
(265,205,l)
);
},
{
closed = 1;
nodes = (
(274,250,o),
(281,267,o),
(281,282,cs),
(281,313,o),
(268,343,o),
(242,365,cs),
(223,381,o),
(181,388,o),
(160,388,c),
(135,370,o),
(121,341,o),
(121,314,cs),
(121,268,o),
(153,222,o),
(217,222,cs),
(236,222,o),
(252,228,o),
(268,236,c)
);
}
);
width = 400;
}
);
},
{
glyphname = fraction;
layers = (
{
layerId = "21503E60-83E9-42CA-80F5-20ED7CD97021";
shapes = (
{
closed = 1;
nodes = (
(266,695,l),
(269,684,l),
(-168,-4,l),
(-199,9,l),
(-199,23,l),
(234,703,l),
(245,704,l)
);
}
);
width = 70;
},
{
layerId = "2927A78B-FE88-4016-B2C6-41428F7EDB2B";
shapes = (
{
closed = 1;
nodes = (
(272,672,l),
(274,660,l),
(-150,-6,l),
(-194,13,l),
(-194,27,l),
(226,686,l),
(238,687,l)
);
}
);
width = 80;
}
);
unicode = (8260,8725);
},
{
glyphname = onehalf;
layers = (
{
layerId = "21503E60-83E9-42CA-80F5-20ED7CD97021";
shapes = (
{
closed = 1;
nodes = (
(749,47,l),
(732,0,l),
(417,0,l),
(417,10,l),
(458,45,o),
(499,80,o),
(537,117,cs),
(593,172,o),
(650,233,o),
(650,304,cs),
(650,338,o),
(627,383,o),
(568,383,cs),
(528,383,o),
(497,364,o),
(469,345,c),
(455,356,l),
(494,391,o),
(546,424,o),
(607,424,cs),
(669,424,o),
(716,385,o),
(716,331,cs),
(716,246,o),
(601,141,o),
(515,58,cs),
(514,57,o),
(513,57,o),
(513,56,cs),
(513,52,o),
(519,52,o),
(523,52,cs),
(745,52,l)
);
},
{
closed = 1;
nodes = (
(179,703,l),
(184,695,l),
(180,642,o),
(178,588,o),
(178,535,cs),
(178,453,o),
(179,335,o),
(181,289,c),
(120,272,l),
(112,275,l),
(116,358,o),
(117,443,o),
(117,527,cs),
(117,594,o),
(127,643,o),
(83,643,cs),
(23,643,l),
(23,659,l)
);
},
{
pos = (344,0);
ref = fraction;
}
);
width = 790;
},
{
layerId = "2927A78B-FE88-4016-B2C6-41428F7EDB2B";
shapes = (
{
closed = 1;
nodes = (
(823,62,l),
(802,0,l),
(464,0,l),
(464,12,l),
(532,61,o),
(594,113,o),
(646,173,cs),
(678,210,o),
(704,253,o),
(704,299,cs),
(704,337,o),
(685,382,o),
(623,382,cs),
(586,382,o),
(550,362,o),
(520,345,c),
(508,359,l),
(551,393,o),
(611,426,o),
(672,426,cs),
(736,426,o),
(796,394,o),
(796,338,cs),
(796,242,o),
(665,151,o),
(584,68,cs),
(583,67,o),
(583,66,o),
(583,65,cs),
(583,64,o),
(585,62,o),
(587,62,cs)
);
},
{
closed = 1;
nodes = (
(25,652,l),
(214,705,l),
(224,694,l),
(216,612,o),
(214,530,o),
(214,447,cs),
(214,397,o),
(214,333,o),
(216,295,c),
(142,271,l),
(127,279,l),
(136,350,o),
(140,422,o),
(140,493,cs),
(140,533,o),
(140,573,o),
(137,613,cs),
(136,624,o),
(125,633,o),
(114,633,cs),
(25,633,l)
);
},
{
pos = (361,0);
ref = fraction;
}
);
width = 842;
}
);
unicode = 189;
},
{
glyphname = onequarter;
layers = (
{
layerId = "21503E60-83E9-42CA-80F5-20ED7CD97021";
shapes = (
{
closed = 1;
nodes = (
(668,420,l),
(674,417,l),
(673,401,o),
(672,237,o),
(672,144,c),
(678,139,l),
(746,139,l),
(749,135,l),
(737,112,l),
(678,112,l),
(672,108,l),
(672,76,o),
(673,28,o),
(675,15,c),
(617,-5,l),
(614,-2,l),
(618,19,o),
(617,69,o),
(617,107,c),
(612,112,l),
(408,112,l),
(408,139,l),
(614,399,l)
);
},
{
closed = 1;
nodes = (
(617,144,l),
(617,349,ls),
(617,353,o),
(616,354,o),
(614,354,cs),
(612,354,o),
(611,353,o),
(610,352,cs),
(585,329,o),
(564,301,o),
(543,274,cs),
(516,239,o),
(456,156,o),
(455,143,c),
(458,139,l),
(613,139,l)
);
},
{
closed = 1;
nodes = (
(179,703,l),
(184,695,l),
(180,642,o),
(178,588,o),
(178,535,cs),
(178,453,o),
(179,335,o),
(181,289,c),
(120,272,l),
(112,275,l),
(116,358,o),
(117,443,o),
(117,527,cs),
(117,594,o),
(127,643,o),
(83,643,cs),
(23,643,l),
(23,659,l)
);
},
{
pos = (348,0);
ref = fraction;
}
);
width = 790;
},
{
layerId = "2927A78B-FE88-4016-B2C6-41428F7EDB2B";
shapes = (
{
closed = 1;
nodes = (
(723,151,l),
(795,151,l),
(797,146,l),
(777,109,l),
(723,109,l),
(719,104,l),
(719,75,o),
(720,46,o),
(723,17,c),
(649,-9,l),
(639,-2,l),
(643,33,o),
(645,69,o),
(645,105,c),
(641,109,l),
(437,109,l),
(437,140,l),
(645,406,l),
(719,423,l),
(719,417,l),
(719,156,l)
);
},
{
closed = 1;
nodes = (
(645,154,l),
(645,341,l),
(641,347,l),
(638,347,o),
(608,315,o),
(573,271,cs),
(502,182,o),
(494,157,o),
(493,155,c),
(497,151,l),
(641,151,l)
);
},
{
closed = 1;
nodes = (
(25,652,l),
(214,705,l),
(224,694,l),
(216,612,o),
(214,530,o),
(214,447,cs),
(214,397,o),
(214,333,o),
(216,295,c),
(142,271,l),
(127,279,l),
(136,350,o),
(140,422,o),
(140,493,cs),
(140,533,o),
(140,573,o),
(137,613,cs),
(136,624,o),
(125,633,o),
(114,633,cs),
(25,633,l)
);
},
{
pos = (407,0);
ref = fraction;
}
);
width = 842;
}
);
unicode = 188;
},
{
glyphname = threequarters;
layers = (
{
layerId = "21503E60-83E9-42CA-80F5-20ED7CD97021";
shapes = (
{
closed = 1;
nodes = (
(179,507,c),
(179,502,l),
(273,495,o),
(326,466,o),
(326,407,cs),
(326,325,o),
(232,268,o),
(136,268,cs),
(95,268,o),
(55,280,o),
(23,301,c),
(19,307,l),
(49,351,l),
(56,351,l),
(78,320,o),
(111,292,o),
(154,292,cs),
(219,292,o),
(259,338,o),
(259,390,cs),
(259,415,o),
(244,440,o),
(224,458,cs),
(196,483,o),
(138,485,o),
(95,485,c),
(96,501,l),
(182,518,o),
(233,547,o),
(233,602,cs),
(233,641,o),
(196,661,o),
(155,661,cs),
(126,661,o),
(94,644,o),
(67,630,c),
(57,643,l),
(94,668,o),
(142,699,o),
(188,699,cs),
(244,699,o),
(293,672,o),
(293,619,cs),
(293,561,o),
(241,522,o)
);
},
{
closed = 1;
nodes = (
(668,420,l),
(674,417,l),
(673,401,o),
(672,237,o),
(672,144,c),
(678,139,l),
(746,139,l),
(749,135,l),
(737,112,l),
(678,112,l),
(672,108,l),
(672,76,o),
(673,28,o),
(675,15,c),
(617,-5,l),
(614,-2,l),
(618,19,o),
(617,69,o),
(617,107,c),
(612,112,l),
(408,112,l),
(408,139,l),
(614,399,l)
);
},
{
closed = 1;
nodes = (
(617,144,l),
(617,349,ls),
(617,353,o),
(616,354,o),
(614,354,cs),
(612,354,o),
(611,353,o),
(610,352,cs),
(585,329,o),
(564,301,o),
(543,274,cs),
(516,239,o),
(456,156,o),
(455,143,c),
(458,139,l),
(613,139,l)
);
},
{
pos = (388,0);
ref = fraction;
}
);
width = 790;
},
{
layerId = "2927A78B-FE88-4016-B2C6-41428F7EDB2B";
shapes = (
{
closed = 1;
nodes = (
(206,506,c),
(206,501,l),
(303,494,o),
(356,463,o),
(356,405,cs),
(356,316,o),
(256,266,o),
(157,266,cs),
(110,266,o),
(63,278,o),
(28,303,c),
(68,367,l),
(81,366,l),
(92,332,o),
(118,290,o),
(162,290,cs),
(238,290,o),
(268,341,o),
(268,392,cs),
(268,471,o),
(185,486,o),
(103,486,c),
(103,504,l),
(162,507,o),
(246,530,o),
(246,596,cs),
(246,633,o),
(213,657,o),
(170,657,cs),
(135,657,o),
(102,640,o),
(73,624,c),
(61,639,l),
(105,667,o),
(160,696,o),
(216,696,cs),
(272,696,o),
(328,669,o),
(328,620,cs),
(328,562,o),
(268,526,o)
);
},
{
closed = 1;
nodes = (
(723,151,l),
(795,151,l),
(797,146,l),
(777,109,l),
(723,109,l),
(719,104,l),
(719,75,o),
(720,46,o),
(723,17,c),
(649,-9,l),
(639,-2,l),
(643,33,o),
(645,69,o),
(645,105,c),
(641,109,l),
(437,109,l),
(437,140,l),
(645,406,l),
(719,423,l),
(719,417,l),
(719,156,l)
);
},
{
closed = 1;
nodes = (
(645,154,l),
(645,341,l),
(641,347,l),
(638,347,o),
(608,315,o),
(573,271,cs),
(502,182,o),
(494,157,o),
(493,155,c),
(497,151,l),
(641,151,l)
);
},
{
pos = (407,0);
ref = fraction;
}
);
width = 842;
}
);
unicode = 190;
},
{
glyphname = onesuperior;
layers = (
{
layerId = "21503E60-83E9-42CA-80F5-20ED7CD97021";
shapes = (
{
closed = 1;
nodes = (
(130,733,l),
(135,725,l),
(131,667,o),
(130,609,o),
(130,551,cs),
(130,463,o),
(130,333,o),
(132,284,c),
(70,267,l),
(61,270,l),
(64,360,o),
(67,451,o),
(67,542,cs),
(67,615,o),
(79,668,o),
(33,668,cs),
(-28,668,l),
(-28,685,l)
);
}
);
width = 178;
},
{
layerId = "2927A78B-FE88-4016-B2C6-41428F7EDB2B";
shapes = (
{
closed = 1;
nodes = (
(-23,677,l),
(170,735,l),
(181,723,l),
(173,634,o),
(170,545,o),
(170,455,cs),
(170,400,o),
(170,333,o),
(172,291,c),
(96,264,l),
(82,273,l),
(91,350,o),
(95,428,o),
(95,505,cs),
(95,549,o),
(95,591,o),
(92,635,cs),
(91,647,o),
(80,656,o),
(68,656,cs),
(-23,656,l)
);
}
);
width = 220;
}
);
unicode = 185;
},
{
glyphname = twosuperior;
layers = (
{
layerId = "21503E60-83E9-42CA-80F5-20ED7CD97021";
shapes = (
{
closed = 1;
nodes = (
(312,322,l),
(295,271,l),
(-26,271,l),
(-26,282,l),
(16,320,o),
(57,358,o),
(96,398,cs),
(153,457,o),
(210,522,o),
(210,600,cs),
(210,636,o),
(188,686,o),
(128,686,cs),
(88,686,o),
(54,665,o),
(26,644,c),
(12,657,l),
(52,696,o),
(106,730,o),
(167,730,cs),
(230,730,o),
(278,687,o),
(278,629,cs),
(278,538,o),
(161,424,o),
(73,334,cs),
(72,333,o),
(72,333,o),
(72,332,cs),
(72,328,o),
(76,327,o),
(81,327,cs),
(308,327,l)
);
}
);
width = 304;
},
{
layerId = "2927A78B-FE88-4016-B2C6-41428F7EDB2B";
shapes = (
{
closed = 1;
nodes = (
(342,341,l),
(321,273,l),
(-23,273,l),
(-23,286,l),
(47,339,o),
(109,396,o),
(162,461,cs),
(194,501,o),
(221,548,o),
(221,597,cs),
(221,639,o),
(202,687,o),
(138,687,cs),
(100,687,o),
(64,665,o),
(33,647,c),
(21,663,l),
(66,700,o),
(126,735,o),
(188,735,cs),
(253,735,o),
(315,700,o),
(315,640,cs),
(315,535,o),
(182,437,o),
(99,347,cs),
(98,346,o),
(98,345,o),
(98,344,cs),
(98,343,o),
(100,341,o),
(102,341,cs)
);
}
);
width = 340;
}
);
unicode = 178;
},
{
glyphname = threesuperior;
layers = (
{
layerId = "21503E60-83E9-42CA-80F5-20ED7CD97021";
shapes = (
{
closed = 1;
nodes = (
(144,518,c),
(144,513,l),
(234,506,o),
(295,477,o),
(295,410,cs),
(295,320,o),
(196,259,o),
(100,259,cs),
(58,259,o),
(18,272,o),
(-15,295,c),
(-20,302,l),
(11,349,l),
(19,349,l),
(43,315,o),
(75,285,o),
(119,285,cs),
(184,285,o),
(226,334,o),
(226,391,cs),
(226,419,o),
(210,445,o),
(189,465,cs),
(160,492,o),
(103,494,o),
(59,494,c),
(59,511,l),
(147,529,o),
(200,562,o),
(200,621,cs),
(200,661,o),
(165,685,o),
(120,685,cs),
(91,685,o),
(58,667,o),
(30,651,c),
(20,665,l),
(58,694,o),
(107,726,o),
(153,726,cs),
(210,726,o),
(260,697,o),
(260,639,cs),
(260,577,o),
(208,534,o)
);
}
);
width = 299;
},
{
layerId = "2927A78B-FE88-4016-B2C6-41428F7EDB2B";
shapes = (
{
closed = 1;
nodes = (
(167,524,c),
(167,520,l),
(265,512,o),
(319,478,o),
(319,415,cs),
(319,318,o),
(217,265,o),
(117,265,cs),
(69,265,o),
(21,277,o),
(-15,304,c),
(26,374,l),
(39,373,l),
(50,337,o),
(76,291,o),
(122,291,cs),
(199,291,o),
(229,345,o),
(229,401,cs),
(229,487,o),
(145,503,o),
(62,503,c),
(62,522,l),
(122,525,o),
(207,550,o),
(207,622,cs),
(207,662,o),
(175,689,o),
(130,689,cs),
(95,689,o),
(62,670,o),
(31,652,c),
(19,668,l),
(64,699,o),
(119,731,o),
(177,731,cs),
(234,731,o),
(290,701,o),
(290,648,cs),
(290,587,o),
(233,545,o)
);
}
);
width = 326;
}
);
unicode = 179;
},
{
glyphname = period;
layers = (
{
attr = {
color = 1;
};
layerId = "21503E60-83E9-42CA-80F5-20ED7CD97021";
shapes = (
{
attr = {
gradient = {
colors = (
(
(210,46,31,128),
0
),
(
(210,46,31,255),
1
)
);
end = (0.2902,0.7216);
start = (0.5001,0.5008);
type = circle;
};
};
closed = 1;
nodes = (
(69,52,cs),
(69,89,o),
(99,119,o),
(136,119,cs),
(173,119,o),
(203,89,o),
(203,52,cs),
(203,15,o),
(173,-15,o),
(136,-15,cs),
(99,-15,o),
(69,15,o)
);
}
);
width = 272;
},
{
attr = {
color = 1;
};
layerId = "2927A78B-FE88-4016-B2C6-41428F7EDB2B";
shapes = (
{
attr = {
gradient = {
colors = (
(
(210,46,31,128),
0
),
(
(210,46,31,255),
1
)
);
end = (0,0);
start = (0.5001,0.5008);
type = circle;
};
};
closed = 1;
nodes = (
(69,56,cs),
(69,95,o),
(101,127,o),
(140,127,cs),
(178,127,o),
(210,95,o),
(210,56,cs),
(210,18,o),
(178,-14,o),
(140,-14,cs),
(101,-14,o),
(69,18,o)
);
}
);
width = 280;
}
);
unicode = 46;
},
{
glyphname = comma;
layers = (
{
layerId = "21503E60-83E9-42CA-80F5-20ED7CD97021";
shapes = (
{
closed = 1;
nodes = (
(77,-210,c),
(58,-196,l),
(93,-150,o),
(124,-101,o),
(124,-61,cs),
(124,-47,o),
(120,-30,o),
(111,-19,cs),
(41,64,ls),
(37,69,o),
(34,80,o),
(34,90,cs),
(34,116,o),
(68,138,o),
(93,138,cs),
(146,138,o),
(181,8,o),
(181,-27,cs),
(181,-77,o),
(148,-128,o)
);
}
);
width = 233;
},
{
layerId = "2927A78B-FE88-4016-B2C6-41428F7EDB2B";
shapes = (
{
closed = 1;
nodes = (
(83,-192,c),
(63,-173,l),
(93,-138,o),
(122,-100,o),
(122,-61,cs),
(122,-46,o),
(118,-31,o),
(108,-19,cs),
(54,42,l),
(47,52,o),
(44,64,o),
(44,76,cs),
(44,100,o),
(72,124,o),
(103,124,cs),
(139,124,o),
(186,15,o),
(186,-27,cs),
(186,-83,o),
(127,-145,o)
);
}
);
width = 239;
}
);
unicode = 44;
},
{
glyphname = colon;
layers = (
{
layerId = "21503E60-83E9-42CA-80F5-20ED7CD97021";
shapes = (
{
closed = 1;
nodes = (
(35,45,cs),
(35,76,o),
(61,102,o),
(93,102,cs),
(124,102,o),
(149,76,o),
(149,45,cs),
(149,14,o),
(124,-12,o),
(93,-12,cs),
(61,-12,o),
(35,14,o)
);
},
{
closed = 1;
nodes = (
(35,398,cs),
(35,429,o),
(61,455,o),
(93,455,cs),
(124,455,o),
(149,429,o),
(149,398,cs),
(149,367,o),
(124,341,o),
(93,341,cs),
(61,341,o),
(35,367,o)
);
}
);
width = 184;
},
{
layerId = "2927A78B-FE88-4016-B2C6-41428F7EDB2B";
shapes = (
{
closed = 1;
nodes = (
(115,478,cs),
(155,478,o),
(187,446,o),
(187,406,cs),
(187,366,o),
(155,334,o),
(115,334,cs),
(75,334,o),
(43,366,o),
(43,406,cs),
(43,446,o),
(75,478,o)
);
},
{
closed = 1;
nodes = (
(115,129,cs),
(155,129,o),
(188,97,o),
(188,57,cs),
(188,17,o),
(155,-16,o),
(115,-16,cs),
(76,-16,o),
(43,17,o),
(43,57,cs),
(43,97,o),
(76,129,o)
);
}
);
width = 230;
}
);
unicode = 58;
},
{
glyphname = semicolon;
layers = (
{
layerId = "21503E60-83E9-42CA-80F5-20ED7CD97021";
shapes = (
{
closed = 1;
nodes = (
(29,400,cs),
(29,431,o),
(55,457,o),
(87,457,cs),
(118,457,o),
(143,431,o),
(143,400,cs),
(143,369,o),
(118,343,o),
(87,343,cs),
(55,343,o),
(29,369,o)
);
},
{
closed = 1;
nodes = (
(70,-190,c),
(55,-177,l),
(79,-145,o),
(102,-100,o),
(102,-64,cs),
(102,-50,o),
(96,-38,o),
(89,-26,c),
(55,25,ls),
(50,33,o),
(46,42,o),
(46,51,cs),
(46,63,o),
(47,78,o),
(55,86,cs),
(57,88,l),
(66,95,o),
(77,99,o),
(89,99,cs),
(124,99,o),
(160,17,o),
(160,-22,cs),
(160,-83,o),
(110,-141,o)
);
}
);
width = 193;
},
{
layerId = "2927A78B-FE88-4016-B2C6-41428F7EDB2B";
shapes = (
{
closed = 1;
nodes = (
(108,479,cs),
(148,479,o),
(180,447,o),
(180,407,cs),
(180,367,o),
(148,334,o),
(108,334,cs),
(68,334,o),
(36,367,o),
(36,407,cs),
(36,447,o),
(68,479,o)
);
},
{
closed = 1;
nodes = (
(85,-217,l),
(58,-197,l),
(61,-193,ls),
(97,-147,o),
(126,-98,o),
(126,-61,cs),
(126,-48,o),
(122,-32,o),
(114,-22,cs),
(44,61,ls),
(37,70,o),
(36,87,o),
(36,90,cs),
(36,125,o),
(84,143,o),
(100,143,cs),
(111,143,o),
(130,134,o),
(138,124,cs),
(156,101,o),
(193,25,o),
(193,-27,cs),
(193,-79,o),
(160,-129,o),
(88,-214,c)
);
}
);
width = 233;
}
);
unicode = 59;
},
{
glyphname = exclam;
layers = (
{
layerId = "21503E60-83E9-42CA-80F5-20ED7CD97021";
shapes = (
{
closed = 1;
nodes = (
(54,46,cs),
(54,77,o),
(80,103,o),
(112,103,cs),
(143,103,o),
(168,77,o),
(168,46,cs),
(168,15,o),
(143,-11,o),
(112,-11,cs),
(80,-11,o),
(54,15,o)
);
},
{
closed = 1;
nodes = (
(96,184,l),
(69,567,ls),
(68,586,o),
(65,608,o),
(66,625,c),
(66,676,o),
(84,690,o),
(116,690,cs),
(146,690,o),
(153,664,o),
(153,644,cs),
(153,615,o),
(151,586,o),
(148,557,cs),
(112,186,l)
);
}
);
width = 216;
},
{
layerId = "2927A78B-FE88-4016-B2C6-41428F7EDB2B";
shapes = (
{
closed = 1;
nodes = (
(57,46,cs),
(57,80,o),
(85,108,o),
(119,108,cs),
(153,108,o),
(181,80,o),
(181,46,cs),
(181,12,o),
(153,-16,o),
(119,-16,cs),
(85,-16,o),
(57,12,o)
);
},
{
closed = 1;
nodes = (
(162,557,cs),
(120,186,l),
(101,184,l),
(69,567,ls),
(67,586,o),
(65,608,o),
(65,625,cs),
(65,680,o),
(91,690,o),
(125,690,cs),
(157,690,o),
(169,666,o),
(169,644,cs),
(169,615,o),
(165,586,o)
);
}
);
width = 231;
}
);
unicode = 33;
},
{
glyphname = exclamdown;
layers = (
{
layerId = "21503E60-83E9-42CA-80F5-20ED7CD97021";
shapes = (
{
closed = 1;
nodes = (
(54,442,cs),
(54,411,o),
(80,385,o),
(112,385,cs),
(143,385,o),
(168,411,o),
(168,442,cs),
(168,473,o),
(143,499,o),
(112,499,cs),
(80,499,o),
(54,473,o)
);
},
{
closed = 1;
nodes = (
(96,304,l),
(69,-79,ls),
(68,-98,o),
(65,-120,o),
(66,-137,c),
(66,-188,o),
(84,-202,o),
(116,-202,cs),
(146,-202,o),
(153,-176,o),
(153,-156,cs),
(153,-127,o),
(151,-98,o),
(148,-69,cs),
(112,302,l)
);
}
);
width = 216;
},
{
layerId = "2927A78B-FE88-4016-B2C6-41428F7EDB2B";
shapes = (
{
closed = 1;
nodes = (
(57,442,cs),
(57,408,o),
(85,380,o),
(119,380,cs),
(153,380,o),
(181,408,o),
(181,442,cs),
(181,476,o),
(153,504,o),
(119,504,cs),
(85,504,o),
(57,476,o)
);
},
{
closed = 1;
nodes = (
(162,-69,cs),
(120,302,l),
(101,304,l),
(69,-79,ls),
(67,-98,o),
(65,-120,o),
(65,-137,cs),
(65,-192,o),
(91,-202,o),
(125,-202,cs),
(157,-202,o),
(169,-178,o),
(169,-156,cs),
(169,-127,o),
(165,-98,o)
);
}
);
width = 231;
}
);
unicode = 161;
},
{
glyphname = question;
layers = (
{
layerId = "21503E60-83E9-42CA-80F5-20ED7CD97021";
shapes = (
{
closed = 1;
nodes = (
(82,46,cs),
(82,77,o),
(107,103,o),
(138,103,cs),
(170,103,o),
(196,77,o),
(196,46,cs),
(196,15,o),
(170,-11,o),
(138,-11,cs),
(107,-11,o),
(82,15,o)
);
},
{
closed = 1;
nodes = (
(162,211,l),
(116,179,l),
(93,193,o),
(74,220,o),
(74,250,cs),
(74,270,o),
(87,289,o),
(100,305,cs),
(164,388,o),
(263,432,o),
(263,545,cs),
(263,599,o),
(215,661,o),
(165,661,cs),
(126,661,o),
(84,634,o),
(84,589,cs),
(84,565,o),
(97,543,o),
(116,528,c),
(49,488,l),
(31,504,o),
(21,531,o),
(21,557,cs),
(21,640,o),
(126,693,o),
(205,693,cs),
(281,693,o),
(334,642,o),
(334,565,cs),
(334,532,o),
(321,505,o),
(304,476,cs),
(257,397,o),
(135,336,o),
(135,274,cs),
(135,254,o),
(146,234,o),
(162,222,c)
);
}
);
width = 353;
},
{
layerId = "2927A78B-FE88-4016-B2C6-41428F7EDB2B";
shapes = (
{
closed = 1;
nodes = (
(156,121,cs),
(196,121,o),
(229,89,o),
(229,49,cs),
(229,9,o),
(196,-24,o),
(156,-24,cs),
(117,-24,o),
(84,9,o),
(84,49,cs),
(84,89,o),
(117,121,o)
);
},
{
closed = 1;
nodes = (
(140,534,l),
(62,489,l),
(33,503,o),
(26,526,o),
(26,552,cs),
(26,644,o),
(152,699,o),
(250,699,cs),
(333,699,o),
(410,654,o),
(410,577,cs),
(410,522,o),
(382,475,o),
(334,438,cs),
(204,338,ls),
(184,322,o),
(167,299,o),
(167,275,cs),
(167,255,o),
(177,239,o),
(195,224,c),
(195,215,l),
(125,168,l),
(91,183,o),
(70,207,o),
(70,240,cs),
(70,267,o),
(86,293,o),
(110,311,cs),
(230,398,ls),
(284,437,o),
(299,490,o),
(299,549,cs),
(299,597,o),
(254,659,o),
(196,659,cs),
(152,659,o),
(108,638,o),
(108,591,cs),
(108,576,o),
(116,558,o),
(128,546,cs)
);
}
);
width = 432;
}
);
unicode = 63;
},
